<mxfile host="65bd71144e">
    <diagram id="At_B-eTAIInEwFjM1Z0p" name="Page-1">
        <mxGraphModel dx="4306" dy="3258" grid="1" gridSize="10" guides="1" tooltips="1" connect="1" arrows="1" fold="1" page="1" pageScale="1" pageWidth="2336" pageHeight="1654" math="0" shadow="0">
            <root>
                <mxCell id="0"/>
                <mxCell id="1" parent="0"/>
                <mxCell id="21" value="" style="shape=image;html=1;verticalLabelPosition=bottom;verticalAlign=top;imageAspect=0;image=data:image/png,iVBORw0KGgoAAAANSUhEUgAABVAAAAOgCAIAAABUXso8AAE1iklEQVR4nOy9f8wcx3nn+TrO4WisA8gQktUCiwNxzgJGfiDJRsjJNgQoZ2wi3dmAAAuwpMPeyz/2EsFAVgLOQAxlAy321hCCMULJFERRNi3bIkBtZLy8aB0p/MMnBjFMQx6RfEVSpGVJr2gS7yuQpshXpPjjJam+mumZ7vrxVHVPT8/0dM3ngwLZb3d1dXV1dU19u556aiEBAAAAAAAAgOhYaDoDAAAAAAAAAFA/CH4AAAAAAACACEHwAwAAAAAAAEQIgh8AAAAAAAAgQhD8AAAAAAAAABGC4AcAAAAAAACIEAQ/AAAAAAAAQIQg+AEAAAAAAAAiBMEPAAAAAAAAECEIfgDwsrD1IIFAIKSh6QYJAAAARgbBDwBeGhcYBAJhdkLTDRIAAACMDIIfALwMe/knCATCPAcEPwAAQEtB8AOAFwQ/gUBIEPwAAACtBcEPAF4Q/AQCIUHwAwAAtBYEPwB4QfATCIQEwQ8AANBaEPwA4AXBTyAQEgQ/AABAa0HwA4AXBP+MhI9tO1TCg/qJt9dXGs8qIcqA4AcAAGgpCH4A8ILgn4VQRu2340mt7lhc+OLSaomdhBkLCH4AAICWguAHAC/tkJGxh1GWSW8+t+XCDzqI/FYFBD8AAEBLKRD85TuaBEKUYTrv4cwyLITm9cY8B/UI/sP+M1Zwd7bqSSH4WxZoDwEAAFoKgp9ACIXpvIczy7AQmtcb8xwWPIL/vn9+t0jwd5cWF1I63f6env28uSfV3t3BfrVzdemLaYTFpe4IEVZPmNv9jaWHpZjq3ywTPzBOz7P3cFfMP6GhQHsIAADQUkoJ/uQ/30EgzFugg5sg+Gcj+AR/0Qh/Ty0PlXYaekpbU/6ZMleKfMeq2tl9OBfnve1UdZeJIAr+VM+LMf3fCNKd3Yd7V1EnpikQmg60hwAAAC0FwU8gyIEOboLgn40wikGKdmJP0qcyW97T7aTiX9TeJ4rEeWGE8E7pqGZ9MBj87+8xv1kQmgm0hwAAAC0FwU8gyIEOboLgn40gPgJ3ZxSC38xwP6QzCDDpbzbQHgIAALQUBD+BIAc6uAmCfzaCT/CfubwSjFZo0h8wyD8xiuDvXWiQbM96v6rg72dPHM9Xmp9x/mYD7SEAAEBLQfATCHKgg5sg+Gcj/Mpjh9ydxSP8vZC7x3Oc9oU1/IlRBP9gbn//Mg+XHPbvdsJO+/qHsmSlkX/CNAPtIQAAQEuJRPB/bOsrxbNb//Mdb/+XLzaeVUJbAh3cBME/M2HkCfwEQq2B9hAAAKClxCD4y6j9VtxI8pXfWVz4V0tfKbGzZPizT/bGxn7vd1YLYv5hp/IlasnnTAY6uAmCn0Ag9APtIQAAQEuJQfCP4MK66ayWDnUo8F4iC50/m+jlasnnjAY6uAmCn0Ag9APtIQAAQEuJRPCXXaS66ayWDnUJ/pKJIPiFQAc3QfATCIR+oD0EAABoKTEL/vv++d0iwf/ppd8b+odKR8J7dunmnlTT/tlgv9q5+qV/lUZY/NKnR4jwlTvM7f7Glz4pxfzDzM/Wwp/8oXF6nr1PdsX85yFPZJC4fW6+Z/FLv+O/RO/qnT/5V+mf3T+xMlaYT7MY7fud6UAHN0HwEwiEfqA9BAAAaCkxC/6iEf6eWjaVp2YDn89I78vadBp8f0r84JTediaJCyOIgj/VyWJM/zeCdOeffbJ3FXVimoIcxESG52o32/9C4blEP5qjzwvz6SlG+35nOtDBTRD8BAKhH2gPAQAAWkokgr/KHP6eFjVlp7mn+yepavXI5gLRWxghvFM6qg2bDwbV+3v8o+XykHt+bu7Mz38Jy2j/zz45PBbOZ/linN1ABzdB8BMIhH6gPQQAAGgpkQj+MjujEPzCwHg6g0ByzmcJfudmZcFvXUJM5NNLv4fgnwvKf00jEAjRh6YbJAAAABiZmAX/mf/yvwejFZr0Bwzy7xhF8PcuNEi2N0JeVfDL1vW9oDS/tN9KxHuzpkm/Gy038h/MXDAM9QtN+sPFOLuBDm6Sj/ADwFxDUwAAANBSYhD8v1JthH8oeg3fcrlNe1jD3zGK4Ncs4f/kkyWH/Qfu8fzO8HqHcgN7cUq8qautc7VceZz2uSb9Qx+Bv/fJzu+VzGdhMc5uoIOb0MsHgD40BQAAAC0lBsGflJvG33gmCe0KdHATevkA0IemAAAAoKVEIvgJxiJ53jF/wgiBDm5CLx8A+tAUAAAAtBQEP4EgBzq4Cb18AOhDUwAAANBSEPwEghzo4Cb08gGgD00BAABAS0HwEwhyoIOb0MsHgD40BQAAAC0FwU8gyIEObiL18vU9B09fypxiqu3s6EcfO/TxJ5aNE7s9FxOLS6t6UqtLvcUcOt2J3wXMEL2nblWEouhZFenVIq2+dAd+S9Lk1F8jpFt3PkvgZrB/A8YLYMbp5o5Zsnu0sGPLqVmX9u0X9wygPQQopIwDaQKhFaHplwlqBsFPIMiBJi9xevlqe3HviWyP2jh35XoyVP5ZtGs3Pjx/5foCgh9GxhScqooM/upXlk6nY6j/dDs7JY89k8jqenHR+oYxjNN7ZbL41ucHUZYHUkPwA0yDxkUagVBXaPplgpopJfgJhLkN03kPZxarEFbWr6Y7rWjnTHm/cePDMkWH4AcHQ3A6Cr6bC35tM4+m7Zw9POq6q9+k/vHCvBXb1EEW/J7UEPwA02D4mpwgENobaO2jpNwIP8D8QeVPPIUg7nlk/1q2ffP2w1sPnDZiaCP8qc7PmF2BBhPBVJtLulm+ZrHeqxbuiH0u6FctYZvuFsb4dQUbuHSiV8x+YtqJwyP9cwIpOGnI59p5M4f1+5uO3jfvzS/4xdQQ/ABTAcFPiCDQ2kcJgh9AhsqflBD86dj+g/tOuXGMnZngTzXdUFEh+OcPXW0u5Fb5tn1+Io3XFwl++RRR8DuXtk81ImffExZKZr7byT5hOOeKlzA3hC8X+jeAkOAPbvhiisVlQHsIUAiCnxBBoLWPEgQ/gAyVPykS/OnU/T1vnt+882jBhIih4NdFPib9c4moNn07RxX8olFA4VWyQXVpnrx9pYIUDNsV+Vwpb4NbqGGEX0gNwQ8wFRD8hAgCrX2UIPgBZKj8SZHgXzCd8+v7EfzgoR7BL8/hH2GEXxbPWp2sJvjNq5cX/IOTx57D703NdIUo2FMEUu5BewhQCIKfEEGgtY8SBD+ADJU/cQrhwX2nMjGvr8mXRXM3BgwFfyqo9PFQBP+cUV7wh+bwy6o1bAnf7UhL+NkSd5hGoUm/PFPAvH5Jk/4sp5pDgPxUN+VCwW+npp+vJYzgB6iTORH8H9t2qITD4xNvr680nlVChUBrHyUIfgAZKn9SuhDKC/7hJk775paCYfZB9ehXi5CX/jyqtssd4Nei9Vf18186r5fChPyhc76lcOYNq/58hn+B074MYVaB/JqUEPx2alrODKODHKsUFszvE7SHAIXMg+Avo/YrlcMPOgtfXFots5Mw2UBrHyUIfgAZKn8youAPmfQDVEAYsa8tdsX8zOsXKt5ogELmQfCXVPsxCv6ZyswEA619lIws+PU9uk2vPpX3o48d+vgTy77xvYx5mcHbu8/ROq2mIacwouVzuDTNfJZAtBe1HrkZRxteEkeDF9zxL69jbZxU1cCogl8f3qf0YHzKS2yrsZwErsn+/MAbDVDInAj+/7D/jBXcnQj+9gZa+ygZTfCr7cW9J/RxvHNXridD5Z9Fu3bjw/P9xbryhOZZ8BfgTLwc/NUvnp4Nqq7+LVvTyY9ojYWsrhcXrW8Yut2sYYBaZs6qJzUEfz0wwg9zj2umP4/wRgMUMs+C/75/frdA8K/uWBwM2+zIlXP5nWbQ5mD9YLizm7XVna5nzzBlLY4u47Pt/sbSw8Nxpm5/j3vFOAOtfZSMJvhX1q8m5ircKedMeb9x48MydQXB38f2Ee2dsyp6pRbnrM4KHnXdFT1XV/VKLaeG4K+HkoUgLsundk4hhwAwBWgPAQqZZ8FfNML/g85QY68ufXEh19Uld/pCJtG7/VGirnbI3ZOn3Ff+mrYXBP9Q2HeV7H+4m5xghB9aTZU5/OKeR/avZds3bz+89cBpI4Y2wu+uVRw7ptpc0s3yLadMIa/U8rrTwhi/3/e1celEfxTGMlTaEdtJlZ2Ck4Z8rp03c1jfs6JV6XWnhdQQ/DVBIQBAQlMAUII5EfxV5vArgb24Y3Xw51A5l9/p5qT78LD3PDxrIMu1Kwb39PvRJ0Ij/KGdMQda+ygZV/CnY/sP7jvlxjF2ZoK/29H15fwJft11s7sSsjteXyT45VPk9aLsS9unFi5DFcx8t5N9wiixDJWzEV5Pq8ArdWDDF1MsLgOavIRCAIA+NAUAhcyJ4C+zc7KCP5fu3aVFBH/9j5jWPj7GEvzp1P09b54XDXrFOfy6yJ8bk/7wMlRjCn7RKKDwKtmgujRP3r5SQQqGtYZ8rpS3wS3UMMIvpIbgrwkKAQASmgKAEsyz4D9zeSUYrVaT/u7DC+lHgdwyv4JJf/bJYLizZzWA4Efwx8lYgn/BdM4fctmF4B9b8Mtz+EcY4ZfFs/YUqgl+8+rlBf/g5LHn8HtTM10hCvYUgZR70OQlpvt9AoEw56HpBglgphm+Js1rtsmFX3nskCgRC/dkRviGK77yO40w9Ma3+HBnUVfmrkM+n9M+LdlsdkDn4eAI/9BTIE77oIWMJvgf3Hcq++HX1+TLorkbA4aCP5WX+ugwgt9Urd45/LJqDVvCdzvSEn62xB2mUWjSL88UMK9f0qQ/y6nmECA/1U25UPDbqennawkj+EeDQgCAhKYAoATzIPiTctP4Qym4xvaEWQq09lFSZYQ/EK1Q8A8359hpn6O6h58MewUR8tKfR9V2uQP8WrT+qn7+S3c75kMwLeRFp33uJwN3ySrhXLcoBgizCuSKUULw26lpOTOMDnKsUlgwv0/Q5CUUAgD0oSkAKGROBP+YoT8ek83SLxN+YOoGPhZMNtDaR0mdgn8hYNIPJRFG7GuLXTE/8/BNRoI6nFAIANCHpgCgEAS/P3S10SEU+0wHWvsoqVnw68P7VJdqlJfYhgn8ZHBN9ucH6nBCIQBAH5oCgEIQ/IQIAq19lDDCDy6umf48Qh1OKAQA6ENTAFAIgp8QQaC1j5J6BL+4LJ/aWVMmARqAJi+hEACgD00BQCEIfkIEgdY+SuoR/ADxQeVPKAQA6ENTAFAIgp8QQaC1jxIEP4AMlT+RCkHfo6/Nqbazox997NDHn1i2Sy9dD6GaS4jeLJN5dSYBNTJqRRoxvuWBJTvbs/hn/5UwZk2ZEbUlRMQ1bhbcNU7k1Kzr+/aLewbQHgIUIi5QRyC0MTT9MkHNIPgBZKj8iVMIantx74kFzVvHuSvXk6Hyz6Jdu/Hh+SvXzdKbgotJABGviK05ZXvVFG01WnlFld7pi4vWyqv62qjGIqOmth8pNQQ/wDTgNYEIoBpHSSnBTyDMbZjOezizWIWwsn413WlFO2fK+40bHzpxJie6AMJMSfBbml792VnSdqm49hev/uld/bQsQWe1FmOHV/B7UkPwA0wDXhOIAKpxlDDCDyBD5U88hSDueWT/WrZ98/bDWw+c1iN0LAtkbSGIoYjpKY1OZ3GwI4+QHtd0yPDQ4tKSoVuWOo6RM0Be9/pVqeuvM6bGHkQMxO+aKZt6vyf3u8Y+YYzfvkaePWF11lXz44FH8IupIfgBpgKvCUQA1ThKEPwAMlT+pITgT8f2H9x3yo1j7tSFhGben5sq6xbMhmYxJ0Hn5/aFvza1OfsywNQBMLDqnr/OaIPww81gfDvlrOINxfmqNd5u1UxXeGuC39bd+jeAkOAPbvhiimVlQHsIUAivCUQA1ThKEPwAMlT+pEjwp1P397x53neu9pc1RG+MpJrKyhj/twdmbQXl6hbmDoCFT/CLO4dKfnCwML4g+PNKalRXV8Sbg/FWPa86wi+khuAHmAqNT0IkEOoKTb9MUDMIfgAZKn9SJPgXhs75U/SZ/JYbv9EFv2csFMEPI1Ne8A/ql1bLKgj+ru1KP/924BvhT4aVfuw5/N7UzOkGgoVCIOUetIcAhfCaQARQjaMEwQ8gQ+VPnEJ4cN+p7OuvviZfFi314Z9F0FIKmPSL1tGW7Cg06Ufwg48RBH9fGnc6wlh6YSKSH/5yc/jzyLoPCmNyivVGFAp+OzVrwswwYQQ/QJ3wmkAEUI2jBMEPIEPlTyoVwsr61SeXzzi7RTWiu9jzRbB8reUDqLbTPgQ/eBhUGa+Vu1FnTC8QBfG1lD3z7sU5/nbieXRb19u+LeUTS6SmvVHmvZqGCO6eAbSHAIXwmkAEUI2jBMEPIEPlT2a8EATLf4BxEYR5SaQx/jLHWsFMNwUAswGvCUQA1ThKRhb8+h7dpjc13023P/rYoY8/sWxXl3TkoFqfJ3flDSMyatGNGN/SXNnZnmFWzdN1vkce0coNuMX5sAWp4aSqHma5EFy7f4BxGU+Y+75Bddu/dsQsNwUAMwKvCUQA1ThKRhP8ajudo5v9ee7K9cRx0HXtxofnNfddfSLo8LSIyVk1O3bXxnX6ClzyT62fvmh0iS1TbcMAtcycVU9qCP56mL1CsG39AWoirVp8Q5KZvaYAYObgNYEIoBpHyWiCf2X9amKvttXjnCnvN2586MRhYu00mZLgtzS9+rOzVGLOald0tF7VK7WcGoK/HigEAEhoCgBKwGsCEUA1jpIqc/jFPY/sX8u2b95+eOuB03qEjmWPrY3SDSVdT3d1Oou5+yPjuLVkl+Sya6ljXGKOMR09df2l5CyP1tsbiG+5kHKWelI7y3mlNof1hbw454ecVAmpIfhrgkIAgISmAKAEtU2DlSdXRjNyZi5iKk3MLJrO6evg+SeN5ilml7bmo1pXCk8azRmuKyy7O9XOZUIrNMm4gj8d239w3yk3jrnTcnGsL8qV121HtvU2zSnh+bnmolzaK4yhr+xQWiolrcXr2suhi6VqpZwV9VCc28uk+9addjZkD9fG9yD/j19gwxdTLCsDmryEQgCAPjQFM86jr7x7x/M/T8O9L77z8skL+tGV9atrFzeaytv8UN80WJEoBb9/mqfwZziOPzW9O7m6tGR1f83PK91OYd7CPUlXjRfdKRNaYfKMJfjTNmvPm+d952p/WUP0xriyqTPNL23WMLWtJ916HE2DOA4+wS/uHDZt+UfNcHxB8OePxXhArog3GzjryVYd4RdSo8mrCQoBABKagplh/+rF7ctnHtp3avfx9/T9Ww+czkaPVVD6Xz/61R+tZoduefrIM0fP6kdfPnnhkf1rL62sqw0V0smbUIH6psGKRNO/NQS/Z2Km+Gc4jj81IZksDwFfqyUnjTp7hCQDqTGhFabBWII/s0pK0Zsw6/vl6ILfMzKM4C9FecE/KFGtXCsI/q5teZR/O/CN8CfDxzx2k+dNTWx8afJGY9RCuHrjw8llBgCagvawcZTC1yX9lr0n9KNrFzdSua6C0vN63yzpj//f9ORr2bnbl8/oRx/adyrwsUBFTg0HHtm/poKVMujUNQ1WHAPT5rG2HVPwyxMzE+lPcafdQZVSM8bQjTx41/cNpxbuSbqJ+lNjQitMhdEE/4Par4I+GSmLlhov6TOUhtjmLppJv2gr7r6Z+UsrmfQj+HVGEPz9hqXTERqXwkQkP/zl5vDnkfV5SV19OoZVB0o0+mZq3Y6YME3eaPi6L76gjp6+dK2JnALABKE9nBpKsSv598APT2aaMNuvHsGnvnvs3hffUZq8svB2zfv3vHleXSubEfDSyrp+dIvWr1PBsg7IjqqMueceO3s5/QYxJ58JJjANVuz0th1b8JfQq9bpYU3r67IuLBiOw4aC3/20UpCaPsolDiZ5Bb+wwYRWmApVRvjDqN+SJ82Px31EbaY7ofBFsDzP5S+a7bQPwa8xKCSvlbtRSobQLoqvpexpplwLACNfxhn2D5jWinrayvKpaXXIvFfTEMHdM4AmLyk9XmFFRvMDRAbt4RRIJX0Wfn/Xcf3o5Ws3VJh+rlLRnn4UcEf4S34OEI8++sq7D+07lSarDkXgZaD+abCyWWvbcQV/tq8Wwe9LbdAxNFxY2dq8TGplRvj9EbpMaIUGqF/wTw+vHQ6MhiDMSyKN8Zc51gpmuvJPiwqCvzWFJrpBln0jlyP9dlR8dh2dtnHyOTLBDscIOYmmt1ovUrFM4PlaY0bOF878muJzatOrPducu3I9nTN/9wtvq2AdSnW+0slbD5zev3qxqUxWQKlZdV+WaNcNB2568jVr/P/OPW/pnwMsrwTpxwKf3UH6GaLBbwQr61dVDlMnfBn1T4OdH8FvT8zMYrq3XGbOppiaHl3MQ+JRyFZqReI5MDFZSI0JrTANWiz4u47dP1RhPGEe8HbS9q8xs1z5p0Y1wa9CA+NQ1amlF1W+yle+XFO9vVL2NVXTgakUi+SmxcmGvnCuHYX2sBZSjaeHRgbtZwSlch995d10hP/eF9+xbAeUyNcLyhL8d7/wtn7UWpXgmaNn02T3vHleHbJk+fioNH9/13F1FZVJPfEJTIOdE5P+PtY0TzeCtrd4zqaeWndJl8fDD5va3GJBYAfyFhbPYmcgeKddJrTCxGmd4Ldt/WEM0sKM4/ejfmav8jfASIJfj9CqPmxdgn/SA90I/iiZRrEYel+6morQWQpNyKI9LM/axQ2lTpXavHPPW7c8fcSS9EooKpX40L5Trms9sFBFl3kitES7KkBVjJu2LYuC3/pYYB1Nz03XL1SPyVqVQD2U8FeYrQdOZzpfRdY1/0SmwQrzWNuOb3Td/ajhax59czZ9qbnzRc02Tjvu+zQqpyZMDhUzzIRWaJjWCX6AKUHlT4KCPzsk/it1l/IfIf27uvkL1/8Z6w72q51ZFOM3uDCCPfmtv7HUkWJaP7Pa6XZ+nfzn5InkQ6RWXNHTsh2td/VOZzHLipmxwnyaxWjfr5vnvCSLS88b07Yt9BSRdYpYqM4KLotLUs4jo0TxOo/SrBuJVnPMxZkHyZjj+52OnVxP7nfDLldpD8vzqe8e09Vmuyzz4yAb4b9zz1tKkIdtB6wHdNtzb2SH1KPUz7187cb/8twb/+v3f35hI/+J0zU/rwlEANU4ShD8ADJU/qROwe9OStZszfKDml2xbmKcxy0TQZSsegI+/8CenemYqDPmaSImko2nimaZcjRHnxfm01OM9v26GR5ezDjRU3remPrUwfDwUxrT43/YKeSC8o6HwuINPEojWv4u2GVo7tIi9reG4t6eLWxci/ZQR2k8JSm/+qPVdJDZUowP/PBkuojd7uPvHTt7ualMgg/1vLL1C9VjsmwH7n3xHf1zgP4E1WP97H97w50gkGl+XhOIAKpxlCD4AWSo/EmNJv2uswdnNHeoTCTZXCB6CyOEd0pH9clDmi2BX9DKQ+75ua7ZoRvNstOz7QZ8+SxfjJ4MF5wYjinnxFdEi/pHAbkEhuo2DtvVYsoVrxWzoG5YZej5jtLfzuumUUvtIX7aQx1LEzqLqEMkWOb9L5+8cPvf/Vw0+FeHMsOBKWYQoH6oxlGC4AeQofInpUf4VfifP/fnbsjPaaXgF+RrKlGD9uqem5UFv9+Rb340O3lygj9LpbD03JgjCX7T4lw6Jb3b1i/yMQLlilePWVA33DIMCP5OZ8HE/UbQZ97aw5X1q9uXz6STvV1Jv/v4e3fueeuR/WuTcAgHs4yqFQ/88KS1U9WBdOLAvL0mECVU4yipWfBfvfHhePkBmBVo8pIRBX9y9awe/uiev9ROKjTpDxjkJwX6x9jWRGRuvTy64Jet6weZlfZbiXhv1nL840TTNFppe/vSxWhleHjAEJBi6bkxK5v02+PU9im98u105kfvly1ebbugbrhlKK7qLK0FJZ7RJ+728PK1G5bnNqXw9TH8r/5oXqojFPLQvlP6B6BM7SexvyYwJ1CNo6SK4Nd/Ba2gjp6+dG1SmQWYIjR5ySgm/Urwb1x+71/+23+fhmuX3rvnL7aaUXIrZMdpX1jDJ0XiPLGl8uAynZLD/oMz/M7weoec7Dt3ZyquBTP68HSP0z7XpD/z8pcrt6J8FhajneG+mzfzljyl58T0PZFAGRlSU99ccJKek+n7fUYqXrPU8rphP2WrDG1rffEhrc6Xl/61ixtKtm3ZeyL1sXfvi+/oR5V+U4dUBMvBO4Dizj1vpcsE6mo/ifE1gTmEahwlFQV/ODKaHyKAJi8pGuHX/1WC/8LF86nav3Bh/cKF81/5m+emn2Eoje9DQPM4YhNGxi7D0eZICLHb3h4qYWa5at+/elEfrrAEP0AAVZ1ue+4NVYWsJQDa/poAJFTjSKlf8I9dS8RuqD53sWS3ZXa7s3OP9GhGeLJlsbyBm0OgxjXFukKTl4wo+M+cf1+p/TPnL/T+Pff+tl3/NP0MT4uuOfN59vWpm+FJt5BVi2iepu9PCqkMi30sDBEtLNrYHq5d3EgXZrvl6SML/SXW9KOXr9144Icnty+fYdk8qMDK+tXNO49aX5Ha+JoAWFCNo2Qigl/w0T0CQcE/bjowC0zl0ZgeqzyTrvW5s7GNaNXCSCb9J3/5waleuHjq7AdK8z+/98hU8gjVmMEWMrU1n7VctYtJleHst4dK3lvSXUn6rE+yadvyHc//vKm8wZww+68JQCFU4yipU/DrERD84Gcaj8bQ+9LVVITO0nzNWa1AeS8eSvD/0T1/+cW/+Nuv/M1z39j1T0rt/86/+4+N5BkAamdm28NH9q8pJX/Tk6+lObR85m89cHr38ff0pdQBJsfMviYA5aEaR0l1wa/76Hb/dQR/X+N1h56GhJFX00eRN6bk1KrAQVR/IFdzkD08w1nPanEpXBpQEyUe8ZJtgu94A8s8XRnrfA2TsVak6tjJ9eS+uTr6nHmlLgmFAADJbDQFSrfvefO8Jel/f9fxNG9K8yvlv3Zxo6nsAczCawIaFYeXDHlgzXFyJ4iae0ImpYZWMSNqc+A06WJgx5ZTs67v2+/PKdU4UqYp+HW3zAWrTPljjroElDWP2xz07cqLE8OEKXzEumNz30Ll2lpWwnM0d2kRh64gjP8TK5U+NHkJhQAAfRpsCh595V2l5DdtW07zYLnN3338vT1vnrcW1QNoBPc1+Vi/3t781GE9wkceO5RF+MT2w2qPimamhI1qLVQqxrxn2B8k7I0Y6erfXTnV2iP6oekdNUan7KWFjLFMU9uPlBqCH2SmZtJvVCxNlYWX3XJj6t77wgp98D4IaxHlA8Xai0rTOj3KPWIrZv61U4xmPUfPt5z+ttGYG/XDqAQ0eQmFAAB9ptMU7F+9uH35jGWBf++L76RX37zz6N0vvG25SQOYHazX5GPDr1T6CJnvT/P9QvDXQpVidPS63J8cRHP3mNGMnHStQaZ84MteVMXotnqmOcupIfhBpp4R/nQGrxu0k2xT/HKC3405kuA3v4BJp6TvJ26hp0u5R6zHzJ9d9qyMpsp5jgHB37HtpDwtNE1eQiEAQJ+JNgVK5N/23BuZ7Nl64LR+dP/qxZdPXrh8bQzXQABTwXpNrH5yog2YWfst8l5Kz9WQO2lRnBdZNM+1bUg3HpjdKUzc9UwgDSfiCoK8c+hahcp2ooKo0J+cOY9V0Carpn8pj+AXU0Pwg4c6BX9y9awe/uiev9RO0gxWDPGmvW6uqXZ+vLJJv9doZkDvtVKvOXp/mpR8xInRxofmg7jPUWwupc+o4hl9aPISCgEA+tTSFJy7cl1J90dfedcyy1cKP03/U989du+L7+x58/yYFwKYNJev3diy94TlUcIV/NZ2z1Dl26+rEBb8tnmjMGkxOEk2DqPV0KxbaXanoAu0gio5RVQYnR9d8MuJuNNX3bmlSXYjwmTkMqkh+MFDbSb9SvBvXH7vX/7bf5+Ga5feu+cvtmrHs+9n5rfH7Dtbb9w1r5ROTJ8aDHzMNGSevrngJB3Fx9AWMdIjNp9crurtpsp6jra1vlhRrM8CeOl3oBAAIBm7KVAafvPOo9kYvlL1+tH0Q8DYeQSYHne/8HbqXULX/OIIv2XDnx3KIvxk7QMVXnlXn6tSOGnRkZnCrNW2I826DczuFIbKx5ki6majvOAXzQSsTwo1jPALqSH4wcNYI/z6v0rwX7h4PlX7Fy6sX7hw/it/85x2krdiNY77ckMbsZ/jaPM0hNg0eUkjhSDb7sxuAwLtp2LtGvbTZDvaYZfSMjSzrts+v82P7Xz2N77y7Zv+6vnf+vo/usvdrV3cUNL9kf1rllm+2pmmcNtzbzy07xRj+NBqvvqjVaX21cbB05d0zV/GpD8Nv/r4oUT6IjDEeBOlSYu6dWLWDsXWmbVvPDy7s6TgL5giGhL8+mZoDn9ohD/LaND4tMwcfm9qpvWrbUUrJmJA7zdK6hT8Z86/r9T+mfMXev+ee3/brn/STpp0f93qCJVu9Zi+HwfScyz/8ydaedDkJXX6HB4TBD9Mjkq1S3PQ1M0GdfQpoUaKkfhtVmp/4a//YeEP/nThN29d+N0/vuXr+zLNrzZuefpIJl0+9d1j+umXr93Yv3pRSBegbew+/p5uoqJrfp9J/9+/tW4J/iO/vKL+vP5hvufChu6lIjxpseuZFxndz+Tgxh1LUHl2p2jS7wj+4kTcVlHT9JZ+FhW1fw5/fl/6B1ujD2o9x0LBb6dmzU/w/igh+OeMOk36T/7yg1O9cPHU2Q+U5n9+7xHt+Az219NXZNZyBaMyqedIk5fU6XN4TGawAYFoqFK7JAUvGaC6B63rtspv8yce3NFT+0M+/tufvu25N9IIStKrCDc9+ZoSP4/sX1OiSEgFoOXsX72oaviZS9f0nZnmr/GHbzCKJU8+FedFyrNWW066MJ5zh97ZndZU3ypTRENe+rUruHOTjT1ia6+lqk02tjLu81ZQPjWtHhg/B5ZpmLtnAL3fKKko+N2gBP8f3fOXX/yLv/3K3zz3jV3/pNT+7/y7/zixbANMHJq8pD6fw57f3aKd2e/y0hKCH0RmxpOzoffz1UAC40bD7JrD+taoUcZM+G1e+K//38Kv3Zz1Ef/HTZv0933t4oZwJkALeebo2Qd+eFLJeBU27zya+phYWb9623NviPVcRVAxJ9dtcEQnP4gTY1zL39ZbDtP7jZIqgh9gHqDyJxPyOVxW8OdDGva3cIAMeX5ltiOvS/pnJGcAZyxPzoPvB5JJpim/W++3+X/46//eM+Yf8r/9n3+mtJAQG2BmSF1CqmAJ9Yf2ndIXg7T8Stz9wtv6mJbS/2qnkvSi6Yq6hDp08PSlSXUb7AYBwT9ZxvGHIE4RbRf0fqMEwQ8gQ+VPJuhzuITgt73f0r8BEcmQPh+dF81GJuHJWdP5+sFuVH6b97519te/9lI6yP+5z9/9ub87jvs9aJBjZy8rJa8q4SP711RQkls/umXvCVe0lzyq0tx64HT6pUB3VHHbc29YdT5T+8lEug3ipEV+EGGC0PuNEgQ/gAyVP5mUz2EEP9TJbHhy1vbKgj8wwp9la+w5/N7UtPjj+W1+aWU9dc5305OvMVEfJk0m5h/ad0rpalX99KOWaN++fMY9qqpraplvnZt+LLh8TXeVV4yS93e/8LbKT/ZnpvYTug0QBVTjKEHwA8hQ+ZM6fQ6bHsxdVZPvxKQfRqRZT85DJ/3SlyythuO3GaDv6GFl/aq+R0n6O/e8lWpyV7Q/8MOTuqRPF8PLUJHTE9OPAulM+ymgrqVkv7oRXe0nvCYQBVTjKEHwA8hQ+ZN6CyEzkO75M3OspvOdgk01TvsgSKOenDWPyIK7bGGoX8+GUavx2wytZv/qxdQG3pL0zxw9e9OTr2WiPRseT1F/6pLeOqpSS8W8kvpuyg2y583zm3cetSYR8JpABFCNowTBDyBD5U8oBAAfo3lixm8ztBultJXeVqpbHEsPi3b9qFL+1mz5dBJ++qVgVAP7WYPXBCKAahwlMyb4XVvLWU62xVScEW1PI5XWJvU5g8ojGWNVZkRteCm36jaxY8up1eakqkSpxAyFAOCjvCdn/DbD7JONpadG8pZpvZL6uqR/aN8p/aiKrHamJ9655y3Lrd3K+tU5WbKR1wQigGocJSML/o9tW1Z7bn7qsB7hI48dyiJ8YvthtUdFqz2vUB+VBL9lw9qzwXbNVT1uorTrLi5a3wl0+23fPFuvCasnNQR/PVAIAJDQFLSNy9du6O7lU5QOTzV56nZxy94T+tFUtGfBOvrSyro6Uen89KMAqzOI8JpABFCNo2Q0wZ+qfd0Fd+BPqssMU0XwOwq+K65/nUfzzVntit7Xq3qlllND8NcDhQAACU3BLJFa16eW8JbwDov2Z46eDRw9ePpSKuaVtnc/FkAZeE0gAqjGUTKa4LeEfeJZhVtMyvKSlKs1w05bVF+mFHR8Ki1oY8udTuq7yTpmrclkuUHqH13qOBbjM4pYGmLxDksjcQpLLPxwIuIi0pL/6Wy33yu1OaxvLYKVUXbdaSE1BH9NUAgAkNAUTJG1ixtKmWdr0Vl+6S3RfvcLb+tHlf7PDt323BuW4b1KWXSqB3Xhvib6noOnL2VPJ/X2l25/9LFDH39i2Tyx5KgMC9Zm+ByOGvu1Xqbrx1S3VBUmYbmrBTlztQKPgwmt0DAjC35rW/27+duvq1Ao+IcYa24F1z0yT7LHkg2Vl2lez9iysNCXeVHto8HsT7WUR9azHflN6R85nMH5BbdIgom44/VFgl8+xXrQmuC3n7z+DSDslTqw4YvpHrKhyUsoBADoQ1NQI0pvKzF/74vvZEvK6UdfWlnXJb2KoB9Vcn3zzqPpiQ/88KTlAA+axe0zL+49oQ+MnbtyPRkq/yzatRsfnr9yHcE/HnpR6HpYKiJnXZelgazIhw8XhSEuU3QPloMVu5py9pjQCg1SZYTfsuHPDmURfrL2gQqvvGusVqJ9rRIqnyDj7ZOH76E9vJ99tbOH8YUXxrEV8K/JNMs4pZEEi1cYPPfccugZVRD8olGA9QGhhhF+ITWavJqgEAAgoSnwo8SbEuHW8mzqTyXIb3vuDZ9oD0h6de69L76TjvCrYKUMs4z1mqSWFO6Lc86U9xs3PnTiIPhHxSyKvEvpFpHP3aoh+C0p3z/Y0ZNKe6hmN7dA8DOhFRqkBpP+NPzq44cS6YvAgLz6Zm+HXtWyw976Z79aBSJ2GMUy6Y9E8AdKQyrekoK/4BmFBL++qTV/gRH+LFtjN3ne1Eo2/TR5ISgEAEjmsilQqiw1gN99/D0lvN3F5MKiXT/6qe8e04+mI/wqwTR9JH00iK+JuCcz61DbN28/vPXAaTPKUNGVmHeZGbYKh4TJqvZsWHdHO7H6cn5Z4V1exRD8S6t6DzbtUlp9Ttc6tUjwM6EVmqOiSf/fv7VuCf4jv7yi/rz+Yb7nwoa2nqoh6xxz8ZAeGzIwnjEWhTOjCucOXxq9xuttnHvRdgh+uzTk4vUZCCXyLRcn4jYWmsp3C9M/hz+/C/2XqKtPLrCeb6Hgt1PrdsSEafJGg0IAgCTSpmDt4kY2kH7nnresGe+WaN+886h+VIn2TMwrtX/vi+/oR1Mn+UyVnzcKBX86tv+gWdPSOObOrjTpVT9aqOK60mTVYG9QsxltIQHBb07hF5eQGqRg9GMdc1Wxf1sozq1DzgYTWmEqjLwsX1WGnxBzM5mBzYz5XTHwtlhzbkyrfsuk3/7UaQ13W188Wyj43RlIUvGa77xeIuItFyQS8tKvXcG1oDBPca0wTF1vfaT2nFgiNdcji3mBhew7h7VnAE1eQiEAQJ+2NAXWaLnSVw/88GQ6410Fn2gXJf3axY30rLtfePuR/WvOGCyATVjwp5+QfCsaBubwd3XPSL55l4FDgcFkYXpsS3EFv0folh3hN8YMrZ6z3h/W0isj+LPkahjhF1JD8IOHqQl+l7ZIaxji/SxaQ+wZhCYvoRAgQir+9LgDRtLHRcdI1v4abeUEv81lydai2796Ud+fyvKbnnzNJ9oDkv7clevZCL+SYVbKAKMSFvwLQ+f8KfpMfsuNn2uk2XuzA/Mui6dkBgR/i1W+hmvyOdYc/uEwmD5V3rSeMCgyUhYeqDHYxoRWmDSzKfitdymOxigGyv80GOb57YQmL5EK4WPbeqsH3fzUYT3CRx47lEX4xPbDao+KNtWMApSlkuDPOlEDf85GOq4xk7NH/ADaS6F1fpsf2/nsb3zl2zf91fO/9fV/rHGp9lTMp9rbGku3RPstTx/Rj16+diMwl17x6CvvpomroCLXlWEAF+sX88F9p7Kaac0QSaOlPvyzCFpKXWHSq6EQzVc4cCiRzxQu1G6s+w0aDltfRyUv/brdhPaHWdrZ+UVuyKTvEQtMaIVpMpuCH6B5aPISpxBSta/3VwJ/Unowk1T56ZH0+qo27mMfFCbD+qY4tcpvs1L7C3/9Dwt/8KcLv3nrwu/+8S1f31de86diPluLTkzf13SoPTc9+VpmmW8dZWQeZoQKP3wr61efXD7j7O5Kk14D8y7DUzJtMeyzR2rzOI0+Umg1d9IB/a7tL7fW+Lnd8PptBrxTRIumoBqnMqEVJkGDgh9gpqHyJ+XW6cgOufE1+r9Pjsdgp+sxFC3DfdkPl/Q73eK+CVTDXmfF6rZotajfV879VGnHjToWrorDRHzj83b6w0iCq5iAE1NzOGncWZ1CavUJ/k88uKOn9od8/Lc/fdtzb2RxMkGeGtiLKfgkfXriQ/tOpd8FhBwAzDx0GyACqMZRguAHkKHyJ/51OhJN4W/+9usqlBD8rsdg/ag2Nc7Z1E4x5Aw2QnNHV1wMNNuRVx1de7smrFrEUFXUlHORA1J5nzWwFriWuTGrfps/8l9fXvi1mzPBv2nTJv19zybSp2Ht4oaewtYDp5WS3758JrWuF64B0HLoNkAEUI2jBMEPIEPlTzwj/JYNf3Yoi/CTtQ9UeOVda0aiND6Zj6sWWiFmI58ajPHPHZrVpTA679QiYai8WlW0V4gRZXFQQIsrm1qfFGoY4RdSq0/w/+p/+u89Y/4hf/J//F+6G7z9qxdTMc9ydDCf0G2ACKAaRwmCH0CGyp+UM+kfKIHHDyUhq12fei/hWFg+BeaUtK4YqyAHalFJwV9cFbNEQuuPiIP4XosEe6ZoC/w2733r7K9/7aV0kP9zn7/7c3933LfGGMAcQrcBIoBqHCUIfgAZKn/iN+n/+7fWLcF/5JdX1J/XP8z3XNjQHWJLKstQN+UEv2FoDXNJT712OouOebtci0ST/lGroiaYBet+LWPWpfQ9/jn8WuSF2ffb/NLK+i1PH0m96O0+/p5cFABzCd0GiACqcZQg+AFkqPxJnYUgqveRHAu7DtEw6Z9P+jVAX1IpVIsSxx9fhaqor8pnzCkZfi2w6qO7p5QfAPw2A7QaXhOIAKpxlCD4AWSo/AmFAJASMuSfxvmNQ1MAUAivCUQA1ThKZlnwe20Ly+L1rDRvVCzJbKZnNugjjRa5K7ka3qKcnFhjVWZEbXgpN+A2sWPLqdXmpKpsYbWfc1eub9l7Qv2r75y3QgDwMY77CGE1gLZBUwBQCK8JRADVOEpGFvwf27as9tz81GE9wkceO5RF+MT2w2qPijZ23sYW/A2nPztUulPNhnXJWQsq6JvKOt/OyaLRbba8ZPtm3npNWD2p1Sn4H9v57G985ds3/dXzv/X1fzx29rIQtf0onX/H8z9/5uhZ9a+u+Wn3ASChKQAoQeA1+WDjxlM/Xr1/1+u3P3FQBbWh/vzA8HQDMBPQ2kfJaII/VfvWoly+P8euLgj+uqhyp5Jez/e5K6ALa6L75qx29aTH9kotp1ab4P+3//c3Fv76Hxb+4E97i1H97h//RmefrvnTlaWzYA2PZ4tUpeHytRn9aU/V/sHTvVX01L+65qfdB4CEpgCgBL7X5Ke/eP/z3zr8h3/btYLaqQ5NP58AAWjto2Q0wS8uypUdcuMb5Dbf2oJASx3bTjvzndQ7JiqxoczznGh6TtJknnEtrzekWcOQwZpLaTPzvQOdTubJyiprucSCifjG5+30XUdqgp8rI4XeLnNY31oWK6PsutNCavUJ/l954Mme2h/yL37707c990YWZ/POo/oXLmv16XGO3vviO0p4Z2Ht4oZ+NPyhIT26ffmM+KEh/QyRfbbQ1X6Krvlp9wEgoSkAKIH4mihJf+vWVzORf9eO5S98czn7Ux2SNH/JcZopD1xN7XJe76H5YddFah5/Sd+nInriZGJEEAKa09OulVoeofeHqG2Y0Aozx8iC39pW/27+9usqFAl+Q5TlojV/3ewt21+xkdTwiLGEkj6b3Krfvmu1YYS/G1jH2bhBXXubN6aVmDCXVEykhEdpeZ/lATtwLXND+DqgfwMIe6UObPhiBm+rz0Dwf+3ldNHplE2bNuk1/NFX3g0I77tfeDsg2tOlrSbxsWCko7ft/pmu9lPUnlt2HF4+c4l2HwASuoAAJXBfkw82blhj+/+m05vxao3zO7b9rRP89ebE6kma/dbByqzhzqd/vNDuoKaTQ93U9H5zyOC1m0uPTL5EMqEVYqLKCL9lw58dyiL8ZO0DFV55V1MR1lpGtls3UfWVeWOHr+yqPRBuLr8kNgQtEfx6qySMzjv3IgyVe9rBQCK2Vvf6Pww2IW6rZ15drwZjjPALqdXX5P3rR1/qGfMP+cLinyvBLMSuG30ugDtKH/7QkI7wb9l7QvzQkNoOZLL//33zvC8Dn/1vb9DuA0BCFxCgBO5r8tSPVy0zflfwq6CimSkh+LXUzP5h2jV0+pdjCX77+0HvYCcgFiRNHxqdGyTSqgmtwgFoMzWY9KfhVx8/lEhfBAaUVKEjC37dpiZWwe+0bsJ3xNEFfzgRo7kKLSglDuL72zz32Y3d5HlTE38tRm7y9r519te/9lI6yP+5z9/9ub87vsejkNuINWM/I7Pzp90HgIQuIEAJ3NfkvmdfLyP479/1upnSUNGZttxdaSbmYKBZPOROm3VM0N0dNtJMW/Ny+V/yvNKRsTpmendw2Luze6ZjCf6lVbfTGxALBXo/jgmtwgFoMxVN+v/+rXVL8B/55RX15/UP8z0XDAslw2BluEcU4aVM+h3p2zVN+i11127BP7RfcszbhckLxt4h0u0XJ2INnnsyZl1K3+Nv8rTIC8Y0AkPhlzJq8qXW7YgJV2nyXlpZT83vb3rytd3H35OLorW4ml+f1R9o9/E5DDA/0AUEKMR9TdSPYxnBr6KZKXWluav60UIV15Wmsgb7h4LvZefkUjkpTLMQv+A3xr5EZTu8d+GLQ0Dwa13dQcJmSRqpGd3iQd/TnlHf+gmtwgFoMyMvy1cd3arfZ9Kf5G9W2Glf37ec+YoJbuMKWqLBpWbbaV+f/r25t5pbIblvuN44ibdfkIi2Kp8xG2P4tcBqSt094pcCu32xfz+cz8S+E0ukpmU8j6U33Pa9LJg/ZfPT5Oma3/Lh5ysEfA4DzBXz0x4CVCYs+D/7jQNK7V/a6P3UlhD8RsclH7MweitC59kzSdMzmCzMtzXxGd4GLleYZjGu4BdUvmPaO84If550N2QjbJ1r7hPHzNxLd9sxoVU4AG1mioK/NtozMt9qQob80zi/cWay8k+KVPOvrF+1PPbX53O4AjW96V4HFGNCQwSVqaPyjF2xR/IyPVftIUA13Nfk/l09k/7PPP5qOrCvUBvqR7OUSb8lbAMzMYsnaQYEf1CRi4J/5Imlo+Lab2oe9RfEzwljC/70XvKJ8SMKfmNvYIQ/ux9j+G0GJ7QKB6DNzL7gt17vdH0N+tnTYJxG2zDPbyczUPmnitL5m3cetTz21+dzuCRlfrNHTWdCJ04iJswJgSoRri311aURvUzPW3sIUAHRad+Xv/+zMxd6rnPv+c4R1yzO77Rv+KpnL6ahEE0tGjiUyGcKF5LpCib9xZcbs52yU/NMyvSZvlcT/APBof3hE/z6pNeuoMxjmdAKMTH7gt+F3jNMg5ms/NOmPp/DJUHwwzzQvOAf1cs07SFAIeIn8i27j3/pe0d9Uj+wLJ8zdzUwEzM8SdPWz0ay9nxbh64709a93DCW7bSvskm/MNVSVN6SoO16pmoWCf5eeu7QupCa6UXbuVHBAkD6VsGEVpgibRT8ANOAyp/U6XPY7WW43RHrF6+/03FTLBsgG76IpXScH0LbQLCkq2HJX3HwTr0/4zB3jOvs2lexjTdFHclO8r81I3uZpj0EKKTMJDgr1DcJDqZIaNIqE1phFkHwA8hQ+ZM6fQ5niGZyvp2aPyDJ+i6X97Yv4pLWjCVzZVyraBmRcJowt4QrT/kaKL41C+5m0Vszmpdp2kOAQtrv5tadRQsyvkmvTGiF2QTBDyBD5U/q9DmsdyTKC35nW3D/Wzod8fc5kCv3Wj5/xSPcKcwr9Ti7rvGtGc3LNO0hQCGFC9ne9ywL2cKsQ2sfJQh+ABkqf1Kjz+GSPoRLSZeA89sRBf+orobLCP6CO4V5pR5n1zW+NaN5maY9BCiE1wQigGocJQh+ABkqf1Kjz2HBrN70tlNSupijkMFoJUz6hSP2nALnWkUm/QVpwtwiVZ4qNXB0wS+kM7KXadpDgEJ4TSACqMZRUl3wp+ZJ9+/CPAnihCYvqdPnsODUNzdm7nRsH2Ze62XX/a8czZ+OPjdxdFfDwwT8TvuK0oS5Rag8I9dAqWIXCn4hnVG9TNMeAhTCawIRQDWOkoqCvz0OSAAqQpOX4HMYIFZG9DJNewhQCK8JRADVOEqqCH6ru3/XjuUvfHO5qLs/b0at83a/hdRRIAEn6+UT6A1biQu72enS5CV88isGn8bQVkbyMk17CFBI+poQCBGEpl8mqJmRBf8HGzesjr67KJdk0Fte78UhleftfgsJ3Ga4BOorn3zUajhpVfCYlUOTl+BzGAD60B4CFNK4SCMQ6gpNv0xQMyMLftWnL7MKt+2ya+4E8LzdbyHNC37JgjXglJoObg8KAQASmgKAKPj9Xcddafc/feto0/maIA/tO3XTk6+9fPJC0xkBaJKRBf99z75eRvDbi3K5zrRy61fdvlqzj/WZGhpH+8kuZZ6QVv07RddEfo/H7umOHbi7I3fA5HXoZd1Cwf22HqlACkrAKFXrqPmMuoOY6fro/sftHcM3RD5eqSUoBABIaAoAokB8i+N+tZXgVzeo/m06IwBNMrLgv/2Jg2UEv4pmpuSO0w732COrZUZ0jdWGNO/Zmh9taacm1MMrgbsnudPHtXO7neGdFC3ZJd9CrCP84QIpcjGdl6rnGTmb5uN208nr2eBrgF3xWHfahkIAgISmACAK5lDwv3zygrrBzTtjtmIAKGQswf/ZbxxQav/SxvVkJMGfj9r299haMCiArXPLL0psuicaaruKp/fQVznKRpnzjPvvInQLceErkEAJuKVabd1pOR3HiMJYndoe4qeDm1AIANCHpgAgAuZQ8F++duOmJ1/btG157eJG03kBaIyRBf/9u3om/Z95/NV0YF+hNu7asVzWpN/jJi0VaI4INxHObVbwO3sKBX/BLcSFWCDhEhDcRlcW/G46wqyJwCR+OrjJ6IVw9caHk8sMADQF7SFABMyh4FccPH1Jyf6mcwHQJFWc9n35+z87c6H3neye7xzxrcXtddqXqTPHRn6o/4Jj4/a55dWgZdKfW5rn3gBCp4sm/cKeApP+gluIDKlAih+if+pEecEvpKN9fhg66be/NTCH30EshLBb19OXrjWRUwCYILSHAG1n7eLGfAp+AKiyLN+W3ce/9L2jPqlftCxf5sat08kEvum2brBDGI51zh1JDeZm3uYEgsHFOyXEpJlR3W5c8x6wEHLa595C4H7bj1AgRSXglKp2tLzgF9LJFb3gvlGwAKCDm/gFfzgymh8gMmgPAVrNyvrVzTuPIvgB5pORBb/ip794/9atr/rUvjqkIkwswwBVkfz0B47RwU0qCX7P0VmyZHHtdWpjlm4T2oFUZyZQRfV5TvmXWNPIzjLD0qE9BGgvmdr/6GOHXNO8m558rekMAsBkqSL4k77m//y3Dotj+/Wp/XxEvbUj4BHcQlQIU/v7aPM9cujgJlUFvwrObLn2KuGRct7e24SmmEqd0ac0ydfT1zvhAyhAPBw8fUlJevX+3vbcG+euXG86O42xdnHj5ZMXms4FQDNUFPxJ37b/qR+v3vfs67c/cVCF+3e9rv50LPkB2god3GREwa9HQPADlGMadcbQ+x5/sp0lTeYzxQkgFrYvn1Ev75173ppnx3Wp/4JN25bnuRBgnqku+AHihsqfBAV/dkj8Vxb83aEDB2t9DsMAxoiZrndp2x/nZ4lWM+K1ejs7ncX+KanEcpbuEJyKaEY6to8J/6WHbiOlU4SLhh8BxI63uub+SpZsE3zJ9U1avRcXhVptju/3HNaYyfXkvrmyLE5MASJi9/H3ELq3PfeGasReWllvOiMADYDgB5Ch8ic1C35tHQzNy6XmAlOTys6meVZ4tFI7zUzWVlOBVRkLPUR6L219SnBOCV0U5hBfdXW+HAlTj6R1SYQKZu7SIg5XMTX+T6xU+tAeAkCreWT/mmrEtuw90XRGABoAwQ8gQ+VPJmXSrwkNYZ2EoiUY9PUX5IF2w0Y6mGymajT5ng+eOoK/3KUXdX9rwinSRWF+CVdX7/cmby0VKpjnI1N/21i+xKi4Ru2kPQRoESvrV5vOwsxx8PQl1Yjd8vSRpjMC0AAIfgAZKn9SeoTf3Ziw4A+Pi+tnZbHlZFNZYy7ZmBnii4K/8NKmUbV0in1RmGvC1TX8Cki1VKhgAcHfMT3LSnYCfWgPAdrCnjfPb9q2/Mj+taYzMnPc8fzPH9p3itkNMIcg+AFkqPzJpAW/bdLvWOz7zwpKZS1CYbI9VdTpLDoG+IJxdclLD8z29aFY+5TBRdH7kBRVV6neFtRSt4Ktmu748pMNTc8cfoD288zRs+nbiuAHgIxxvfTfvwsv/RAndHCTSZv0J7rFe1jk+87y2tX3HZjpx33J9tPKExkmremlgfW07YEvPJugH0/bXHByw/R96BOurmK9dWupKfidCmZb64sVeBUv/QDtBrUPACIVBf9Pf/H+5791+A//tmsFtVMdmkxWAaYKHdykaIQ/kUb7E1nwTxNb/MwguOuDiWJXsNEmkAixaQ8BZp8te0+o93T78pmmMwIAs0UVwa8k/a1bX81E/l07lr/wzeXsT3WoBs2fWyoOx9cGrq/L9Fla0N2fP+p4KGUrQDCBXi/YXlpNzBwd3KQdgr9rTkLOVt1r5NLlYPo+TBSpghU7oBgimp/QHgK0gpdPXmg6CwAwc4ws+D/YuGGN7f+bzrLab43z12fbX8H0tXx3n08DUyNQ1OGnUN8zyjvB3a49b5wRLZn6TPqnySy/1+nHppnNHrSdSVUw2kMAiIBzV64/tO/UAz882XRGAKbKyIL/qR+vWmb8ruBXQUWrKYcV+u4I/hmkecEvDXqFlkSng5v4BX9haCS3ADAheK8BZhOG9Efi8rUbm7Ytq9ZMKf+m8wIwPUYW/Pc9+3oZwX//rtf1s+zVt2xfVrlhdd93UWaUa601LHrtGiacuTFaWvJJxDy5wWrYI5viwmhID6XgKRhP1jpqOrLqDmKqI9lJ0vrn3jF8Q+TjlVqCQgCAhKYAYCZJJ+0/c/Rs0xlpE3fueYtCg3ljZMF/+xMHywh+Fc1ISBhJNRauGup5feJ+wEexfK4mGMNjwmLiUDvhhxJ+xPqTlRdmcze1C4rpOK7YjQ89rDstQCEAQEJTADBjXL524+4X3lZv5U1Pvnbw9KWms9Mmti+fUeWmSq/pjABMj7EE/2e/cUCp/UsbPauYAsGfq6mB/DKWqrLHb5MCNeieawzP+mW8ZTGA4J8ovocSeArj1Ap9W07HMeQwlki3h/jp4CYUAgD0oSkAmB2U2k+HqVH7FVhZv6qKbtO2ZVWMTecFYEqMLPjv39Uz6f/M46+mA/sKtXHXjuWwSX8ylFO5qBJcBo8k+M1zywh+wUMbgn+SiA8l/BTGqRXyVfR05GXTfZP46eAmFAIA9KEpAJgdUsGP2q/M7uPvrV3caDoXANOjitO+L3//Z2cu9N6Te75zxNL5Iad9PX3X6SxmmsoYXR3uKSntxHOLTPoN3wEI/ikgPZSCpzBOrUiCNUT7/DB00m9/a2AOvwOFAAAJTQHAjKE0/7Gzl5vOBQC0gyrL8m3ZffxL3zvqk/r+Zfn6ok8fQ9Xtrkc13rbPzQ3F/U77Mg9ynU62PlsHp32TRHgoRU/BebLa0fKCX0jHtC4x6s7gVLz0O1AIAJDQFAAAALSWkQW/4qe/eP/Wra/61L46pCJMLMMAVZH89AeO0cFNmi8EfY7GmMY4Y5rzYA0EjVCx4hmzmnJbq+xPc00Tc494yaabAoB559yV66zABwDVqCL4k77m//y3Dotj+zOj9rUV3RjEhz7C1P4+Vn84hQ5uIhXCx/oL2N781GE9wkceO5RF+MT2w2qPimamVE231CizEfzQRipVPMucqdPpGOrfWsrE3cMHUIDZYmX96u/vOr5p2zKav0aYFgHzQ0XBn/Rt+5/68ep9z75++xMHVbh/1+vqT8mSH6CV0MFNnEJI1X4Wsgjin2bpIfgBKlCl4jl6XXZOOojm7kmY4gQwQyi1v3nnUfUCKs1/7sr1prMTCUrqb9q2rIq06YwATIPqgh8gbqj8iVMIlrBPN7JDbvyMjmFq09Mwnc5i9odthZP5echdP5juG5Ycm2ThFAvRv0O6pKfpysFeN9Qa/AQoi1i1nApvvA5Ozeuf1s2qt+bd1JuIOz6fy3d77ZRO193jxOtBewjQCEqXovYnxE1PvqYKdmX9atMZAZg4CH4AGSp/Igl+a1v9u/nbr6sQFvxFazEkpqR3V9wwjmp+Ou0t7yIdosfHbsca4RxuOnEQ/FCBwLKf8pIirrOKfoW334xwIu4SpKMLfpYpBZgNlMhXUv/OPW+h9mtny94Tqll79JV3m84IwMRB8APIUPkTzwi/ZcOfHcoi/GTtAxVeeVdfH9i3sII+WDn0z2foD2mE30pHPsVC9/9nOffQ5jDbw/vuChEA5XGqVuJUeNv2xCfpze1AIvUIfnuIn/YQoCmU1L98jQmz9bP7+HuqWbvj+Z83nRGAiYPgB5Ch8iflTPrT8KuPH0qkLwJDAqsnmjbE0xD8tofGNAHT01lAdwGUxV+1sn2jC/5wIkHBX3YOPyP8ABA7565cv+XpI1v2nmg6IwATB8EPIEPlT/wm/X//1rol+I/88or68/qH+Z4LhgtP/0BlPqhe0qTfTWdUk34nRk/odDqLxjpmjmU1gh9Gx6pacoXPqpZo0u9U+OJEvHP4tY8F7ucD89MDc/gBGuKllfWDpy8VxwMAKMe4Xvrv34WXfogTOrhJrYUwsEG2zeMzb3tKFNnmyl6nfX4L5xGd9i1oBszm/Gg7DoIfqmFVLbfCW1XL8scnVviCREJe+rUrGA4F3T146QdoAqX2N21b3rzz6NrFjabzAgCRUFHw//QX73/+W4f/8G+7VlA71aHJZBVgqtDBTdpYCJLFPsB84Y7xj31++5oCgBbyzNGz6buGnTkA1EgVwa8k/a1bX81E/l07lr/wzeXsT3VI0vyMj805dVQA19y1QgI9MVhqyTU6uEkLC2Foi58Pk1ojlwDzwDgfvoTVAFrYFAC0jtSHnAqP7F9rOi8AEBUjC/4PNm5YY/v/prOs9lvj/I5tf3m9NyOfBmYkG9EQKM9wUdf3IPJRq243t+P2rDpNB7dPSwpBsNEHgBppSVMA0GJW1q9u3nkUtT9l1i5ubD1wWoWmMwIwQUYW/E/9eNUy43cFvwoqmpkSgn/OaV7wS1auoWWy6eAmFAIA9KEpAJgC565cbzoLc8exs5dV47Z559GmMwIwQUYW/Pc9+3oZwX//rtfNlHLZZrkkMu2rNUNccaBOssXudFKfSPq2Mean+0fOIzj5Mx10MV5YB5lvKc2VWkFRG4/YOmp6busOYqoj2UmG3yo73ZDexyu1CIUAAAlNAQDEi1L7qn3bv3qx6YwATIqRBf/tTxwsI/hVNDMld5xWW2HIENXlhoK7neHJhp9ufVv7nuBfjst7CUb4xye8WFqx33VzBSrrlAV3U7ugmI7jKduueKw7bUMhAEBCUwAwGR7Zv8aofuM8tO+Uat+++iM6/RAtYwn+z37jgFL7lzZ6TdUIgj8ftc0WAda1oF9p6xN17SFf80TTYdFQyQU1vJUrBP/4GGPm/grgWy8t9Ig9z91YWdpNx7HWMD4B2UP8dHATCgEA+tAUANTOlr0n1Gt123NvNJ2ReeflkxfUg/jUd481nRGASTGy4L9/V8+k/zOPv5oO7CvUxl07lsua9HvcpKUCrUCWC36HaxL8Qq4Q/GMjCv5wUZd9xGUEv5uOPJXDN4mfDm5CIQBAH5oCgBq5fO3GvS++o96pm5587aWV9aazM++ox/HoK+8eO3u56YwATIoqTvu+/P2fnbmwobbv+c4RS+cXO+3L1JmzxNpQ/4VN+q1jAeGnm/QHFl8zTzXs/xH8YyKZ9BcUdclHXCT4hXS0zw9DJ/32twbm8DsECuGDjRvqNb9/1+u3P3FQBbWh/nSW5wCAGKA9BKiRTO0fPH2p6bwAQPxUWZZvy+7jX/reUZ/UL1qWL3Pj1ulkAt/0jzfYUeC0L2jSb8T0RBDTzXIVzgaUZPhwNad9RUXtrLCmHS0v+IV0ckUvOHTES7+MrxB++ov3reU5s3dfHZp+PgFgotAeAtSI0vmbdx5F7QPAdBhZ8Cf9vv6tW1/1qX11iB4/zCKSn/7AMTq4SbkW4K4dy1/45vIstQCY58whdTx0x+6sSgK974bScjJCuv2PmQGftdoqJZqLUgM7tpyadf2Ab1pvMdIeAgAAtJQqgj+Z0vie1bepcah9cinDTCNM7e+jzQDJoYObeGx8rHffXadDsvEZn/KKbhIxYcYpt7zLyEdHIf9sOJw15PFZo1960WiTLOemukvRQte2gdQQ/AAApWDRBIiSioI/Gc7gve9ZZvBCnNDBTTxePMoszOl48RgfBD8EaF7wS5o+4BV0eOmuuJqJ83HS2OEV/J7UEPwADaNk5EP7Tl2+Rid5dnlpZf2Wp4/c++I7TWcEoH6qC36AuKHyJ1Ih3Pfs62UEv7NOR+LYOfekRaezmLtYEH155O4bTIscJ37uHSJ3GGFTkCa0Dumhj1JzrKOmEu4OYqoj2Un20jJGuiG9Lx0fXM4c1vetM6Kf7xf8YmoIfoBGUWr/93cdV2/Qlr0nms4LeFlZv5p6UuS7DMQHgh9AhsqfSIVw+xMHywh+Fc1MyZ0erZssGyLFs0yDxzvjIL60JISXgOCBFhF+6OVrjrzMh7upXVBMJ5fog68B9ox635qjzobwdUD/BhAS/MGNQMkEUu5BewhQDSUjU7X/qe8eU9tNZwdCpE+KhRIhPhD8ADJU/qRI8H/2GweU2r+00ZvwViD4hRFLz5IKC5qkMhyTBeOvipbMDoE0oXX4HvpINccr+IPrgMjpOIYi9jx8v7oenF3DCL+QGoIfoCEuX7uhdL56d5SSZHL47PPI/jX1sB744cmmMwJQMwh+ABkqfyIVwv27eib9n3n81XRgX6E27tqxXGDSXyz4zaOCt7Oi+IWCP5wmtA7xoY9ac6oLfjcdYWZIcBK/nnKa4thz+L2pafHzpBD8ABPnpZX12557A7XfCvavXkTwQ5Qg+AFkqPyJx2nfl7//szMXNtT2Pd854lue03HaJ5r06zrKPGoIH1GDCRMECkz6C9KE1iE99Co1Z3TBL6Sjieqhk377W4NnDn+egO4loKuvHWJdrlDw26lZ82c0RxkIfgCAHD7NQJSM66X//l146Yc4oYObeJbl27L7+Je+d9Qn9f3L8pnO1GR9kh3OvLF1OouaaBFcr9lTAPxO+4rShNYhPPSRa452tLzgF9LJFb12KK9ZggWAra7tb1Vdn1vJEoLfTk3Lk2EWkTP8XmLtGUB7CAAA0FIqCv6f/uJ9ay3urKOvDk0mqwBThQ5u4ikE9Y7fuvVVn9pXh2gEYB6R/PSXOdYKaA8BSvLSyjo24QAwU1QR/FZ3/64dy1/45vIsdffnxEy3jtt07awrJKCPxwo+rHX6w0e252p5REvzkG1gx5ZTw0lVPbT5k59VdxjEh4kjTO3vY5jntxPaQ4AyKLW/aduyelmeOXq26bwAAAwYWfB/sHHD6ui7i3J5DHrHpLy+nUTMGSSQ+fB91XfX+ajVcNKq4DHLvvSi0SW2fGsbBqhl5qx6UkPw10PhpJ77nmVSD0D80B4CFKJEfqr2GeFvNeeuXFeP8uWTF5rOCEBtjCz4VZ++zCrcjsuu8UHwWzQv+CVNH3RKnV66KzpUr+qVWk4NwV8PFAIAJDQFAEWsrF9NX5NH9q81nRcYi93H31PP8Y7nf950RgBqY2TBf9+zr5cR/PaiXD0sq++e0Op0FnN/R6blrengy3Fe5MTPXTV5XXYVpdkKpNscpayso6YS7g5ipuua2yb0dpkX6P2AV2pzWN+3zFXZdaeF1BD8NUEhAEBCUwBQgmeOnkXtR8C5K9c3bVtWAY/9EA0jC/7bnzhYRvCraGZK4qJcrk7rbXrWTPK4Sh7EL7EoV0GarSB8m+XLSl5lyt3ULiimk0v0wdcAe0a9b91pZ0P4OqB/Awh7pQ5sBEomkHIPOrgJhQAAfWgKACwe2/nsb3zl2zf91fO/9fV/PHb2ctPZgTq54/mf44gBYmIswf/ZbxxQav/SRu8DWIHgF8ZvPesbLdiLbC24Us2NvyradTsE0mwFvtscqay8gj+4DJWcjmMaYc/D96vrwdk1jPALqSH4a4JCAICEpgDARKn9hb/+h4U/+NOF37x14Xf/+Jav70Pzx8TWA6dVi3fvi+80nRGAehhZ8N+/q2fS/5nHX00H9hVq464dywUm/cWC3zwq+H4ril8o+MNptgLxNkctq+qC301HmAsRnMSvp5ymOPYcfm9qWvw8KQT/aFAIAJDQFACYfOLBHT21P+Tjv/3p2557o+lMQW2srF994Icn8dsH0VDFad+Xv/+zMxc21PY93zniW4vbcdonmvTrqtI8ashAUZEKEwQKTPoL0mwF0m1WKavRBb+Qjiaqh0767W8Nnjn8eQK6l4CuvnSVdblCwW+nZs0Y0VxDIPhHoNBL//278NIPED+0hwA6H/3aywu/dnMm+Ddt2sQLAgAzS5Vl+bbsPv6l7x31SX3/snymazlZrWWHM990nc6iJuEER3T2FAC/076iNFuBcJsjl5V2tLzgF9LJFb12KC9LwQLAVtf215muz5FiCcFvp6blyTCLyBl+L7H2DKCDm/gL4ae/eN9anjN799Wh6ecTACYK7SGAzr945Ac9Y/4hX1j88807jzadKQAAmZEFf9Lv69+69VWf2leH6PHPC5Kf/jLHWgEd3KRcC3DXjuUvfHN5Mi1ALTY4rTPkgeipo066ZnMVEtA/rwsOWnNoDwEynjl6duHrP/3If/rv6SD/5z5/9+f+7vieN883nS8AAJkqgj9px/ieMXLbqkH8NiFM7e9jmOe3Ezq4icfGx3r33XU6PDY+FQjoovKSaRIxAcahcsWur4rmn2SHM7IEdzA5tIcAOg/tO/X//GTtlqePqPfipidf2338vaZzBADgpaLgT4YzeO97lhm8ECd0cBOPF48yC3M6XjyqgeCHKGle8EsmWCGPq/G1h+kdEQhxh6bfs3az+/h7n/rusUf2rzWdEYBxqS74AeKGyp9IhXDfs6+XEfz2Oh0BV5HdoQ+KTH5kXik0fxymCxDH2YNtlSwnYlGQJkC9jFuxraPye5QuU2s7JbFfkAK97x6Prz1sXIkRCFMITb9n7WbPm+dVGbL+AkQAgh9AhsqfSIVw+xMHywh+Fc1Mybv0g7TGRGDFjSI3k91O5ouxYNmOgjQB6qWuih18j7RN7YJiOvlnrcHXAOM7lz3EH197OLyjEwRClCG+d3b6XL52Y9O2ZVWMK+tXm84LwFgg+AFkqPxJkeD/7DcOKLV/aeN6Ul3wGysoDDyIGfv0xRX1YUvP+hHZEKeYiEUgTYB6qaViV1tUVU7HsWMx1kK1h/jjaw8R/IS4Q3zvbCPc/cLbqhi3HjjddEYAxgLBDyBD5U+kQrh/V8+k/zOPv5oO7CvUxl07lqub9GvLKHoFv+BOzNJFpnopI/jDaQLUSy0Vu7rgd9MRJq4EJvHH1x4i+Alxh/je2Uborciw9eADPzzZdEYAxgLBDyBD5U88Tvu+/P2fnbmwobbv+c4R3/KcjtM+TXPkA4nakGJ+XLJ8zlSMYfmvCxtLqZcw6S9IE6Be6qrYowt+IR3t88PQSb/9rWE+5vA3rsoIhAmF+N7ZRrh87Qb2/BAB43rpv38XXvohTvixTDzL8m3ZffxL3zvqk/reZfky0+VORxcqnc6i7SlvGFPzbZa5O1PRTW9ntm8zbdqy4yDNpChNgHqpo2JrR8sLfiGdXNFrh4x3cD689DeuygiECYX43lkAqExFwf/TX7xvrcWddfTVoclkFWCq8GOZeApBveO3bn3Vp/bVodKNACPqAA0h+ekPHIuvPYxV8H9s26ESnttPvL2+0nhWCRMN8b2zAFCZKoLf6u7ftWP5C99crtTdL6QWPYComAXqeAq51esYCQymiduDwW66/FgmE//kN813U1vSjEF8AHFqf5987oFGfO1hlIK/jNpv543/oLPwxaXVomirOxbLRJuPEN87CwCVGVnwf7Bxw+rou4tyyQa9VQjogfJSYRIxYVQqP8r6Hko+ajWctCp4zMrhxzIpMannvmfHmdTDGwfQDuJrD9upe0tpvDkT/OW+BcxfiO+dbZaXVtaPnb3cdC4AKjKy4Fd9+jKrcDsuu6qB4I+G5gW/ZMEacEodYQe3AhQCACQxNgXt1L3FGu8/7D9jBXdnC28cwT9yiO+dbZCv/mhVFeZD+041nRGAiows+O979vUygn+ERbm6Q6dFmRjL3Bhp3rZye9yBsyLTMte20ZYTsShIE8Zn3EdpHZVrTrrs+tAbll2LFvxj+IbInwOv1BWgEAAgibEpmCvBf98/vxsU/Lpmzra72o9o/1DPYD7l4e4wZqfzxeGfVgicPtxjpGCmJl0rzaHWhfhBf7/15/BGPJdbWnp42FvoyvmMJcT3zjbIyycvqMLcvPNo0xkBqMjIgv/2Jw6WEfwqmpmSd60gaVGiwHpaRX6Ju53hYkdFi3IVpAnjU9ejDNYcbVO7oJhO/iFn8DXA+LIT/7rTFaAQACCJsSmYK8FfNMIvCf7uw30JLcXpPtxXyz/o5LLZCt1+l65rnq4r/zQpPQVr272WNYyf7RG/VngvN7gpdXfppwT7NuMJ8b2zzXLL00dUeWLVDy1lLMH/2W8cUGr/0sb1pLrgz0XgQG8ZA62GbBt+q3XO1RccygZ8xUQsAmnC+NTyKKutOy2n41huGKtT20P8/FgmFAIA9ImvKYhV8Feawy9p5v4IeS7atQFzYTjdCr3I5rC/uaf/e+y5buG1ug8PD/gFf/nLWbcZUYjvnW2WLXt7RfroK+82nRGAKows+O/f1TPp/8zjr6YD+wq1cdeO5eom/bnc8gt+wbmapRJNLVdG8IfThPGp5VFWF/xuOsJUjcAkfn4sEwoBAPrE1xTEKvjL7Cxn0t8Lq0tfHNi6uxp+soLfc638UHdpsQ7Bb91m00+w3soQ2TvbLC+fvKA0//7Vi01nBKAKVZz2ffn7PztzYUNt3/OdI761uB2nfZoCy4dVtQHW/LhkB55pOsPyX5d5llIvYdJfkCaMT12PcnTBL6SjfX4YOum3vzUwh9+BQgCAJMamYK4E/5nLK8Fo3X4PrL/dGz83ZLwSwx4D/oC3vEKTfntmvrPtuZbK3uKO1cQy1C806Q9fTr/N5h9ijZUhsncWACpTZVm+LbuPf+l7R31S37ssX2bI3enosq3TWczNrs2Ymqe3zPmbim76frM9vWmTuO1ELIrShPGp41FqR8sLfiGdXNFrh4xah5d+BwoBAJIYm4IoBf+vPHZIFH6Fe3I7+c7DubQeMBwq1y3twyb9vZC703Oc9vlEvpaa91qZn+eHO4umGz+v077g5dzbjCXE984CQGVGFvyKn/7i/Vu3vupT++qQilDu6oyowxSR/PQHjvFjmUiFoO85ePpSNiNUbWdHP/rYoY8/sTzXpZcbsOjQ4kVD9oGwrzVs95+9p6wtMbIw/O65asVx/vSmll3K/KqtRdU/ceqfUuXUjNzpX1adrA6Irz2MUvAn5abxN55JwhRCfO8sAFSmiuBP+pr/8986LI7tl1b7yXS7v1bvi0H8eUSY2t8nn3ugwY9l4hSC2l7ceyLbozbOXen57EyVfxbt2o0Pz1+5PgelN2oLhuCPBl3wLy4a7YpPzFun+wS/JzW98VpdWuomhuA3PzB1O4V5c3NlT62K3uIJ6Vtf+IHZv4ptqLylIb53FgAqU1HwJ33b/qd+vHrfs6/f/sRBFe7f9br6U7DkD0H3F2YXfiwTpxBW1q+mO61o50x5v3Hjw/koOgT/3GII/qVuwE3syIJfTk1IJstD4EumL29hwS8kGV97iOAnxB3ie2dngd3H37tzz1t73jzfdEYARqO64AeIGyp/4ikEcc8j+9ey7Zu3H9564LSdVua9IXfoMBQkQ6ubzCo5O6ytoaB5Z/CZadjmO7mVsz4SauwRHDr4/UQudbTsaUZD8voPtjsJvz8RaB2m4F+1LO/HE/xyaqJD06F7EtlmLZxaUPA7icbXHiL4CXGH+N7ZWeDRV95Vpbpl74mmMwIwGgh+ABkqf1JC8Kdj+w/uO+XGMXeKC2f0NbOzmcfVVNXi4mLm9TEomoV1IIa4e7TJHN5lI5zJ1flJgRF748SCFUOgfdiC36+lqwh+T2qDT0f2SqLaK5F/XCpITZ/jJlZmBD+B0O4Q3zs7Cxw7e1mV6i1PH2k6IwCjgeAHkKHyJ0WCP52677NtM05cLbQrlraHZym9P7RM9uv9XMI4c56zPAT3DPWTf4Q/tNPNjXELzj1Cq3EFf7avFsHvS22g6Y3vYXbFLpNamRF+I0J87SGCnxB3iO+dnRE+9d1jqmBfPnmh6YwAjACCH0CGyp8UCf7MOX+KPpPfcuNXUfAPTuvp/dXUlN+n93PNM4yB4IcJIgn+QX0qI/jNepzXw8LU9OhiHhJP/bRSYw4/gp8QeYjvnZ0RvvqjVVWwj77ybtMZARgBBD+ADJU/cQrhwX2n9HX4nKWektSHfxZBS8ln0h8W/H1hpBnzdzodWTELhvwVTPodF2j5vOmqgh+T/jjxiO2BSX2h4Ddm5Gu10J9ad0mX7kMvEronikyfe+qnkbew4O+665bE1x6GF64jEOIITb9nEbJ2cePY2ctN5wJgNBD8ADJU/qRSIaysX31y+YxwoJt5vFsKDpub27pIlxe3T7Jj/dQ7nUVDtzgO+XxO+7SUs1idTjirg4hhp33CjUPb8Y2uu591fF+FNHeRfhsQ2+GFUXdzwZ+Yx7WaVyI11wmllOH42sP47ghAhxoOABmlBD+BMLdhOu/hzDKRQvA6FQeAGSW+9jC+OwLQoYYDQAaCn0AIhem8hzPLJAqh6ywvVi0NjcY/H8xafgBqJr72ML47AtChhgNARoHgB4B5pr4eg2bAjB4GaBvxiYf47ghAhxo+aQ6evnTuyvWmcwFQCgQ/AHihxwAASYxNQXx3BKBDDZ8o9774jireZ46ebTojAKVA8AOAF3oMAJDE2BTEd0cAOtTwibJ9+Ywq3rtfeLvpjACUAsEPAF7oMQBAEmNTEN8dAehQwyfK2sUNVbybti1fvnaj6bwAFIPgBwAv9BgAIImxKXDvSN9z8PSlzHWr2s6OfvSxQx9/Ytk4se+y0/JDmvosid1bib44pXW3gyUhLXemzvKn4gKW3tSyS2m+YMzFKXVfMfraqXJqRu76UdzlKt1b9uctEVbHLCqBQN58hWPly7fwZ4Tv7Kxxx/M/VyX80sp60xkBKAbBDwBe6DEAQBJjU2Ddkdpe3Hsi26M2UndcqfLPol278eH5K9cR/H10wb+4aKy26tOr1uleTSunpi/purq01E0Mwd87mifY7RTmLSyeXTVedKfGCjRmbvwlUC5vCP5ZZOuB03e/8PbLJy80nRGAYhD8AOCFHgMAJDE2BdYdraxfTXda0c6Z8n7jxodlymEOBf9Sd2lRl9vjCX45NSGZLA/6xwDnKnLeisSzkGQgNSe2scNfAqXyhuAHgLFA8AOAF3oMAJDE2BSIdyTueWT/WrZ98/bDWw+cNmJoI/y6RfncCf5Va7B7PMEvp2aMoRt58On9gtTC4tlN1J+akIFVTcqHSqBE3hD8ADAWCH4A8FLbNNfypFMe5Q7MLGEZbA7w9r0gLuZu9nJ84qFQ8Kdj+w/uO+XGMXZmgj8tQq00503wl9Cr1ulhTSumNqjow7LVBP8wyvBVKExNr/PWjeTXEgW/sKGre+H0cAmUL0AEPwBUAcEPAF5qm+Zall4PbJZ6yaMKeAT/nDB3s5fjEw9hwZ+2aXvePO87N/9jKPh1kT+PJv2r+r5aBL8vtUH5dvS3wNbmZVIrM8Lvj2ClNsYIf4m8IfgBYCwQ/ADgZaLTXCVmTTAj+EGkO2+zl+MTD2HBn1ktpehNnPV9E8HvjsB3umXeAlNO51WuMDU9upiHxFPVrdRGfguCqVWdw+9NrbBwAin3iO+dnU12H3/v3hffOXb2ctMZAQiB4AcAL7VNc3Xtke0RxazD7LXod1JIdDtmfazT2KOZOkvWlWbnb6mjZUAz+BR67loiuQnpEoJ/PrBlhjlUN+7YppRat9nZy/GJB+uOHtx3Sp+glG1n0VLjJn0G04Ch4E+bgWy0d14Ff3b3hW+BUac14y5/at0lXR4PW2m9pXcFdiBvxXYuzhMM3qlxhvXClmgHzNRKFY435R7xvbOzyZZ+y/DoK+82nRGAEAh+APBS2zTXHLEfFtAhgRTcafTuHq2nlB/0XVqbyOkdThFvRB/WQ/DPA67UKbTFtU4Pj0Z6xyebmr0cn3iocEcr61efXD5j7x0K/sQs1vkV/EJL6GtItc+xXhsZPTX3I2zX8GShHfd8gPOk5n7k9X52Dt6p9ytxmXbASs1XOIE8G8nF987OJruPv6fK+Y7nf950RgBCIPgBwEtt01wTvVtSVfBbKbgDm0V7hn3DwkuXyc/w0GrAnBtiRZI63ZhnL8cnHuK7IwAdavh0uHztxqZty5lLI4DZBMEPAF5qm+aaa5JMSIwosN0UEPzQGOLYZsyzl+MTD/HdEYAONXxq3P3C26qonzl6tumMAHhB8AOAlzqnudpm+JqkyGcr+gWzJ4URTfodJ2fypUcR/Jj0zyMesR3v7OX4xEN8dwSgQw2fGvtXL6rQdC4AQiD4AcBLbdNc88nFnc6iLnTSyY6dEgJbSkGz8tcmNpt78omQ0kxL+dL59iBi2GnfMDWc9s0Nczd7OT7xEN8dAehQwwEgA8EPAF7oMQBAEmNTEN8dAehQwwEgA8EPAF6a6zHMmrvrWcsPwFSJTzzEd0cAOtRwAMhA8AOAF3oMAJDE2BTEd0cAOtTw6bN2caPpLADIIPgBwAs9BgBIYmwKLJ+jBEKUoen3bI5IffW/fPJC0xkBEEDwA4AXegwAkMTYFMR3RwA61PAp81B/GaOv/gi3vTCLIPgBwAs9BgBIYmwK4rsjAB1q+JR5+eQFVeCf+u6xpjMCIIDgBwAv9BgAIImxKYjvjgB0qOHT56YnX1NlvrJ+temMANgg+AHAS+PzDwkEwuyEphukOonvjgB0qOHTZ8veE7c998bB05eazgiADYIfALw0LjAIBMLshKYbpDqJ744AdKjhAJCB4AcAgALoO0JkUKUhbqjhAJCB4AcAAID5AjkEcUMNB4AMBD8AAADMF8ih9tDtLCwujb7Y2erS4kKnm6eR/5H+2SNP19zjuWQ/kpaMHXGYiJ6OhR1bTs26vm+/P6fUcADQQPADAADAfOHKoY9tW1Z7bn7qsB7hI48dyiJ8YvthtUdFM1OqKEehNJVKWMn9wUk94b/Q6XQM9Z9u60La2pOfb+VkcdH6cjCM1tPv2Sm9i5rafqTUEPwtZs+b57fsPXH52o2mMwKQg+AHAACA+cKSQ6na190TBv40dRSCf9JUKWFHr3dzwa9tDqK5e8xoRk66etL6BwIzum1gIAt+T2oI/hZz23NvqJJXsr/pjADkIPgBAABgvrDkkCXs043skBs/IzfZ7iwZkm8gxIaizjLnXh3sWXA0ZWRIZaIZug+O9Q50OovDv63SkcswmIg7Pp/L91VLYne67h4nnnED5rB+f9PR++b5fsEvpobgbzOP7F9TJb9l74mmMwKQg+AHAIAC6DtCZLiC39pW/27+9usqhAW/bdRtjyL3ZWk+BuzItm4ncvMAeWQ925FPdR+Wg2UMnxhlaE3F9ybijs6PLvjlRKwnqAl++0Hq3wBCgj+44YvpHrKh0W6KY2cvq5K/5ekjTWcEIAfBDwAABdB3hMgQR/gtG/7sUBbhJ2sfqPDKu5e0lHTFpU0Fz+3CHS2ZD2DPwxi/Wyb66LyjY4WhcquE9TnzPkd7tQh+0UzA+qRQwwi/kBqCv+Vs3nlUFf7+1YtNZwRgAIIfAAAKoO8IkVHGpD8Nv/r4oaT0HP5U5GlSTz86FIWCOIwZu0zy28/2jS74w4kEBX/ZOfyhEf4so2PP4fempsXPk0Lwt4M9b57fffw9/PbB7IDgBwCAAug7QmT4TPr//q11S/Af+eUV9ef1D/M9Fzb0frypuHpKrdMxhnYXHKFr+HOPn0GZOObt4hwH2aTfEfzFiXjn8Av6WVTU/jn8+X3pXgWM6QbWIy4U/HZq1vwE3U8Bgh8ARgXBDwAABdB3hMiosUoPTMs1PWv5qet7kjON93Wr/vgH+9OF8Zybz7+MuBbsjtM+2za+IJGQl37tCsaDcveIXvq1VPuZMHW9/FRLCH47Na2KGPMNciwHiAvmVyQabQDIQPADAADAfDE5OeQoyzkay58hhPH5qZ7fOAh+AMhA8AMAAMB8MSk5ZOtEBH9jjOMqQVgNoG0g+GeBc1euN50FgB4IfgAAAJgvJiCHUhvsslOsASYKgr9x7tzzlnoEaxc3ms4IAIIfAAAA5gzkEMQNNbxx7nj+5+oRPHP0bNMZAUDwAwAAwJyBHIK4oYY3ztYDp9UjuPuFt5vOCACCHwAAiqDvCJFBlYa4oYY3zsr6VfUINm1bvnztRnFsgEmC4AcAgALoO0JkUKUhbqjhs8Cnvnts886jx85ebjojMO8g+AEAoAD6jhAZVGmIG2r4LICXfpgREPwAAFAAfUeIDKo0xA01HAAyEPwAAFAAfUeIDKo0xA01HAAyEPwAAAAwX7hySN9z8PSl9E8V1HZ29KOPHfr4E8uT1VGrS4sLi0ur1t5uR9jZLCpLne5gY2GwmR/q5bZ/wEC7B+uOsj+9qWWX6pNdWovaKzrrSoHUjNz1oxh7pOIO5s1MQLiGUAKBvPkKx8qXt2Ig+AEgA8EPAAAA84Ulh9T24t4T2R61kU6+TZV/Fu3ajQ/PX7nehI6accG/uLioS1efXrVO92paObWenh/uXl1a6iaG4Dc/lHQ7hXkLi2dXjRfdae+M7HTrs423BMrlDcHfblQzsvXA6aZzAXMNgh8AAADmC0sOraxfTXda0c6Z8n7jxocNiahZF/xL3aVFXW6PJ/jl1IRksjzoHwOcq8h5KxLPQpKB1JzYxg5/CZTKG4K/xVy+duOmJ19Tz2Lt4kbTeYH5BcEPAAAA84Uoh8Q9j+xfy7Zv3n7YGamzhoVz+aebnjs7ejE7nUV3ENlIcHjW4tLSrAv+VWuwezzBL6dmjKEbefDp/YLUwuLZTdSfmpCBVU3Kh0qgRN4Q/O3m3hffUc9i+/KZpjMC8wuCHwAAQjy289nf+Mq3b/qr53/r6//IesIQB4WCPx3bf3DfKTeOuVMS/ObUcsvwexjDp+ANfZuPX8+84C+hV63Tw5pWTG3wCWRYuprgdz+SFKSmz6+3biS/lij4hQ1d3Qunh0ugfAEi+FvJM0fPqmdx5563ms4IzC8IfgAA8KLU/sJf/8PCH/zpwm/euvC7f3zL1/eh+SECwoI/nbq/583zvnO1vyTBbwl03ZncQF0GTPRFDTnzJv2r+r5aBL8vtUF5Dt3siSP8ZVIrM8Lvj2ClNsYIf4m8IfjbTfr1cNO25dQzCMD0QfADAICXTzy4o6f2h3z8tz9923NvNJ0pgHEJC/7MOX+KPpPfcuPnMenvkcr8no7zzQaPT/APbrWM4DfldF5Ehanp0cU8JB6FbKVWdQ6/nFrVOfze1AoLJ5ByDwT/TPHVH61uXz6D4IemQPADAICXj37t5YVfuzkT/Js2baITCRFgyaEH953S1+HLtrNoqQ9/faG+IZqwc+z0h7pNnHxeJPjbZ9LfZ2DOUCj4jULJbzWQWndJl8fW3Il81N9IJJC3sHjWciRHcO7UOMN64iVsHMzUShWON+UeCH4AyEDwAwCAl3/96Es9Y/4hX1j88807jzadKYBxqSCHVtavPim63comg3c6+Rx+02efYdVf0qRfS7kVTvsynM8TvpvVCsVvy6Clps26zwWwuaqdnV651Bbsx+b5vFJ0p24GQyUQTs1XOIE8G8kh+AEgA8EPAABe9r519te/9lI6yP+5z9/9ub877pvYDNAikEMQN9RwAMhA8AMAQIiXVtZvefqI6jve9ORru4+/13R2AGpgZuSQMUIrrdIHUIWZqeEA0DwIfgBoH9YMWwIh+tD0OxcblCrEDTV81jh35fq9L77zqe8eazojMI8g+AGgfTSuvgiEKYem37nYoFQhbqjhM0hqK8fStjB9EPwA0D6GXZkTBEL04f9n721jpMjSO9+a7fFd5qqtZYTGQqu5V0jXlri2LLXl/oBttYQ1VzIj9Uhcja+G7g+3kO5KRnM/wAd/QG1ZaD/MsqscGcYg6GaawbjRggarSoNmwGjFgrSoy2KyKQooqoa3gimUhQoXUEM1BQVF7cmMzIjzGhGZkZnx9vsp1B154sSJUxGHE/E/5znPw4d7L+CuQrGhhWeQrY1gH7tGZtKuCJQOBD8A5A8EP1t5Nj7cewF3FYoNLTyDnJmaFw9lw4mbaVcESgeCHwDyB4KfrTwbH+69gLsKxYYWnkEWXy2v2je2+sDVJy9ep10XKBcIfgDIHwh+tvJsfLj3Au4qFBtaeDZhAT+kAoIfAPIHgp+tPBsf7r2AuwrFhhYOAD4IfgDIHwj+jrev7bsSwyH8/bvzU6lXlc3b+HDvBdxVKDa0cADwQfADQP5A8He2xVH73NusbXy49wLzrsopo7PP/X8LYt8/+tbeK2/vH8v046gNDQ4MDtW01GrFklgqxB2oVJs7A83d4FD95jQOKEi3TLuB/k9naf6lGviXlrLWn5R2pZDSlNo1sigp5tOl3wAAHwQ/AOQPRGkS6Yjgz9fGh3sv0O6q2B9sRMzyf3petTzl72d7tfzm6YvXGXgc7Qp4BL8s+AcHB2VZ7RLz2ukuwe8ora7nW8m1oaHqiiL41XGZaiWybmat5BRzpADBn2mm5l+emZpPuxZQIhD8AJA/EKUdS8f/MPJI28xE7m2mNj7ce4F2V8X3t5eoZXuiyvul5TfZeBYI/nZRBP9QdWhQltvJBL+9NEsxfh3kwQDjKva6hQt+S5H0G5lF9Dbi0aw+cDXtikCJQPADQP5A8HcsHa2C/4P/8TBU8P+8MvDdoZq2X/UNUivVxqHaJ62Ej6qtnJXKdxs/jcxs7Tw1Pty7jvWuWlN2jcz4+2sOXttzeVbLoxtu16lJDd6RIll0t/Joc7aS0huqSJbbki23RTVKhbQu0TgfwS8J/ppmeZ9M8NtLqz8mtaBWHVx6P6K0UMFvFEq/kWXWH50QT+f89LO0KwJlAcEPAPkDwd+xdOxoht8m+KsfDVR+bs9T/WiwbsD688b3btVLUTOztffU+HDvOpGC35vb337hgZnHTGzgCzBzGb2ZUleDkvI3RZ1tlXhwUsiMvXJiMKGM4NdvnUtLdyL4HaU1R1ykAZ2W4DfHZCJKk1fsW9sAgj9P7LxYE09nh70nAeg+CH4AyB8I/iTSsf01/DbB35jPb+r5FXl63/si/blylpaZrf2nlva/uaIRLvi9pfvDt5+6zlV+B1rMWLztEZXSEoLuGf6wRA1pDbnTar2EmILfT+uK4HeV1tT0redrneGPU1qcGX4lA/1Gljk//Uw8nXWHx9OuCJQFBD8A5A8Ef8fSMU5iPJP++lYb+m7TSr8u6T1LfutZaua070O+Nj7ce0G44Ped83vIK/k1N36SeGspLgR/FrEJ/uZjiCP4VTkdPL7I0uTs1jqsOB6rVhpr+IvGpuE7uy89XHy1nHZFoBQg+AEgfyD4O5aO1sRHi1Oh2aqNb8nGfvWjAUPG6wb8zU0X/FLm9G9FjjY+3HuBdle3X3jgm7fIMfn8bJ4Pfz9DUJDFkL8Dk37Dl1uwALxTwY9Jv4JDbDdN6iMFv7IiX3p47tKqQ7J0bzlfkB04+Prc8ViVuoULfqlGLeg3AMAHwQ8A+QPB39n2b/ZeserJyJSGzvds9T8K1vArLvpUq37NpN/MzBZ748O9F3RwV6fmXx4Ye2Qk+6uwK5VBRYAZDvlcTvskIefnqlRCZ/hbGcOd9lV9V3847XPNrpujIa7BFMnLott0QirN9K0YCP4V9bjDfaCjNNN3o63C9BsA4IPgB4D8geBPqB7bWcDPlvLGh3sv4K5CsaGFA4APgh8A8ge6lK08Gx/uvaAod1WZ+LXO+EM5KUoLLzJ7D3/2O3/9k9V/c/L3f/jPE3OLaVcHigyCHwDyB4KfrTwbH+69gLsKxYYWnnGE2h/4218M/NFfDPzuuwN/+Odrf3gBzQ+9A8EPAPkDwc9Wno0P917AXYViQwvPOF/f/kld7bd4+w/+ZMOJm2lXCgoLgh8A8geCn608Gx/uvYC7CsWGFp5x3vrB+YHfXuML/lWrVvG8oHcg+AEgfyD42cqz8eHeC7irUGxo4Rnnm7vP1I35W3xn8K/WHR5Pu1JQWBD8AJA/EPxs5dn4cO8F3FUoNrTwjHP2ztw3fnDGm+T/rXf+r2/9dHL49tO0KwWFBcEPAPkjTmw5NrYibWn/m8s3vjfsb/6n0//3qbsryCEoOrTw7HNman7toeviMf27A1ePTz5OuzpQZBD8AJA/+JSB8kBrT4jmDXvgP/63E5OPuatQbPLSwlMfS2VjK8YW8Q+tP/+eAQC6SJzeDaAY0NoTonnD/rf/55+8+19/xV2FYpOXFp66TGJjK8YW8Q+tP/+eAQC6SJzeDaAY0NrbZfHV8tT8S/+n1Ru2eVfllNHZ534ese8ffWvvlbf3j7XzOKqVgcGhWsI/qCuFxKA2NGi5UL+u3lvEX1GpNncGmrvBofof2DigIP3Z2k3wfzpL8y/VwL+0lLV+t7UrhZSm1K6RRUkxn1Be+o1WPdP3lsLGltMNwQ8AxSQvnzIAyaG1x2ektrD17P3VB65uOX3PT7R6w9buqtgfPHvfTxE7T168Xmkpfz/bq+U3T1+87pLgjy+k05XcxRP8g4ODsqx2iXntdJfgd5RW1/Ot5NrQUHVFEfzq2Eq1Elk3s1ZyijlSkJt+A8HPxpZwQ/ADQDHJy6cMQHJo7XGYmn/py3ixbTx5yz8ke8P+1vubPW/Y2l31LALM+/xElfdLy2/afBYI/oygCP6h6tCgLLeTCX57aZZi/DrIgwHGVex1Cxf8liLz0m8g+NnYEm4IfgAoJnn5lAFIDq09JmsPXReaf+fFmmzP7+F7w17d8oZtvavWlF0jM/7+moPX9lyeVbPUdVelMticYA3stCV5GZhr+0cke+xAA8q/g5TBoSGH5NbmeL19oyBblYIKuwqMvnq+UAV/TbO8Tyb47aXVH7FaUKsOLr0fUVqo4DcKzUu/geBnY0u4IfgBoJjk5VMGIDm0dhMh2recvqcJ+4m5xfglRAp+b25/+4UHZh41UdZ1ilJzzPNaJZz1RHkoILbgV9eJu0p2KHhFrEZdPV/ogt+tpTsR/I7SmqMmrQciCX5zXCWiNHnFvj6W5JeE4GdjK+GG4AeAYtI1h1uNjyjt4877ArPOv+Qbu0eu0Oz+XQi+//2flq/UVOoZA6vocrvaWlG+ri0usywOvUJcbYXrhJBKNsnLh3sfEP+ct52b9ubq5bn3DggX/F4fMnz7qetc6ZdlVlydyTdduBltwDyxFmJzbru0snRcyh1eJVeBsa6eL0zB76d1RfC7Sms+gpabPesMf5zS4szwKxny0m8g+NvavrbvSgxv7ffvzk+lXlW2vm0IfgAoJl1zuFUqwR+BsSK0+cv7XK1UFPWvfTrr35oZw/6t7HTcpcyAasMPTjEQz9UWgj8Ruy899O7G+qMTB8cezSwsdVxUuOD3xwo95JX8Wq9i6Hat55B1uD9lbhX86okdC36/PK8TC6mShZIJ/ubdiSP41S4uuKuRpcnZrXVYcXQLWmlRPQZr+EuwxVH7mbuftU8GB747VEu7GoXeEPwAUEx66nALwb9iUfCSoXBVcTXdzKYbEmcKx7ey3TmW8eGsmzo4Zv9iudpC8LfB4qtlWXULhMLfdm66LdN9F9pd3X7hgWwWZHw9r3hDirLdUAtNdZvLtlXT/mAEKfLESKN6qWkaBbT+bbqrZKFUJv0NmhYQkYJfuY+SwZO7tOqQMWgY9JLBrL9SSEjdwnsMzQSrTl76jcwJ1AxvMdW+cT9/Xum35O7/FUu9IfgBoJhErr/1UyIcbkkz/BbT16KhflYOyWb5VdWFmDljr3yqKsJWm7a0XC780iuGVzGLqbPkOcxaQrs+z6pO51iWGVH5bwsz97WUhuDviPPTz7zoemsPXReyvxeX6OCuTs2/PDD2yEi2ijTTft5vjpWKNEoWNFj9xOAfZZjbPP8fbt0GR/unrP9DaMOkP+bV84Rrdt0c0XDdH+k+us0fpNK0TlWuQ+uXXl680sxO21bhvPQbCP62dN1/GHmkbWYigr9sG4IfAIpJpOCP63DLF/zet1NLbpZA8MuiwvwONufrowS//RSr4DcurZ8aPs0YVflYPs9M4W01Zl5p/cWyeYNT8IfuuHJab5dCXj7cu8X6oxP+PNU7xyaT2O2HULa7CmUjLy0cwd+WrrMK/g/+x8MQwS8NPP3ck+KVyncHBj6qrtyXhgd/3sjcEOpDH7WGkaqNxKo0ml4v0DhLy/Nz84pN8V8371eKinlFtsiGgeAHgAISLvh9h1tyXG7NQLdJS/DLIr+4Jv1WtelKbFfwW40CIq/iT6rLYteqvaNLCIj2eabOZMrTnglm+C2lIfjbZ+vZ+2sPXd9x4UFXTPdd5PCuKnO83eiiul4gZIi8tHAEf1u6LvEM/88rga42MzS0uifjqx95gwL1nUDYW8+qNhatVN1XDApvCvhgYX9bV2RzNgwEPwAUkJgOtzSFj+DviuCXdyUpHH+G3y6epdvemeBvy+eZnKI5x+p0Db+zNM3e225XXE7Bf2Zqfsvpe0fG5+TEHk3paxT4rgKs5KeFI/jb1XXJ1vCrxvbVj1rjfb78NnI2puUVPa+dVc/QEOrhV1SzNb4YYl+RLUbDiPiH1p9/zwAAXUTr3SIdbpk7TVqC31Ob8mRxuQV/2Bp+u2oNt4SvVmyupywLVlvW+OEm/faVAur1Y5r0+zUdUBbSqgEJLdYH9htrKU0+Xyq41IJfSPqdF2t+dL0NJ272vw7Fu6sAMnlp4Qj+tnRdnMS4gj9Q4NWhQbfgbxRSG/pu08DePKvrgl+7Ytq3Pfsbgh8AiknMT5n4gr+1W2zz1ohp9qrkQizMS3+QVUoyJ/ilbIFHMeulpRWBlkDZzaV9Q+GVb9PnmWWsQdf19pYQQ/Drpbl8fQUYLriU4vLy4R4ff1Ru/dGJ3Zce9mdKX6N4dxVAJi8tHMHflq6zJj5anArN5hDV1Y8GBj+prWgG9g5bgIYCr8+6W87qzKTfE/8xrpj2bc/+huAHgGLSluAPM+kHF5YZ+67l7rA+hRyEiUEBGu2ZqXktZdfIzEhtIZXKeBTgrgKEkJcWjuCPv/2bvVesYi8ypTWar7rQ833jDX5UCZnhDwz4/Yl97az7zaX4zSFy9xUDp31Wke+6IlvEhuAHgGLSruCXp/dz8Q2UBeJLbMUEvjeYJvvlIb+N1o+uN6DHrk+f/N5VgDjkpYUj+DuQdu0s4Gcr/obgB4Biwgx/OTDN9MtIThvt5lN3/X9x649OpDufbxLnu5mNLe9b2v/OomnVM33VxMaW0y3OP3YEPwDkj5ifMtawfCKxDzUE6BZ5+XDXODI+14foeh3TBTX1//7nge8fGvjrEwMf/Sx1XcfGZt3S/ncWTaue6asmNracbnH+sSP4ASB/5OVTBiA52W/tXnS9beem065I/9h7+LOBv/3FwB/9xcDvvjvwh38+8B//2/7R2bQrBZA/EPxsbAk3BD8AFJPsSyCAbpHZ1v7kxWs5ut6qfWOLr5bTrlSf+Pr2T+pqv8VX12/44//6q7QrBZA/EPxsbAk3BD8AFJPMSiCArpPZ1i7kveeQb93h8d2XHk7Nv0y7Rv3jrR+cH/jtNb7gX7VqVTafEUDGQfCzsSXcEPwAUExSXxjJxtbnLe1/c3WGbz+dWViSU45PPs6aN77+8M3dZ+rG/C2+M/hXOAcB6IBW/5a+amJjy+kW5yMBwQ8A+SM7Egig16Te2oWk33Zu2jPd33OZlep1zt6Z+8YPzniT/N96f/O3fjo5fPtp2pUCyB+pj6WysRVji/iH1p9/zwAAXSRO7wZQDNJt7bsvPfS/J9YfnTg++TitmqTL4qvlnRdrW8/e91POTM17gyCrD1wt7W0BSAhvc4CEIPgBoJjwiQDlId3WPjG3mOXoev1hpLaw/ujEQMMxYZnvA0DX4W0OkBAEPwAUEz4RoDz0rbWfn3629ex91qJr+DYOG07cRO0DdBfe5gAJQfADQDHhEwHKQx9au9C0Quf7pvvl9MPn4sj43Kp9Y+IWpV0RgALC2xwgIQh+ACgmfCJAeehDa980fGegEV1v58VaqaLrxYR7AtAjeJsDJATBDwDFhE8EKA9db+1mLD3x88zUfBcvkWvE3Vh8tZx2LQBKAW9zgIQg+AGgmGTmE6FaGRgcqq2s1IYGvR3r0TgkLyGXdPgH1u9Wper936P+Syq0Qb1kxwUaWeRztIytIpqlKAlKelRp2vVd6WG3olutfXT2+bZz06sPXBWlbRq+k7zA4uG54hf3R9yotOsCUAoy8zYHyCsIfgAoJmbv9rV9YyJlzcfX5Axf2XvFz/D1g9dEisjW1YqE69Xkch3Bb0PI/OZJ1Wq1ldIS3EaJQW7tuoODskiXzqvrd/8UbSTGWuGQ0rIi+M9PP5Oj6x0ce5SwwOIxMbfoueIXm5D9aVcHoBSY/ZucMjr73O+4xL5/9K29V97eP6ac2Bh31fpQb0hYGYyFEOwTD6HZ/Ztbv//qO1AdMe/mp0yb9YyB9Y1cqFkBBD8A5A+td/PUvr/5Gaw/uzqZgOBPSCd/oE3Bi3K8d2m1YtXj+hdf47pVuSC/Jso3zIqe4BT8jtKyIvgFG07c3HZuGj/zVhZfLa89dN0bDcFnIUDf0Po3sT949r6fInaevHi90lL+frZXy2+evniN4O8v6ksqeBM3bnOlUlFelK03cvBizfLHjP2NXKRZAQQ/AOQP8xNBFvbejn/IzK/QsgofHBqS+9lKZdD7TghGbf2u2nFKsyO2HJVtz10fH1ElFATNCL8lldXhcOOey08kQu83PjvU4ixnNO+2+gL3V2doj0g+3y34raWlIfiFXvVM99H2bXFkfG7nxRqr9wH6ida/eQ4yzR7viSrvl5bfxOkVEfxdRXlJGe9VaWRd2pUM8syR9+zgeCMXaFYAwQ8A+cMU/Np+3eX4T26ILUrwB1ZojS+DwDLLpimDo7ZTwo+23gZOU7TwEoqB+cdLkzKaQWDzqPlElK+G5viBYlUYfF1YTzFKVncsowPyyzxM8IfuuHKah3Tk1ivk6OZTd4U0teRrSFbfKF1sey7PWrMBAGQE69vZmrJrZMbfX3Pwmt6/SS8TaYA9ZJAdTNQ31JA8eC5ZrDcd6JivsOAzRxG2/geNY+Q96tIr9qkC5wSJtQSbz5+wyZWizQog+AEgf1hn+DUbfvFfObS4v/37Q9eDgvT3kq2fDV5zpiAMl4v214NjmDu0hGJgeU1a3/fGPdezGffP1/lVm1Gh/dNEGw3owrvcUlq33+XiG3fr2ftiE23blP3iqMi59tD1HRceML0fzkhtYdPwHebzAdIlUvB7c/vbLzww8yiJvuD3Xh8tXYjgbwdlkD2wm9Pt81ccw+ihgj9s5D3q0vqp0VMsYZVvrvwLn1zJ66yACwQ/AOSPOCb95qJ9yxr+SMEfdOOtrAj+jokp+M17Hin4ZaFtEfzh3xne9fyUTq31nKVJ+YOiOnmXC3UqdP7MwtJKw/D1//n51Dc+vibLfnFo+PZTSxGgsvvSw1UNxx845wNIl3DB7y3dF92adfjeuoZfFvmY9LeJVW26EtsV/KEj7+GX1hV5+PeSswTF6iPiWyuvswIuEPwAkD9cJv0/uzMf4rTPPNE9PGxYXQXW6OGnOMebJZN+6+dHeAnFwGrSb7wm7fdcVtT+06kaOtym2yMsCf1PAdm+wLZIwDwxRmnVirXgTt7ley7P7lCnuYTs/94v7m04cdNyGtiYmFsUt8u7pVvP3vf8gQFAWoQL/gHVOX/Y8D2Cvwt0R/DLu/ILO/YMv108S0+zM8GvXj2+4M/PrEAICH4AyB8x3ZjFEPzNrwSnB75gjVelIr+2Qk6xHJVHl10CPqqEglD1jfX1lXiqVlfvuf7Wb/6wukL0Ey1T/XI1lBtrmT+wr/+MIfj10qRaKp8XAa1xDi2liddoven9B89eatc2RwEghKn5l6v2ja09dP3M1HzadQEA/aW8/cIDX8zLMfmi3+Ytwe91uPKsLoI/NvEFf9gafrtqDbeED4bGnYJfKiNyisVaeXO+IY5Jv1/THMwKhIDgB4D80ZbgD5sTkHHOvUPGaC++T8ajAUXje+Azhb1s5A8xOT/9jIl9gIzQteH7luBf0UZPEfxtEDHN3ryxjRsa5qU/yBq1mtF/VPXwOu5LazMFERMkjiED2ao/WOHvmlzJ36yAfm9VEPwAkD/aFfyanb81szn820v4IElE/MEZZSA+n3iNdv3Rid2XHmqHmN6PAwMiAJmlJ8P30AeyNvJe4jkbBD8AFJPufSKYQ74A2cJrtFPzLzXn/EzvRyJuzqbhO+IuMaUPkE16MXwP/SFTI+/9nbPJFgh+ACgmMd/0Vr++IrEPNQToFnJrl2U/0/vhiFu0+sDVgUacQs/vFwBkDWb4IQHM2dRB8ANAMeFND+XBbO2e7Bdqlul9Fzsv1nDFD5B9GL4HSAiCHwCKCYIfygOtvQMm5haFGMAVP0DGoX8DSAiCHwCKCZ8IUB5o7QBQVOjfABKC4AeAYsInApQHWnscjozPjdQW0q4FALQH/RtAQhD8AFBM+ESA8kBrD8dzxe9FLlx8tZx2dQCgDcyV+WxsbB1sEf/Q+vPvGQCgi8Tp3QCKAa09hDNT854rfvFfP2AhAOQF+jeAhCD4AaCY9PIToVrxYrnWo72UNagr2Gm1jTbxgxXXAwU3CEppJXkp1gvwQRzChhM3xc0R/52YW0y7LgDQNvRvAAlB8ANAMTF7t6/tGxMpaz6+Jmf4yt4rfoavH7wmUkS2qLI7FHVQAjpqG0LueyfVhoaqWjlixwsd7Kf4uQNK/kEslPyukZktp+952n7nxZp2dPelh2nVDQASUvL+DSA5CH4AKCZa7+apfXkhU8jPqG4RwQ8uOmkbFgXvp/l6X84mJXqU54N4pLYwfPup2OTEI+Nz8j/ezafuplU9AOg65enfAHoEgh8AionWu2nC3tvxD5n5ZXwr65bKkmdfAwmm5qnbaCsJkHlaZvUNWs/W+vQrlcHWb+1BN06rNtN8GR9aiE3vtzS9cszX+cYZhf8gFjp/3eFxX9JvPHlLPjo6+3zHhQd7Ls+en3725MXrtCoJAL2g8P0bQK9B8ANAMTEFv7Yv/rvuJzfEFin4W5g635zOlWQiQj93SE/NeIDyQ/efuunFoSHtg4xaI7AWYmkrdvP9IKN+SgE+iIVQF3JdiHYh3YWe3zR8Rz46Mbfo/Y3vHJvcfOquyJZWPQGgzxSgfwNIFwQ/ABQT6wy/ZsMv/itPG/rbvz90XSkrmJ91C34tT2PeF7v/vCEtmLfMzhsPvabYBLRyy2c6moeeTS5EGURwCH59ij93H8QzC0sjtQU5ZWr+pfxvcPWBq9opo7PP+1hBAMgKuevfALIGgh8Aikkck35z0b5lDX8g6nyVZQh+S57WqZj05wrv+QVPMezpxxb84YUogt8w1reu4c/tDP+W0/c2nrzl1XaV4R1z0/Cdbeemd43MnJ9+hkd9APAw+zc5ZXT2uf/i9oYFvf239l55e/9YbztGe6QevPxADNoM86R8bmj2g10K5YPgB4D84TLp/9md+RCnfeaJinW1a4bfkqeJdX02ZJf6A6tUBiXLfufTX3GY9BuCP7oQt3V/8JJXBxoyvIZffHMP334qdPvmU3cXXy3Lh9Yeuu5VVewI5T+zsJRWJQEgL5hv88Gz9+Vhes9zh6f8/Wyvlt88ffE6jY4RwQ/JUVuROgsxUKlUFPXfnVA+CH4AyB8xJVC04Pe9stV1oMuk38hjeGmDnOC9TavKT/vT99CetNWkP6IQKSpfywGg7POvdQXFoWBWvfSvPzohD6VpdvhnpubPTz/TRgEAAELQ+rep+Zcrql8ejyeqvF9afpNSr4jgh+TYPxKkoxaHQwlD+SD4ASB/tCX4w0z6AXpNe3YgHQ7ed4uDY492XqxtPHnL83+hLcXffOruO8cmNw3f2TUyc2R8Dp/5AJAQa/9mTRHdjr+/5uA1w7tn6ICsM8aOFpnFUaA/rjs0hOCHGKhTR0OyWX4wkWCG62mda/PokyyUD4IfAPJHu4Jfs/PvfQUBAizeABxYfP/3RvDPLCydn362+9JDbTm9kPTyv5ozU/PdvS4AgEyk4Pfm9rdfeGDmURMdS66UHlVxtuqrL4eCVwKvSJFaEfwQidJ4gsElcxGfZbFflODvyNEPgh8A8gcz/FAeuttohchftW/M/7dwcOyRfFQofM+vnmdYCwDQU8IFv7d0f/j2U9e50i+XU1XVeFpeWFUXTSEm+lIhiupC8EMk1gDPrsR2BX8noXwQ/ACQP2JKIGtYPpHYhxoCdIt2Bb/Q6scnHwvd7rnN1wxfheD3/eptOzcttH236wsAEJdwwa/5CpFX8mtu/JxhU+WQOhGxVzQQ/NAx3RH8XQzlg+AHgPzBRD2Uh/DWbs7GC4Uvj3AJVS8fxXk+AGQHrX/bfuGB7BZUG68XGTwf/ja/oZKaN+z0W2LJNOCPIfgx6Ye2iS/4w9bwdzGUD4IfAPIHgh/Kg9naxWeu71dPbFtO35OPnp9+5vnVOz75WPO6BwCQKTp4m0/NvzygrkVq4ntDqwc2c4TUka36Y5r0SyXjtA/iES74Ww2q0SrDvPQHWZOG8kHwA0D+QPBDeTBb+5mpeX+Oa8OJmzsMd1YAALmAtzmUnb6E8kHwA0D+4BMByoPZ2hdfLeNXDwAKQGbe5lKwNHU+FaDX9CGUD4IfAPJHZj4RAHoOrR0Aigr9G0BCEPwAUEz4RIDyQGsHgKJC/waQEAQ/ABQTs3eTU2TXvp4XX2//rb1X3t4/1v1vi7oxlumdxZpBhug+ucX+QEOz+zZ4mkFe4AvK2YD4IAaAokL/BpAQBD8AFBOtdxP7Xqge/+eTF69XjDi9r5bfPJWi+PaAtjQ8gr+oqE828LDTcA9ddx8tq38t4k6H/ngAAPII/RtAQhD8AFBMtN7N815m9ndPVHm/tPymxx8WCH5Y0Z5sWMQdNdpuEK6n/Yg7AAB5hP4NICEIfgAoJtbezZqya2TG319z8Nqey7N6WUFUXmmutdpMFEn+cTmUqurH1xpwVUZKbxVHON88oz7xIdksX3L1XG8e5ox9IOiVY36ycQYfxABQVOjfABKC4AeAYhIp+L25/e1GfHIjUZLi1Uog2Hw15+t8SywUU+dHCv6glIbwR/DnFOWBBiNFun3+imW+PlLwG6fwQQwARYX+DSAhCH4AKCbhgt9buj98+6nr3OBHML3vT8lqas22H0zitin4dYWH4M8p1ifuSmxX8OtT/HwQA0BRoX8DSAiCHwCKSbjg953ze8gr+TU3fqr/dI8owR+c4gszBH/Z6I7gt6/hZ4YfAEpDVmPuQObpb7icvtUzBnoFEfwAUEy03m37hQfyN4G/72fzfPjLHw0t6t284VMtVPDL/tQx6S8p8QV/2Bp+6QNE9fLAGn4AKAdZjbkDeafL4XKyBIIfAMpBBxJoav7lgbFHlgOyVX8sk37f7V6l0u4M/4o8kIzTvvwSLvhbD7nxCRHmpT/IKiXhpR8ASkNWY+5A3ulyuJwsgeAHgHKABILc0N5UgSU3rR0Aikr3Yu4oEXakIfb62Hww/hqM7qsr+poayhJSRxqQDZ0DMPz6Qo/pa7icMIM+5dIrRpMIj9NkLcHWrNwxnhD8AFBMsi2BpDcN3wBg9RThwBILIuutHQCgc7oac2dA0uDBMjpZ/CtBeSyzvJb1d7ble9J+pqeCi01fw+W4Bb9xaf3U8EWdUZWXAki5FoQi+AGgmCCBoDzQ2gGgqMSMubPu8Ljmncc4UbFzNgS8KyhPS18Fltyad15HaUpOluelQl/D5cS7irVJhLttdpagtNVQl88IfgAoJkggKA+0dgAoKjFj7mgKP0rw+3pdE/z6XLwno9QgKW0Kfr9szPn6TV/D5bQh+FtF6Sb97Ql+9eoIfgAoIUggKA+0dgAoKu3G3DF3WkjW+9YAKIp5f4u6jqpUBmWH7VaT/sCYOrD4VgvLuGP3IhJf8HchXI7j6TsFv1RGpEm/faWA4WUQk34AKBlIICgPtHYAKCox+7d4gt/zz+dys2cG5WklGb771MyqdXbz9Eqwhh9/PekQMc1e7Wq4HDlb8PRdbh2UJqEsyG81qaEIGwGzrVrObYLgB4BiggSC8kBrB4Ci0pbgj23SD6CSOFxO9+vTvREiBD8AFBMkEJQHWjsAFJV2Bb88vY/gh/gkDJfTXWzLSzoHwQ8AxQQJBOWB1g4ARYUZfigNliUlXQHBDwDFBAkE5YHWDgBFJWb/Zg3LJxL7UEOAjIPgB4Bi0k0J5PlB8SLzMD8AAR3OF8nxoDSPT9LwvuwwSokKbV4SwQ8ARYX+DSAhCH4AKCZm7/a1fWMiZc3H1+QMX9l7xc/w9YPXRIrIppbU7lotjAbLQ0fP2vf1UxsaMtxEh8YC1s4P4IMYAIoK/RtAQhD8AFBMtN7NU/tWjz7mz2Sr/hD85aGTZ23z7RukVSv6QTPFHAPggxgAigr9G0BCEPwAUEy03s0aodc/ZOb38YOltmKnBmFRG+F8hfAKbK4r1SC4qs0qoHH6UEUqsJmqntLIVm2WKl8gUH7yNbt1y0qG4o7XFRxXedArxn1XnlT4A5VaizlG4Ct4M6yzLdCzUQYfxABQVOjfABKC4AeAYmIKfm2/7s7nJzfEFi741VlcWfC7jLBDZn0bStDLbFkooBRu7kqnSJewzP9CPKQHZ0yZ2x70iunCQXtSYQ80eGDGGI2txZhpWjtUCuGDGACKCv0bQEIQ/ABQTKwz/JoNv3/Iz/AvM1+K7dLD51JJLsGvTMFK4ixc8JtFyTPCRuHWfTluC3P8nePLZmnUJORZWEL0dvZA5UKcfiBDFb8+xc8HMQAUFfo3gIQg+AGgmMQx6fe2r/7oyoptRKBFlOBv4GnwwMw7vuAPZKSv4uIIflR+F/DueKCew59FTMEf/UD9Qqzm/StmPiOFGX4AKAtm/yanjM4+91/cYt8/+tbeK2/vH+t5x2gfs8WVD0TRZtQn5QNEsyisVlwzDD4IfgAoJi6T/p/dmdcE//V/fSF+vn4TpDxbWpZKiiX4VwL11qbg99OC3j9K8Csm4pCA+jOrVAYlHR32LKwm/e0+UEnkW6z7pYppl5JTWMMPAKXBfJsPnr0v2+g9efF6paX8/Wyvlt88ffE6mQvejkHwQ0LUJqTOSwxUKhVF/WuLPTsM5YPgB4D80T0JFCX4bS7awpz26UW1DPTryjOm4Fet+pns7xzv3VlVfjqfxYrxsDt4oHJUPmVlht1poCUFL/0AUCK0/m1q/uWK6pfH44kq75eW3xh5EPyQF+yfDdJRi8GfHO+ng48EBD8A5A8kEGSUMEP+Ds+ntQNAUbH2b9aUXSMz/v6ag9f2XJ6VM0gxdIZsUVrsUVeiYuJYBuIbwXgQ/BCOOoGkxG+qqvGezJd+IOiVY3LAn/bNABH8AJA/MiCBpC6biXiQSOKEwRINIBOtHQCgJ0QKfm9uf/uFB2YeNVE1zdOnSKWoK9YFWfaYOMpSOym8KoIfwlEDM+nxm8Li8kQL/o4c/SD4ASB/IIGgPFhb+0htYcvpe97qVgCAnBIu+L2l+8O3n7rOlX5ZRZSv4xUj6ubh6Jg4krtW5WwEP4Rj9QnlSmxX8HcSygfBDwD5A8EP5UFr7YuvlnderG04cfPg2KONJ2+lWDEAgISEC37fOb+HvJJfc+NnXRetulFVXLS2BH+4ORaCHzqjO4LfvoafGX4AKAkIfigPcmsfqS28c2xy96WH3s89l2d3GJauAAB5QXubb7/wQI7DZ4bU9Xz4y4H6Wpiez33XqitK+JtA50fGxMGkHzojvuAPW8OvttVEoXwQ/ACQPxD8UB681r74annDiZv/26fjxyYey0e3nL53fPKx61wAgCzTwdt8av7lgbFHZroWQ0d1iVLXS5XKoG68HxETxxKyB6d9EINwwa+01TAv/UHWpKF8EPwAkD8Q/FAevNa+8eSt/+PIjYm5Re2oNxAwOvt8z+XZ4dtPz08/8+JaAQBkn969zQ3ZhEqHTNJecJ8OQ/kg+AEgfyD4oTx4rf3I+NwHp+9ZM3h2/qv2jcm2r5o/PwYCACCD9OptrsuiOIKf4DuQDvGD+3QcygfBDwD5A8EP5cFv7ZuG75yZmteOjs4+F2pf/HfXyMzGk7fEtvrAVbHJeRZfLfsDAesOj+PqDwAyQg/e5p6Zvrkumhl+KCYIfgAoJgh+KA9+a59ZWFp/dEKeuj8++XjDiZsiPbwEkUGIfCH1vaLWHrquHfVXDYhtz+XZXvwVAAAmvM0BEoLgB4Bi0r1PBEb9wUWHbcO3zfPNQ5VgUKqxqJZivaTc2o+Mz209e9/b3zUys+X0vcVXy21V78mL1yO1BTlF/JTXAqw/OiEfnZp/KVI2nry17dy0uKIrIDYAQAcg+AESguAHgGJi9m5fayxgXvPxNTnDV/Ze8TN8/eA1kSKyqSXFF3UMDZSNjp64v3C0NjQU+IoOHPO64+1q5wdorX3T8B2huoXUF/K7zcqF8eTF6/PTz0TJR8bn5HSRKA8HbDhxUz46Nf/SGwg4OPZI5FSjZAEARIDgB0gIgh8AionWu31NdVfmZ7D+VLtFBD+46OSJ27ztBmnVin7QTImMuDOzsLT20PV+huIbqS0IMb/70kMh7MV/5UNnpublf1mbhu/IR6fmX+65PMtAAAC4QPADJATBDwDFROvdNGHv7fiHzPwSRlhUm7V1pSo573WF6h3yg/QGEVfVUxrZqs1SRZp/gUDzyddMfptKjOLytvWQrU+kEZnZ+63dfeV5hT/WViHW6Dq+gg/Kb2UyUyxjBln+IJ5ZWDo++XjXyMy2c9MbT97ShgOGbz+VhwM2n7qrnXt++lm7SxIAoEhkuX8DyAUIfgAoJqbg1/br3sh/ckNs8QW/nqJPtIbM9zY0oJfZEjLFP7GRzdiVTpEuYZn5hXaQHp8xZa48EVl7q/dce15hjzV4bMZIja3duFudrZD8fhCPzj73BgI2nLgp/oQdFx7IR4+Mz8krBbTBAgAoA/nt3wAyAoIfAIqJdYZfs+H3D/kZ/mXmS7FdeihbFysae0CebW1MvkqyLFzwy2rNUaArm78vOXBjjj8xvmyWxk5CnoglDG5nj1UuxBxEsBRtpOhT/NZ3+UhtYcvpe7LH/twhBP/Gk7f8f7Y7Lyo3ROh/L6CAyCP+UpwFAhQSBD9AQhD8AFBM4pj0e9tXf3RlxTYi0EIW277dtW5iHxh4xxf8lgLjCH5Uftfw7nvwOMOfSEzBH/1Y/UKs5v0rZj4jJWKGf/HVstDGG07c3DUy43vszzvnp59Nzb+UU7adm5b/zWoeCr3Bgs2n7op0sWnnAkBeMLWKnDI6+9zvBDxXIN7+W3uvvL1/jJECiEE77nico/RtX0j7plAKruorQOUi9ENq5shQPi4Q/ACQP1wm/T+7M68J/uv/+kL8fP0mSHm2JK8Zlgz4W87Vte6+pdvaFPyWAqMEv2IcDompP7lKZVDS0WFPxGrS3+5jlUS+xbpfqph2KTkldA3/SG3hnWOTvvX7puE7Z6bm274z+WFibvH89LODY480t39bz96XhwO05QAivzcQMHz7qTh9ZmGpv7UGgLiYb/PBxr9u/6dnx+Qpfz/bq+U3T1+8Tlvw48o3F/TtMYUY6mnLOI1VnCvNs4zgPmbm6FA+VhD8AJA/umcEqAi4xiCqkIhOD29hTvt09W4UGC34Vat+JvuT0ribwW0MfyIrxiPv4LHKUfmU9Rn2JmVJcXrp9yf2hQb2Dwkpu/7oRK4N+zvDDyIoVP2OCw+0UY8tp+/JwwFaRANxlkhhIAAgC2hvc89ax3y/P1Hl/dLym7TV/gqCPyekIPg1US5+VoYko8DWK95tByjNNJmZo0L5WEHwA0D+YNUfZJQwQ/4Oz/da+8aTt7RV7h5HxucKY9jfLYSY92b4xU0Tm2YdsPnUXXk4QPMOMDG3OFJb6G99AcqL9W1uTfHX9Yj9NQev7bk8q+VJFhlnwDAGW1EnWrVYPOGxeyBt/MH5+mMz51TkxXfWgf7oxmNvb+YkfF3uBzF8lGNOS8DmAXvmjkL5IPgBIH+kKvil1zyvejBI4orBEg2g1dpDhH3hDfu7i7iTQvNvPHlr3eFxf2Gwj7iZ3g1ftW/MHCwAgO4SKfi9uf3taowPL4+Z2KCtyDhyHN4QW7yqLRYPM/yZJXhIkv9lMxBSyFK+yMZjPcWYxDeEfhzBbx85CDJ3EsoHwQ8A+YMZfigPfmt3Cfvh20/XH53w9j1Pfuaid4iJuHviZvrz//ICCsE7xya9gQDP4AJngQAJCRf83tJ9V5AO/cROIuOYq6ncM/xhiZAldKHsP251sibMWW+MNZjO9hYIcsVtcCzBr4xBODLHCuWjgeAHgPyB4Ify4Ld2c8W+ubDfm7X256ixTu8YcbfPTz8Td1hOXHvourwcQBP8W07f23jy1rZz07tGZg6OPdLOBQCTcMGv2eDIK/k1N37JI+Mg+IuDU/Cr8jqJ4A9rb7KnPRVxPGwNv5Fgz8wMPwCUAwQ/lAe5tcuG/ZrHfg+hUUXK5lN3PeWv+fPbc3n2+ORj5qUTIm6y5yZAS5fHAsSmOQX0BwLEuZrhAEBp0d7m2y88kOPwaf+mRIZBKUKHYsfUaWQcyaQ/sAGXXPUi+POIy6Q/JECOf2K8xhPW3my+fBSPvo4lIeaEvzUza/gBoCQg+KE8aK190/Cd4dtPTY/9Jpra9ybHvG31gauiHKagu4i4md5AwO5LD4Ww33L6nnZUky7a0xGneKf3t9YAKdPB23xq/uWBsUdGcsLIOJKE8udlK5Vw+eeO3QNpU/U9LFqd9unxl+xO+8IaT1h7syh+Oal1Tc3Zny24j5F5BS/9AFAaEPxQHrTWPrOwtPbQdW1iPw5CYQpVufnUXc8ufd3hcfmoUKTDt58Sqa5HiNt7cOyRuP/bzk1vPHlr0/Ad+ag8FuOtxdBOPz/9DLsMKCS8zaGAtBOvx+mqP3bRCH4AKCZ8IkB56EVrF+pR8+rnW8+uPXR986m7Zsgr6B1C8O+48GDjyVvvHJs0x2JmFpb8sQBxSLMdAMg1vM2hkMSO19Oe3g8J5RN+IoIfAPJHSO/25dLyx5/XPjx24739o2ITO+KnSOxzDQG6RX8+iIXg3zR8Z9W+Me9yQvPLR4Ui1UzQoW9MzC1uPHlr9YGr3qPZcOKmfHRq/qU3TCPyMFIDuQPBD5AQBD8AFBNX7/bLX//m/U+v/fHfVbVNJIpD/a8nQHL6/EEslL/nWE5OFDJS1GH90YmtZ+8fGZ/D51xaiKejmWacmZqXlwMI2a/l9wYCdo3MiIdIsEbIGgh+gIQg+AGgmFh7NyHp393zhS/yv/3J2Hd+POb/FIeiNH+Ix92uOOPFo28W6MZTMD37dlBA3Sov8NHjcNpbJwsfxEIr+pP/YjMd1EO6eEEEj08+1iKWi5/ycIDmO2CktrDjwgPxNEU2cTpGHNB/stC/AeQaBD8AFBOzd/tyaVmb2/+9St3xlTbPH2rb35ngjy8ge5ET2qXjR9m9hxL43KlWLRGhOvHH0x9GZ58L5b/l9D0hFOX0rWfvv3Nsctu56SPjc/iWyxTeQMCZqXmh6sWm+Xo8OPZIHg7Q1nH4th4YdEDvyE7/BpBTEPwAUEzM3u3jz2uaGb8p+MUmsrlLRfCXgfQFv819r+S2p6OIO+my/uiErBuFvEy7RhCLqfmX3kDAxpO3xLbjwgP5qLeOw9+2nr0vH51ZWGKBACQn+/0bQMZB8ANAMTF7tw8+uxFH8H947IZelh9L1R6s1TC1Vg4FEVyDCVo1xqu9fBU1DqxRJiTH9hQibnvYg1ZD9VabOcUR/6TgSetNIkLvm8ez/0HshaDffemhF/NPswwXQnHnxRox/3KHeKZbTt/bePKWF8dRW8chHrcfRFDkOTI+l1Y9Iddkv38DyDgIfgAoJmbv9t7+0TiCX2RTSwpCnDR0maTias3jjT1V4NkPuY6a5buwXQW6QPhTsN72mA+6MRBg7EoXtJYTDOQ0RwOUkR19ij/XH8RahPl1h8cXXxEyowjsuTy74cRN/8lqiwV2jcyIxHeOTW48eWvbuWnNBySAT677N4AsgOAHgGISLvj/7O8vC7X/fKk+zRgh+JXZ1JY2C6ZkjRndkEMrtqPW8k2C+WMEfw9wPYWQ2x7+oCPHCCIajGG5Ua+Jf64+xZ/rD2Ih+IXYE/Jv0/Cd1Qeurj86IR8V4l8cOjM1j7u4/OLZd2jmG1vP3pcHerT5/z2XZzeevCXyiKcvDmH6UWZy3b8BZAEEPwAUE7N3+/BY3aT/T3/0hTexLxA73/5kLMKk3yn4NUkW49CK7WgcwW9x2Ibg7yoRT9l228MfdHuC3yzHslQjZBF/kT6INWknhKI8+a+tIYe8I56vt9ZDc+W4+dRdeTjg+ORj+eiey7Oef0FxruYeEoqH2b/JKaOzz/124vmM8Pbf2nvl7f1j6okx35u8XstGO088UQge5ULay18puDXZYF7Jn4ZQvlmipoMQ/ABQTKxO+77/T7969KwuJ/7yH65rOt/ttM9l0q91qYoJt+OQ62iUSb9fQPBC4Iuku9ieQsRtj3zQ8QS/pRxp+KHlpF8fa8jbGv6OETpw58XaxpO3rG7hJuYWheRjCUDxEMpNPNkj43NC2G87N605/9s0fEceDtACDR6ffOyNI9AwioHWv4n9wYZ5iP/TM//xlL+f7dXym6eN5UJSSQh+sNK3Jx7yHteW/Dni8NaGhqpaUWbmDkP5IPgBIH9Yw/JtPT75vX8cd0l9Z1i+YPTU6rQv1G6/0Q83C9A9vUmLuM3yFXyHcpXKYPBCMJZ2QwIsTyHqtoc96PiC31JO8LqWDgWPOode+rvCSG1Bm871vcRvOHFzx4UHrAMvCV4QwW3npjeevLX+6IQ2HCA7DhCb1ipEZhYI5Autf/OMQcwe74kq75eW3xh5EPxgJQXBr4ly8bMyJJkSSj6dHTVrHbFm7ugjAcEPAPnD2rv98te/eXfPFy61Lw6JDKnUFkDB/ZLvePC+kByffCyrO6H/5aOalTiUBNEMNg3f2Xjy1qp9dYturRn4ESLXHrou8kzMLaZVT4iJtX+zpvhxIsT+moPXtA5Bi5liWE/7o6qBKrMfGjLNrY3oO2Y4HsgasQIwmUlthOBxNy31PV6X+4FHJ32Job0FNQ/YM3dkBojgB4D84erdhKR//9Nr1rn9zKh9KcAbnwtlxbK0v0Gw9kCitILfJ2QduDf5T8w/8Ng0fMcbCPA2rVWsOzzuDQRsOX1PqEdcRWaBSMHvze1vNxx8GImS1bRlJXZIEBw16kpgmhfYejmXdzVjr0DWcK3W1B5cyMONDMFjPcWYxDeEfhzBbx85CDJ34ugHwQ8A+SOkd/tyafnjz2sffHbjvf2jYvvw2A3x02LJD5ATEPxWtJXeGPyDjOcAQkuUG4zYNC8AnuHAzos1L3JEHytbasIFv7d0X/PjYGZroCh5RRwNyFOz8QK1hDhetcRegYwRMwBTmHfeGOv1nO0naH3KCr5Ygl8Zg3Bk7iSUD4IfAPIHEgjKA63dxZMXr7313kKqaeJt/dEJId6I+QcaMwtL56efec1GTvemkf1t1b4x7UQ/iKA4neUkXSRc8PvO+T3klfyaGz9VlbWUXEg0loj4OOGCH5WfbWIGYEoi+MPaj+xpT0UcD1vDbyTYMzPDDwDlAAkE5YHW3i6aeDPncgE0RAvxBwJ2XqxtOX1PPjqzsCQ3p9UHrmqnewMBmn9BiIPWv22/8ECOw6f9QxYZPB/+fgapJCkkii/GQqKxRAdqcS0PMGOvQNaIGYAp3KQ/VPCHtR+bnx4/LRgpMFaXmBP+1sys4QeAkoAEgvJAa+8AodA88bbx5K0NJ27Kh568eL1p+I44RGg3iIloJ3suz4o2s/nUXdGixCYfnZp/KYvSdYfHtXO18BMg00H/Jm74gbFHRnJdEVUqg6qhvRmNRRFqjkPmvstpHyb9WSVWAKYV4+HGN+kPaz8WxS8nta6pOfvT1hxoviUThvJB8ANA/kACQXmgtXeX4dtPZXmmzeUCtIvQnzsuPNh48tY7xyZFi9KGA/xp6lX7xsShrWfvp1XPbEL/BgUkLBaPjtNVf+yiEfwAUEz4RIDyQGvvLkKeHZ98LBSaJ8+2nZuWj07MLe6+9JApWegWQvB7Lc3bNg3fkY+en34mEkWGjSdviTZ5ZHwurXqmBf0bFJLYrh7a0/sdh/JB8ANA/uATAcoDrb13LL5a1hyw7RqZ8bWZ0GAu9+AAHSDk/cTcopwiFL5sb7L51F0tv2iEIlE0yz2XZ7VziwH9G0BCEPwAUEz4RIDyQGvvJ0JibTs37U/JHlSXCo/UFpj8h64jWp3YhKrXBpiEyJeHA7TlAKOzz8Upuy899E7PqUMK+jeAhCD4AaCYmL2bnCK79vW8+Hr7b+298vb+sYx+W5jOYntSoOEVNn+oAW8U27bmX2dEwpH/Zu0OyB567KX5l5L85qg2eLKnHdnNjr00pXYtL0HWqjbhgzgVhHw6MzWvzf9vPnXXX4wttBbh2aCniAYmlPyR8TnR2ITa1wz+hdSXhwN2XHggHxXvPtGAxekzC0v9rXV70L8BJATBDwDFROvdxL4Xqsf/6UXe1uL0vlp+81SK4psSLtev/b96TpEF/+CgskrOJea1012C31GavBSvNjRUXVEEvzqwUq1E1s2sleEOun0HvNAftp2bXnd43BEVbMXrdgD6w8TcohdE0AtFsefyrHxUXpwiNvFTPjo1/zIjw1X0bwAJQfADQDHRejfvw8Xs756o8n5p+U0GPiwQ/AlRBP9QVXZYm1Tw20uzFOPXweWXJ6Ru4YLfUiQfxFljZmFp+PZTTUEJ1h66LjZi/kEWOD752IsguGpf3a5Nsw7YebHmBxEUeUTmtOpJ/waQEAQ/ABQTa+9mTfE/ysX+moPXtDmQiPCqlqC7gdRsxPs1tV74uZLxdqUi7Vd1QTjkh5CtaQVLQWWNa7n+NMu5+UUV/DXN8j6Z4LeXVn9qakGtOjj98IaXFir4jUL5IM4FT168Fmrfn1AVKgvBD5ll96WHcnPVBP/Ws/e9dSve6JVmydJd6N8AEoLgB4BiEin4vbn97eqaRi+PmmgT/HqQFEW1tXI4dHOsc60z/LbF5EEAlmCvId6t9TSrEhSon5tjdMHv1tKdCH5Hac0hk9b9lgS/OagSUZq8Yl/7Q4JrIfhzihfzb+fFmhbtT6QLfbX51F3PxVpa1QPQmFlYEg1SW40idL68HEBzJbhrZMbzYeF5GWzLR8Dew5/9zl//ZPXfnPz9H/6zF3QgpH/7cmn5489rHx678d7+UbGJHfFTJLb/VwIUGQQ/ABSTcMHvLd13xdNST7RJbk0Wyy7Z9Nl4g/bOdQl+W5VM4/AI+R56bo4xBb+f1hXB7yqtecNbbvasM/xxSoszw69kQPAXANEdyQpqw4mbadcIIIwnL16fn37mLV3RVvuL1is35jNT8/JRz8Wg+K84XTMNEGp/4G9/MfBHfzHwu+8O/OGfr/3hBaH5Xf3bL3/9m/c/vfbHf1fVNpEoDvXiTwbIKQh+ACgm4YJfc6Ylr+TX3PiFrKj3pHpdqVnMtiNkc+xzkwl+7Vo6ZRL8zRsdR/Crcjp4QJGlydmtdVhxPEStNNbwlxShbYQK2nr2/vqjE5pD9ZHawpbT9/Zcnu2p7TRAVxDNVYj53ZceCmG/afiONhwgmrc8HCDbs3x9+yd1td/i7T/4E3/sQLuEkPTv7vnCF/nf/mTsOz8e83+KQzbNH/Pt1ueXYAHeuf2kG7erOzGPqmGBe1rH5aWX1YjwQCGBeyK/ImwVkEDwA0Ax0Xq37RceyH6z5a8NL5vnw9/mWFtSV4adfksaWpdwR7xO4p0bW/CHmuXrM8L6hQpv0t+gaUwRKfiVRxLcmpDSqkOydNdWUwSz/kohIXULf4tLNWqB4C88skP1VfvGDFcjALnBGwjYfOruxpO31h0el4cD3vrB+YHfXuPLoa/81r+VX9M+Xy4ta3P7v1cZE+naPL9h2587wc9YgEnHt6vrN7NeoDMMkPJlpw0wOE0L4wXuQfADALToQAKJz44DY48sB/xR2boXPV+kq77wZMv8cJP+6HNbWfT9cMEflBw43jOvpVfFfW6Occ2um8MZrsckPRK37YNUWlV1ryjXofVLLy9eaQP6g7QOxyD4C8/o7PODY4+8yX/xrDXBf376mTjK5D/knW/uPlM35vd5b8v//um42b99/HlNM+M3Bb/YRDa1eAR/AciW4HeE2jHM8JQE91rCWIF7EPwAAC1KLYGcnuGhmJS6tZePJy9eax7UNp+667WB1Qeubhq+g/KHnHL2ztw3fnDGm+T/1vubv/XTSd+3hZztg89uxBH8Hx67oRbf0lTq0KkxMB6oJvshM0ROdOAeA1tkHPVyxjhyZJkFJunt0o6qmrnVJMQR/yR9VaTltjcLUWdOWssk9cyynaVb8McK3IPgBwBokRkJpC3a6sd72lwkkFZNoD9kprVDOngr/9cdHrctSlo5MzXveTsHyD6iuXrhAFcfuOrFAjT7t/f2j8YR/CKbWnbjJRhMwbrEUoiOkhZaqyvhnOvymsF3NMKX0UVb85Vs3r8rt8u5FtLclS4YctvN60qCX39C8hhAmOAP3Qn5e0NKroPgB4BiUj4JZCwMgNJQvtYOdmYWloZvP118pSxd9gYCvMn/3ZceakcBMk644P+zv78s1P7zpbrNSwzBrxhMS9555Gldy2I3m4MV93SuJfiOistRbsjlIsssMN25XS7Bb514lx+u67arNZEvkWCG31Iagh8AwAUSCMoDrR1cCHkvdL5Q+77DP03wtxUjHaD/mP3bh8fqJv1/+qMvvIl9gdj59idjsUz6JT9qaqAcX5KZss04tGLN1iJyVZ0zjK77cmVeqded29Wx4HfddrM5JV7D7yxNWz5i91KE4AeA0oEEgvJAa4dIpuZfHp98fFD1SyrUvmg56w6PezH/RmoLaVUPwIXVad/3/+lXj57Vx6r+8h+uazo/1GlfSw/5qknRaKoIDDm0Yj/TciE7Nhv16MuV1oNfV25XR4I/7Lar6loLAxRU2SwkUvDrpcnnSwUj+AGg9CCBoDzQ2qEzhMJftW/Mj3z2zrHJtGsEoGMNy7f1+OT3/nHcJfVDwvJVKoOqdbbvDk4c0URgyCFzXzX6jlxj1zpD8kJnXq6VS/dCVzKT/pXu3C7paHzBH3LbdXWt+xeQ/CapjyuG4NdLc0UOCmiNgmgpTRD8AFBMkEBQHmjtkAQv5p83yS+nD99+uv7oxLZz00fG53D7B2lh7d9++evfvLvnC5faF4dEhlRqC5BBEPwAUEyQQFAeaO3QC3ZerPmT/2ITyj/tGkEZcfVvQtK//+k169x+xtS+Mu9avtl5SB8EPwAUk5De7cul5Y8/r3147MZ7+0fFJnbET8P2DyA3IPihR4zUFvZcnt1y+t7aQ9ePjM/Jhw6OPfIm/6fmX6ZVPSgDkW/zDz7jbQ4QBoIfAIpJ/ucEAOKC4If+s/HkLX/yf+2h6+enn6VdIygm9G8ACUHwA0AxibPq79ufjH3nx2NZWvXn9LCac7rxd5mOkDsooBWFSTasdFSuYYQZ4qFHMtIMnPmq6LntpfUpxC5Ad/Em/zefuivUvmh+o7PP5aNbTt/bePKWv2nB/8KPimJ3jcz425MXr7Xrnp9+5m9alMHwo5B99h7+7Hf++ier/+bk7//wnz3PEfRvAAlB8ANAMbH69dXm9r0QvlF+fZMTX+72ImcWCKlt+B/SvT8zCGRbrQZelLUovvqlB5VQulJllCA72lCE0wGvozQEP+Qe06p/3eFxef2/liHLR9ceut71QYokQxilQqj9gb/9xcAf/cXA77478Id/vvaHF4Tmp38DSAiCHwCKiTVyr2bGbwp+W+Te5CD40xf8Nk0vCm8JcGlXuXRVPk2J1aRkVxLcEXfspSH4oYAkmYcPl8dJbAeyPNDQi6O5s7P4+vZP6mq/xdt/8CcbTtykfwNICIIfAIqJ2bt98NmNOIL/w2M3jMI0I3A/lm/jl24hrgXkNSKxGvmDaLJBgFmdiDKzie3vaufmaEdVJVxt5hRH/JOCe6ff5Ai9bzvevJw6rd/YNfS+en5YiF1LaQh+gCwhNHMHInb3pYcdz/CHC29vxUTWhhJ6dPStH5wf+O01wbKor/4vfrYVAOgUBD8AFBOzd3tv/2gcwS+yqSWZa8dle25FwRnZTOVm5q+XJqnd8AntEDWYNcL/rvg3xzzaGAgwdqULWssJJHpzNEBfUa9peLOGkuDX7708BhAm+EN3Qu5MSMl1+CAGAJPe2VlsPnW3F3YW39x9pm7M7/Pelm/++Dr9G0BCEPwAUEzCBf+f/f1lofafL9W/YCIEv2U6V9JdwUyyNJ0czEwbys3MX7OaeRuElJlNXH9XWzfHKfit0+nyDLxZjmELoa/Dd6vr5tldmOG3lIbgBwBocPbO3Dd+cMab5P/W+5u/9dPJ4dtP6d8AEoLgB4BiYvZuHx6rm/T/6Y++8Cb2BWLn25+MRZj0Rwt+9ajFFVxU/kjBH15mNrH+Xe3enM4Fv1mOZfFD6CJ+uWSvxMRr+J2lSfmDohD8AFA6zkzNe6sYVh+4enzy8Yqtf5NTRmef+8YCXqgIb/+tvVfe3j/m7hgz/w6F/tFOY0gUMEi5kPYloRTcmhqxfkzoh9TM1j8GwQ8AxcTqtO/7//SrR8/qtoV/+Q/XNZ3vdtpnNelXemXlqKIKrQLVskAgwqQ/osxsYvu7Ork57Qt+SzmSqG456dfHGvTbqd7hptWAbKcgK3w5a6Tg10vTlohIviAQ/ABQdrT+TewPnr3vp4gdb7mBp/z9bK+W3zx98RrBDzHoW2MI+erQFig6xv1rQ0P64kEzs+WDBsEPAMXE7N2+XFreenzye/847pL67rB8VcXTnF28+Yd9V3WVyqCk6AZMv3T6EgC3076oMrOJ5e9q++ZIR+MLfks5wQtQOhTcPIsFgP6i1YdjqqpLQfeJMUqT6mQO2gfJZkoTBD8AFBWtf/PW/Js93hNV3i8tvwntFRH84JOC4NdEufhZGZIMHyWfzo6atY5YMxufNAh+ACgm1t7tl7/+zbt7vnCpfXFIZEilttBz3K/N8GO5AMEPAEXF2r9ZU3aNzPj7aw5e23N5Vi/LGhPHDJ1jJKmj/qotdkPEdedPhX7SYWNQ5x5CAwZpk0XOSfi63A88OukLIu3zOs0D9szGRw2CHwCKiat3E5L+/U+vWef2M6P2lYncbE/i5wnL0v4Ginl+PkHwA0BRiRT83tz+9gsPzDxqonUBneJR1XcD4xgDbmUOdQADeaDjxqAsHjR3bZ8Upn1i1RIWuB3Bbx85CDLrpyH4AaCYhPRuXy4tf/x57YPPbry3f1RsHx67IX7aLPkB8gGCHwCKSrjg95buD99+6jo3+OF0JasOsFvHhoNxeGPhdL7tw8pK542hndWFlmajC35lvWEswa+MQTgy61P8CH4AKCZIICgPtHYAKCrhgt93zu8hr+TX3PhFxY6RskUH32nu5X49WGnpuDF0EjDIDEske9pTEcfD1vAbCfbMzPADQDlAAkF5oLUDQFHR+rftFx7Icfj8fT+b58NfDtTXwmXFbUZ1iQy+46mrwPss5I1OG0N8wR8Wlsg2UuSnhUTnNSf8rZlZww8AJQEJBOWB1g4ARaWD/m1q/uWBsUeWA9aYOGboHN3bmiW+zEoh/L+Umg4bQ3yTfrPZOL3060mta2rO/rQ1B2qso7DAQwh+ACgmSCAoD7R2ACgqme3fcNcHndPOapA2W5qlaAQ/ABSTzH4iAHQdWjsAFJWM9m8s34dkuCIHGbSn962GJwh+ACgmGf1EAOgBtHYAKCrZ6988w2rkPuQGBD8AFJPsfSIA9ApaOwAUFfo3gIQg+AGgmBT5E8H0GutK7MN1TS+yXabD8lvGcoGPG9nGLXDWU3NdoJFFsYtTM0rBdAL3vkZ4nRiladd3pYfdiiK3dgAoN/RvAAlB8ANAMTF7t6/tGxMpaz6+Jmf4yt4rfoavH7wmUkS2vlY0Eb0W21moQ0flB6srq9VqK0X3d2vJrV13UFlhJ52nxO7RBkKsFQ4pDcEPAOCE/g0gIQh+ACgmWu/mqX05VG/Iz/x8WyD47dgUvO/2plqx6nHdyU3jutUhNQaTHiQ3uF6Q4BT8jtIQ/AAATujfABKC4AeAYqL1bpqw93b8Q2Z+FcMsXIqF2tJ5LUXXSvSzSJPCMTLocVwbO0MVW07JhLxeCel0vb52s/YW7uuGJPrxZeUAtt1Bq61y34wgtUqY2kplsHVrw/T+QKWi3VDbGc0/Vp3W9yPhajdSi5/rXPhgKQ3BDwDghv4NICEIfgAoJqbg1/bFf9f95IbYogS/uXJdCnoSHGwoUGNXyhsng1VjywVoOaNkuTeZHRHSpQPBH1Sloc67KPjtd9u4rFl52che+YOb4wfyBLx0762nuP/qluDX/2J5DCBM8IfuuHKah3T4IAaAohLSv325tPzx57UPj914b/+o2MSO+CkS+1xDgIyD4AeAYmKd4dds+P1DfoZ/mflSbJcePg8KMqdz1ZSWUrQq5JUoCR2ZIVJ4G0cl6wPZlsAtytu/bs1qmt4NLJPnjvsWTPFbK2yMcPg6Xz4Y7Jsi3hwN6MIMv6U0BD8AgBtX//bLX//m/U+v/fHfVbVNJIpD/a8nQGZB8ANAMYlj0u9tX/3RlRXbiECTXAp+y4S+Nw7QHZP+1AV/kM2vSpTgl4W2RfCHzPD71fJTOl3D7yxNyh8UheAHALD3b0LSv7vnC1/kf/uTse/8eMz/KQ5Faf6uvrkA7HSjmXUjBhOCHwCKicuk/2d35jXBf/1fX4ifr98EKc8Ug8BIk/4Qg/yVKAkt76t+5DsW/Ipxu4LVGb3juuGV6bNJv/E3KvfMvBXSH9py0m+7adLf6F7DL9VL9aJgXSRgnhijNG01gjOYAIIfAMqH2b99ubSsze3/XqUeXkeb5w+17e+z4I9/OUYiikTI0wx/0F1uBgh+ACgmXZVAVd1DXGA2H67hV2w6073vX6fuVS7WtH/zDKfTvsYho/rOvy+4blRlWkd74LRPq65zcKRx+UrFMsMv6XeLe0Up0TLVL1dD+bv0oY2gmtqpMQS/XppUS8V0IqA1zqGlNEHwA0BRMfu3jz+vaWb8puAXm8jmLhXBD30AwQ8A0EuQQKXGYczQldwZhNYOAEXF7N8++OxGHMH/4bEbelnW+DKWODZ6kjoObazrs7xA5BL04WFjEL5eRCPKjESYq13INrZmpj50Y8ZAaXHaUXWyJyzYkzMoE4IfAIoJEsiBMktc4G8KhysDC4p5fj6htQNAUTH7t/f2j8YR/CKbWpJ1MZpiueY7iXGMAUvLyqS4LG6fMcaJ1tL0dV35HoAuPeFrHqOsPpuN0Llg09yVLmiW0wTBDwDFBAkE5YHWDgBFJVzw/9nfXxZq//nS65VIwW91N2uPa2ON8yJPpvqCXtVV8rVCfLtYSrOu+IMc4vJqHPLQzUbY2cpQSzlNEPwAUEyQQFAeaO0AUFTM/u3DY3WT/j/90RfexL5A7Hz7k7EIk36n4A8LxKOmKP5hxF74ejApOI6m7sKjzCD480xEM7M99LgBieMIfru9IoIfAIoJEgjKA60dAIqK1Wnf9//pV4+eLYn9v/yH65rOdzvtc5n0awrbMOm3xIXxhJvvNdZJS96pM71hUWYQ/HnH1syiH3qM+ESxnEPbWw+CHwCKCRIIygOtHQCKijUs39bjk9/7x3GX1HeG5bPGl9Hi2sj5mglmXJhWJpf/F5tfvtaviCgzUk7IJ5ZmZmlCyoM2GqEtBlOMYE+WxlwHwQ8AxQQJBOWB1g4ARcXav/3y1795d88XLrUvDokMva6Y3V0fQPZA8ANAMfF6Nza28mxp/5sDAOg+rv5NSPr3P71mndvvg9o3lmqXIvwN5JQ4HwkIfgDIH6mrLza2Pm9p/5sDAOg+If3bl0vLH39e++CzG+/tHxXbh8duiJ8WS/4u45lNs9IeckOcjwQEPwBAXPYe/ux3/von/+vOnw589LP//79Pp10diGD3pYe/tfW/vL3j09V/c/L3f/jPE3OLadcIAAACGNAESAiCHwCgawi1P/C3vxj4o78Y+N13B/7wz//df/7vCMiM8//9lx/Lj2ztDy/wyAAAsgOCHyAhCH4AgK7x9e2f1KVji7f/4E82nLiZdqUgDB4ZAECWQfADJATBDwDQNd76wfmB317jq8dVq1bxmZJxeGQAAFkGwQ+QEAQ/AEDX+ObuM3XL8BbfGfyrdYfHe3rFLafv7RqZefLidU+vUmD6/8gAACA+CH6AhCD4AQC6xtk7c9/4wRlvxvhb72/+1k8nh28/7d3lRmefix589YGri6967ZS4sPT5kQEAQFsg+AESguAHAOgmZ6bm1x667unw45OPe3qtHRceiAuJ//b0KoWnn48MAADaAsEPkBAEPwBAF+i/Uf3iq+VV+8ZED45XeQAAKCoIfpCoVgYGh2ptn1YbGhyoVL3zPfxS6oeaNHIYKY5LNkpqnmGrm3+l1rWkBL0OoaVp13elh90cBD8AQFJmFpZWH7i682Ktn6b1Z6bmRfe98eStvl2xJIzUFtKuAgAANDG1ytcag91rPr4mZ/jK3it+hq8fvCZSRLa+VhT6QUeCXyh476Ta0FBVL0fsKULbkuKfr9dkcFDOKdWtrt+VIQVV27dVGoIfACADCNUtetLNp+72+bozC0tM73eRxVfL6w6Pr9o3Jm5s2nUBAIA6mlbx1L6/+RmsPzENKBydCH6bXg/SqhX9oJliGRXwalKVi/br5tsTSFcLEpyC31Eagh8AIG32XJ4V3ejaQ9dRiQVg86m7uEUAAMgOmlbRhL234x8y80u0NFXLVtu33A5EUmDM7cmztk4xJCGoKDK4JU4DQ/fmsfqBSmWw9Vt7JMoT8Z9CaCGu+Xm9/FYmM8U6ZtD8A9Rp/cauoffV892C31oagh8AIF0m5ha9hfRnpubTrgt0AS/wAZP8AAAZwRT82r7477qf3BBbDMGvLKcOTLpled9SW4EajThFXvndyfLyEiHNkxtT5rKOVbS3ek+1J2Ia45uFuGbnzUn8EP1sNfzXhLck+PXS5TGAMMEfuuPKGfpnNUDwAwAkYvelh0wIF4mtZ+8zyQ8AkBGsM/yaDb9/yM/wLzNfiu3Sw+dSSZp+M/aluXqbvzbXKcqkNZP8ofh3SLKaD2bnDR1rmSp3PJGQQvTH4hyYCRXQpohXry63lgQz/JbSEPwAACVk+PZTosf1jpmFpU3Dd0Znn0dnBQCAHhPHpN/bvvqjKytha/jbU+8dnILgj8QTvoH8DW6gn9a+4A8vRHksVvP+FTOfkRIyw+9XNPEafmdpUv6gKAQ/AEBxWX90QnTcQvanXREAAIDe4jLp/9mdeU3wX//XF+Ln6zdByrMlOXROlHpXXavHP0Uy6UfvR1FXr5XKoGHeHsy769I3+olEFxJi3S9VTLuUnOJewy9lHlCWESgKP5aXfldp2voE2U8Bgh8AoIB40fjWHrrezxCAAAAAqdA9Z/uR6l216o9j0q+cwgL+ODTuV6C6W7evPgrgsmA3nPbpTyGiECkqn7JoI3DToPhcNFNi+QFoFK7qers3xxiCXy9NqniQS7qA8bdozRHBDwDQNptP3d1x4UEqkttzI79rZKb/lwYAAOgzRNeDpIQZ8vfj/NRB8AMAtMfBsUei31x94OrU/Ms+X3pmYckLCoAP+f4wOvt8Ym4x7VoAAJQXBD8kJ8l6C0s0gLyB4AcAaAM/Dl9abvNGagt7Ls+mcumyIR6xeNCbT91NuyIAAOUFwQ+QEAQ/AEBcFl8tv3NsUnSaW8/eT7su0HPE41576Dr+EQEAUgTBD5AQBD8AQBvsvvRQaH4c5pWEPZdnxTtSPPG0KwIAUFIQ/AAJQfADAADYYZIfACBdEPwACUHwAwDkgJmFJbzHpcKR8TmcJgAApAWCHyAhCH4AgBywa2RGdNa7Lz1MuyIAAAD9A8EPkBAEPwBABEfG53ZeTDMAq29YPjr7PMVqAAAA9JkQrfLl0vLHn9c+PHbjvf2jYhM74qdI7HMNATIOgh8AIIyp+ZdeHL4UV3GLS+M6DgAASohLq/zy1795/9Nrf/x3VW0TieJQ/+sJkFkQ/AAAYWw4cTP1YOybhu+IOhwce5RiHeDJi9e7Lz0kQAMAQD+xahUh6d/d84Uv8r/9ydh3fjzm/xSHeq75a0ODA4NDXTP+q1a6WRpkhG481m60NAQ/AIATb+X82kPXhdhLsRpHxueIBZg6G0/eEo0BB34AAP3E1CpfLi1rc/u/VxkT6do8fw9s+3sny0NKZiwgv3T8WLv80BH8AABOdl96uGrf2PnpZ2lXBNLHW1ix9tB1Rl4AAPqGqVU+/rymmfGbgl9sIlu364Lgh7ZA8AMA5IGp+ZdpVwGywjvHJpnkBwDoJ6ZW+eCzG3EE/4fHbhiF1c2jPSrVFU9WVSqDzV/awcZhKSH41frZkmTBia0zvaNDzTOc0q11YiNrM1foRS2VhMyR9LG6Wlpjp9rMKY74JwUNzNE8EPwAAACxGKktiFfmusPjaVcEAKAsmFrlvf2jcQS/yKaWZC6GriurVook4KsVI5ukuGpmYktdBVdoaDYvVTquEhxoyDRtWCD8omYlISN05bE6W5q5K13Q2TwQ/AAA2SVd3wFgsufy7MzCUtq1AAAoC+GC/8/+/rJQ+8+X6u/KCMFfl1+a8LbP0g8oWl2eQ7XJMLVYkerbDljknFafIFmRas6LWisJmaI7j9Ul+K2NSm6K9uaB4AcAUBBybtfITBbWaY/UFlbtG9t5kSF8AAAoKaZW+fBY3aT/T3/0hTexLxA73/5kLMKkP1rwq0eDFF/D9V7wh1/U8idAxujOY+1Y8NubB4IfAEDBi4G37dx02hVZ2Xr2vqjJjgsP0q4IAABAOlid9n3/n3716Fnd2Oov/+G6pvPdTvusJv2yalKP+gcVQ/1Ik37DuNrpgM1m+x19UTz4ZZyuPNaOBL+7eSD4AQAC9lye9Tyxp262/eTF61X7xkRlJuYW060JAABAWljD8m09Pvm9fxx3SX13WD7VdZomxWWL6Pph3/dapdKatG2e73TaF67HnNWRvLuFX9SsJGSPbjxWW0uLFPzO5oHgBwBoMjr73NPYw7efpl2X5tDDxpO30q4I2BGNBHf9AAC9xqpVfvnr37y75wuX2heHRIZUaguQQRD8AABNjozPCcG/9ez9tCtSR4jJ1QeuHp98nHZFwMLU/EvRVMRG1EYAgJ7i0ipC0r//6TXr3H4m1b4Ua43ZeegvCH4AgICJucUsuOvzEDXJTmVAY8eFB+L1ufnU3bQrAgBQZEK0ypdLyx9/Xvvgsxvv7R8V24fHboifNkt+gFKD4AcAAGibmYUlbwHI6OzztOsCAFBY4mgVAAgBwQ8AANAJ3iQ/cRMBAHoHgh8gIQh+ACg7R8bn0q4C5JKZhaXz08/SrgUAQJFB8AMkBMEPAKXm4Ngj0QluGr6TdkUCNp68tefyLKv3AQAAEPwACUHwA0B5mZhb9JZhZ8cZ/pmpeVGf9Ucn0q4IAABA+iD4ARKC4AeAkrL4annDiZuiB8xIHD6PzafuiioR4B0AAGAFwQ+QGAQ/AJSU89PPRPe37vB4doznPcfvYhM7adcF2mB09vnmU3eHbz9NuyIAAEUDwQ+QEAQ/AJSXkdpCpmKqHZ98LHrkLafvpV0RaI89l2fFg3vn2GTaFQEAKBqmVpFTxEvc++kHSfX239p75e39Y+qJ1crA4FBtZaU2NOjt2Glli0u7+TvFXu1+XT2PRDxoW/ZKtflD3Nfgh/ezjldcl296m/WMgV5BBD8AQIaYmFsUW9q1gPZYfLW8/uiEeJsyyQ8A0F00rSL2B8/e91PEzpMXr1dayt/P9mr5zdMXr+2CP4KsCv4sXj3XqLdOqO7mr7r+HqhUKor69/b9U4LcmQTBDwAA0G2E1GeSHwCg62haZWr+pZeoZXuiyvul5TdGHgQ/yCi3zlDw1UDwS7tBNikxeyD4AaDcjM4+z86ifSgSQu2vPXTd+xgFAICuYNUq1pRdIzP+/pqD1wz3t74KUneGFGtt9WjLrLsx6dtAUn7Ns4YcklsWXfLMsFqQnlDPWakMDljUpFRg9NVhJfRBt2z0mzfenLEPBL1yzE+2zPFbn7i1jWlPPfzJWktor00i+AGgRMwsLK0+cHXDiZueBSBAFxFSn7EkAIDuEin4vbn97RcemHnURKvgl4S2YrYtL+iW9Fi14stFaSggtuDXp4XtJTsUvFLtqKvDSrwH7efURliiBL/9FKvgNy7tbAbWJxtV+RhtEsEPACVi48lbosvbfOpu2hXROTI+d376Wdq1AAAAyBbhgt9buu/yn+JYw2/u6ImDg9ap1NZ8qi4BYwt+TYqZJYeZ6EuFRF8dVuI86ASC32oUEHkVWzOIeLLOEuK3SQQ/AJSF3Zceiv5u7aHrWQt6t/hqefWBq6JuI7WFtOsCAACQIcIFv++c30Neya+58WtH8DcUvy8AFe/trZTOBL9fnm9IHjZL7CgQwR+X7gh++xr+Nmb4o5pBh4K/jTaJ4AeAUuAZ84v+7szUfNp10TkyPoe/NwAAABNNq2y/8ECOw+fv+9k8H/5yoL4Wbczwix3FZlq3m49jVC9pMqOAljqzlhwl+DHpj0t8wR+2hl96kupie/3GW5+4U/CvKM0g3KTfMSwVu00i+AGgLIzUFnZfeph2LSxsOHFTdMSGeyHIK7tGZtYfnWA9PwBAcuJoFY2p+ZcHxh4Zye0JfkU3yRbUwWrqKLd5rTyNGG++wLc7WmvDpD/m1SFqmr15FxuPIsxLf5BVSjIn+FdsT9x6ab0ZhD9Zx5BBO20SwQ8AkCbeBMWqfWPow8Kw+dRd2V80AAB0TAeCH6BtLDP2XcvdYX26F/cPwQ8AkCZC5x8Zn2N6v0j4gzhZ8xYBAJA7ciL4g0lbbSY4MwVCBPEldmA93zNMk/0kIPgBoMgIxcXMOfQfb5J/hxEmCgAA2iIngh8gOaaZfndA8ANAkdl48taGEzcn5hbTrgiUC2+Sf9u56bQrAgCQbxD8AAlB8ANAYfHi8K0+cHVq/mXadYHSgT0/AEByEPwACUHwA0AxmZhbXLVvTHRww7efpl0XO0IQogkBAABCQPADJATBDwDF5J1jk6J323r2ftoVcbLt3LSo4fHJx2lXBAAAIKMg+AESguAHgGIyUlvYfOpuZj32iYp5BghM8peBJy9ep10FAIBcguAHSAiCHwAgBfZcnhWd7+ZTd9OuCPSW0dnn7xyb5EEDAHQGgh8gIQh+AIAU8FYcZNa/AHSLmYUlz5RDKP+06wIAkD8Q/AAJQfADAPSbxVfLOy/WhOZPuyLQD3ZceCBetJuG76RdEQCA/GFqFTnFi4Hqbd64qrf/1t4rb+8fU0+sVgYGh2pesPPGjp1Wtri0m78vRPyNHZeQyT82j7T5gOrZK9XmD/EQgh/ezzpecdYnhOAHgEKxa2RGbGnXAiDAn+THoAMAoF00rSL2B8/e91PEjuckxVP+frZXy2+evnhtF/wRdEvw918b9+GKCP7+oN5nIfebv+rCf6BSqSjq39v3Twly+yD4AaA4PGm83YW4SrsiAAo7LjzYePLWSG0h7YoAAOQMTatMzb/0ErVsT1R5v7T8xsiD4M/FJWBFu8+Ggq8Ggl/aDbJJiR4IfgAoDhNzi6JHW390Iu2KAAAAQBewahVrim/fJ/bXHLy25/KsmsUXUerOkGIRrR5tmU43JlYbSOqqedaQTQO3zKybZ9TLrFQG/R9qYdZq6Jc0ztLyWK5olCTLRPOK5p+gl+D4Y6EDQhqh9ijNGftA0CvH/GTjDAQ/ABSHM1PzokfbePJW2hUBAACALhAp+L25/e0XHph51ESr4Jf1tGwaLS+alqRvteJLMmkoIHKGv57fyBRaDWOS1jjLXAWuXTEoPFCHYX+460Jx/lholziN0M+pPaAowW+cguAHgOJwcOyR6NG2nr2fdkWcDN9+uu7wuKhn2hUBAADIAeGC31u67/KQ4ljDb+7oiYOylpZmyJuTrrrMiiP4pTzBDK67Gqa21s5S3Li5r6hmawlBd93M0mL9sdAu0Y0wgeDXp/gR/ABQHM5PP9s1MiP+m3ZFnGwaviP6XMPOEErE1PzLxVfLadcCACAfhAt+LeipvJJfc+PXjuBvKH5fZJnSOongD0rzS3HKb2+ooWnWrZ2F4M833RH89jX8zPADAKSFUHqeT8GZhaW06wLpsPNijREfAID4aFpleyPQqR+Hz9/3s3k+/OVAfS3amOEXO4odv27I3oFJv+EiQDGwd8rvpoqznNWZSb/VYjy8/pj094L4gj9sDb/9mbKGHwAgLTyxt+X0vbQrAqkhpL5oA2sPXWeSHwAgDnG0isbU/MsDlqVz7Ql+Rd7KVv2qD70QP3bNLJoLvcADXqUSMsOv++gzz1oxM9mvGFTeKvJjWCjE+GOhTcIbofwoQ730B1kthhw+CH4AgD6xozEvkeUVB9AH3jk2ySQ/AEBMOhD8AIXCnONvMzeCHwCgf2DMD8O3nzLJDwAQk5wI/mCyXZttzQl5r3/BsXhscGCNuoDgB4DisGtkholTyD6bhu+IhorgBwCIJCeCHyC7IPgBoCB4LvHWH51IuyIAAADQHRD8AAlB8ANAQTg//Ux0ZxtP3kq7IgAAANAdEPwACUHwA0BBODI+J7qzrWfvp10RncVXy1tO3zs++TjtigAAAOQMBD9AQhD8AFAQdl96KLqznRczFy7GG4nA9ABMFl8tE7UBACAEBD9AQhD8AFAQJuYWd43MZFA+bThxU/SzzPCDxpMXr9ceur5q3xixGwAAXCD4ARKC4AcA6CGjs8+JwQYuNp+6K5rHjgsP0q4IAEBGQfADJATBDwDQQzK70ACygDcetGrf2MTcYtp1AQDIIgh+gIQg+AEAestIbQGbbXDhTfKL/6ZdEQCALGJqFTnFGzb1NrHvH31r75W3949laKSgNjQ4MDiUaPC/WvFKiCiqla29mkSdlUfavOf17JVq84e4H8EP72cdr7gu36wutA0NvYIIfgAAgNQQX6hbz96fmn+ZdkUAALKIplXE/uDZ+36K2Hny4vVKS/n72V4tv3n64rUqcvqvabt7xZildXbRIgr+CNQ/Waju5q+6/h6oVCqK+vf2/VOC3JkEwQ8ARWRmYUmopj2XZ9OuCAAAAHQNTat4w6Omenmiyvul5TdGHgR/18/KNcqfbCj4aiD4pd0gm5SYPRD8AFBEzk8/I/QdAABAwbBqFWvKrpEZf3/NwWvaHEDTJnvAs9SuK6JKZdD/IR1aaeqlIcWKuznxK+UyztLyVM0rGiXJmtK8ooZfgrqjnyUfHbCJUktNGqUUT/CH3Cjt6Zgz9oGgV475yZY5fllmhz8jrS2FPxFH29DbY9jTRPADQBE4PvlY9GVbTt9LuyIBB8ce4YkNAAAgCZGC35vb326EOzESNT1mClybVPbXcjtndGUz7wFjltiqACUpGXJF54VC69k8qixID/kzffXqHGfIMXFulJ9Tu1tRgt9+iv1xR7Wl8CcSVflqxR/CcD1NBD8AFIE9l2cz5Qx/ZmFp1b66uyDc9UF8zk8/G6ktpF0LAIAMES74vaX7w7efus6Vfln1WOvXgMspm+wqT1VR2lkWie0qJ8jWkn7uullKM3f0xMEwL3BSTRQhW2zB75h771zwW40CIq9ibUvhT8RZQoCoUujTRPADQBEQUl/0ZdlZw+9F48P1OsTHG7R659hk2hUBAMgQ4YLfd87vIa/k19z4OUV1oMB9zeSU357OatqAa2dlSPA3FL9zhTmCvz3Bb1/D38YMf1Rb6lDwq1dH8ANA4ZmYWzw49kh+66fL2kPXQ+YcAExmFpZWH7hKswEAkNG0yvYLD+Q4fP6+n83z4S8H6mvhkF4Wk/ww+d0UVpazOjPpt5qXJ53hlysYWk55TPrDpXjYGn77Y7Ks4ZdUeLUSZi0indCyxg836XcM6+iNDZN+AIB+IQSb6FjXHR5PuyKQM5jkBwDQiKNVNKbmXx4Ye2SmN23wNRd6ga+zSiVkhj8w4JdUlXLWipnJfsXAHtsqBbsj+N0qXh3sKI/TPuP2Sk8n1Et/kNVim6FfsJmvEnZpSzMJeSIhlinW1mZ5mgh+AIAu8+TF64Njj46Mz6VdEcgZi6+WPduQM1PzadcFACATdCD4AdrGMmPftdwd1qd7cf8Q/AAAAFnh+ORjTPoBAHzKKviDWWBtajmlcopPfIktrcroFabJfhIQ/AAAAAAAkEXKKvihhJhm+t0BwQ8AuWd09vnGk7cO2hbsAQAAQH5B8AMkBMEPALnn+OTjjMTAm5p/+eTF67RrAQAAUBAQ/AAJQfADQO7xfJtvOzeddkVWNg3fWfU/23ufWDmOO8/zedUHG9ACNjgYNPakwxowdjBAD6xDjw0BXsxhWoAMNNAGbPFSOiywA1/Yhz00PDPQYTG7hxyYlEWIVFt22xYBN8aex/WsxzM6DJrADKReq/jn9ZNouS01TZnzaJDdTVIyafKJj7VZlZWR8ecXkVmVVZUR8T4fBMisyMjIX2VE1Pt9fxGZ+eLOX/zqw6ENgeS5/pv9skv/9qODoQ0BABgSBD9ATxD8AJA8fzx7K+///dNfD2vGlTsPSjM++dJfIdKgP7//539ddqfjF24MbQgAwJAg+AF6guAHgOT5yk9+Wf6QDf4avCruUP47rBmQB2ffvV12p9/907eIHwHAYQbBD9ATBD8AJM/FG/dKdXTlzoMBbVBvUC+NGdAMyInfO/MOk/wAcMhB8AP0BMEPALACbt1/+C/+y6/+4Ox7QxsC+VBN8n/muz8b2hAAgMFA8AP0BMEPAAAQKad2bvLeBwA4zKxO8I+LrdH2XvWy89lGuNii1QLYLNk3pj20GM835sw+q1q1j9NPM6oziadE8AMAAAAAQIy4WuUTL+6UOUdO7+oFPnbikirwqVO7ZU5ZzKypo/pC8MOqWKpvlCq/Pqg8XhP6k3kEoCia7L3t7bF1Lu34GgQ/AAAAAADEiKVVKrWvkiogfjRFDoIfNswyfUPX6+NCPNyJA1jHOfsR/ACQNm/s/eYLP/jF4O/kAwAAgJVjaRVL2FcbapdbXkOpL3Nju9BXRJt766XTzdLqZmZ1ND9q2yPqdLGnz76aFdkZ05JFMZ3G7XPRoD/1svoZdQOq9fP1vqa9pI4yO2ysukrTG/yV6Hq/qc3sYaLgH+vT/tYcP4IfANLm1M7NYV+Gd/zCjc9892dn3709lAFwGCj7OVEtADiEuILf2i7/feLbl8u0lODXhLYmubf39jS9p0n3+ZRrU3qmyToLflupyTWzYCAKtMZyFLbRher2ch8OMetgTUFLpYuV+MS8XrFQxixhF0DwA0DaPP/G9fJXbEAtVKr90gAEP6yPizfulX3s4y/uXP/N/tC2AABsFHGG31rDr3apAn95/W6Zfvpr/UW5nhl+exJ+ujHSlZv25LT5rKwxg+pbti1VboUH3Jq5QSAilGzWVtY3s/NOF9oz1gTUpd0OFqxEFvxhPe8GGuwpfgQ/AKTNc69dLX/F/uztvxvk7H/xqw/Ls//un771248OBjEADglVPx9wJQsAwCB0WdJfpd954dKk0z38rYJ/pviVpHKF3NKCX9VXqfsWiQgDU7Vz09pNe6m8xQV/uBK/4Dcf06/3TrfDMMMPAHnxhR/8ovwVK4X3IGf/yk9+WZ79T/4bf5xhvVz/zf7HZ4+qunjjXntpAIBc8C3p/9F7dyzB/9bf3i8/PnzU5Hy4r8fiF5jhLzesCVl3qXbbkn5N/zkV1CpNrBnBHw3TdiqKkXNvRzOnrreXuKRfuq2jpRKnA9gVh242EOtA8ANA2mz/4tYfbL/7yzsPBjn7H/6Hvyl/Q68MdHY4VPzxuWvD3r0CALB5umiVbiwm+A0tr6+9b+75Dz+0T1u5PX2PmvzMN6dmBH9UVK/BGxsfp61eFMLk/MRp4OCDGz2VmE/bt7qLqsp55qP+bD+e0g8AOfEXv/rw9868c/zCjT84+95Qi+q5rRo2Q9nTmN4HgMPG6gQ/QAqIi/T7HY/gB4BUKXX+F37wi1v3H05mzzD/F//lV0NbBLB2/vA//E3Z1c++e5vHRgDAYSARwd9MxgozsgCLIDwNoDPC2wAQ/ACQIqXU+cpPfmk9wKz8ePzCjaFMAtgAF2/c+8x3f3Zq52Yp+z/+4s4fnH2v7PM/+7vfDm0XAMC6SETwA8QLgh8A0uMLP/hFqXnc/FL//KcrdzZgwIlvvfoP/49vf/Jf/uB/+bf/GbkFG+P5N66XSX0se/sfn7v2me/+7PfOvDOgVQAA6wPBD9ATBD8ApMefvf13z7121c2/df/h7//5X69bgZdqf+tf/8etf/LPt/7nJ7f+8f/6u//2HJofNsMXfvAL94UUF2/cQ/ADQK4g+AF6guAHgCTxTeZ//52/X7f4+dSxl6dqv+bxf/RPf//P/3qtZwSYzOJZn3zpr9x8a9ofACAnEPwAPUHwA0CSXP/N/me++7PqiX0Vv/3o4E/+294GZvgf+zd/sfU/HlGC/+Mf/zi+CGyA77/z91/5yS/dfHHaHwAgDxD8AD1B8ANAqvzZ23/3zP/zXrX9xt5vfu/MO5t5RfmR//M/Thfz13xx9L8/8a23N3BeOOQ899rVss9bmb5pfwCAPEDwA/QEwQ8ACXPk9O6Zn/39Zib2Fc/8+59v/av/t5rk/2fP/OE/+3fvnH339mZODYeZz3z3Z1/5yS+tF/L5pv0BAPIAwQ/QEwQ/ACTMz//+t//g9O7/9f9tYmJf50/+63//hy+/Vf56fvKlvyoV14bPDoeTK3ceuC/kE6f9AQCyAcEP0BMEP2RI1a1JJNKwaehfgpxRL+T75Et/df03+0ObAwCwLtw/KHrOxRv31B+dclvtfezEpcdP7iz4l2hcbI2297pkxsfe9mhI48sTFeP5xtZ807RhtsNAs8yyU3301qZONUOdWis6vSDWmQK1GdbNihg50kUM2mZWIJxDuAIB23wXx7LL29xdvDIEPyTG4DqHRCJtDS34B//6JNLhScMOdsgbq4+V26PXrqqccqN6fG+l/FWxjw4e3b7/cMHOGb/gX9SYQQT/aDTSpatPrwbsNDStXNtUz9fZe9vb44kh+M3wx7hotS0snl013vZNp0eow61gjPcKdLMNwQ8wo+7WV0kk0iApBg0wuAQikQ5PGnawQ95YfezKnQdVplXslinv9w8eLd4zEfxLYwj+7fH2SJfb/QS/XJtQjbJBDwY4Z5FtaxPPQpWB2pzSRob/CnSyDcEPMKPu1sPLHhLpcKYYNAC/AyTSBlIMgx3yRuxjYs7zb1xX20dO7R6/cMOuq17mPdrebqRR90wTe0W5ftiWMdds5GhLzesy1mSyJue2C23tt7YkXJCz44WMXzWm4N+zJrv7CX65NmMO3bDBp/dbaguLZ7dSf22CAXualA9dgQ62IfgBZuDok0jDphg0AL8DJNIGUgyDHfKmVfBXc/vHzl1zy5iZU4nYTAFrurFbpg9jXtcs6uY0NWs7fYJfuzndlNNBMxYyflXYgr+DXhWNtz6Ga5sHNrS4SS343dBHS236/fXipfYKfmFDV/fC4eEr0P0CIvjhcIOjTyINm2LQAPwOkEgbSDEMdsibsOCvbt33vRzXOHBPWi/dPdOlEYmeed22nFqh+mf4Q5muNYsYv2Jcwa/yViL4fbXNNX19GcUZ/i61dZnh9xewausxw9/BNgQ/wAwcfRJp2BSDBuB3gETaQIphsEPehAX/Vv1w/gr9Tn7rMX4rFvyNqKtLI/jtM1bftovgN+V0c5Vaa9OLizZMPFfPqq1NPPvu4ZdrW/Yefm9trRcnUPMUBD9kCI5+z/SJFy91eETT1b+5c2VwU0lxphg0AL8DJNIGUgyDHfLG6mPHzl1Troj+Tj5VrHqGvyqg1bTSJf3CQv4llvQ7D5kbF87688ligj+WJf0TZcFWu+DXvrdxjfy1jbd1eVxlFfqlFQR2wLaweNYskgs439Q4YlyE3kHYXluni+OteQqCHzIER79P6qL2ucKkcIpBA9BLl06E/EjdUwyDHfJmiT525c6Dl3ZuCjvG6hl42tPsumcaqNvDi8JYre0+kM/30D5TA84LFcEZ/rpg+KF97cavHN/suht08IlS7WGG/hUKVlDGvLKN4J+Y+7Xr0qE29xGJssFt39Q1MHQFwrX5Lk7AZqM6BD9kCI5+f+8tccH/42Lrj7b31lee1JJi0ADR99JIU/Ihv72XRwznDaYYBjvkzVr6mPdB7gAZguCHDInaGY0+lZfuf3vjppXczLivMIJ/4BSDBuB3oE/bpSD49WHLEB4sxTDYIW/W0cesNdYdj9AYPFgQmz0QNQh+yJA4nNFUk0/wP/tffx0U/KLzPdZePzvbNZ18q/jauC5ZFH9Uf7RS4PA6pzrX9tfq9UvjWY4q9OOyjLac7sdSzVZ556SkpXrR4BqA34Gl2y6RkB+CP4oUw2CHvFldH9PWRaOQ4TCB4IcMwdHv6b0t5e5Lzvf4a5rGNsuMv6bE+WzDtWQ8ewrL2DxcV/5VVTO5Xp2lPJ0WR3C8fyMM4dTcGGbaTFomxaAB+B1Yuu3iCPmFj9XjdF8zY3bq7G400KhntP2y107SIh1m8MEOeUMfA+gJgh8yBEe/v/e2+IJeyd2fOdauny255k6aFjY1gJkzezaL57xWteOv1adUVlnqQitv2UxaKsXgn/E7sHTbRRHy63SsOMOv/w6I0cC5qt/b/qMt2U7SAimGwQ55Qx8D6AmCHzIER7+n99Yls9v83jTNvOqZhx1W2lZaleBvjhpvjzoIfsvmoZsj0RSDf8bvQJ+2iyPk1/3Y1sCfZtLo5b1J0E7S4h1m2MEOeUMfA+gJgh8yBEe/p/cmZt787ZVgsfHsibez7elkmq2fPbN5gTtvW5f0u6v3JUe/NKby75u7AIJL+m2bh2+RFFMM/hm/A0u3XZfMtYf8Fju2n+C3zjV0E6SVYhjskDf0MYCeIPghQ3D0+6T/4cQl0aVrzWlWzk9vqa0Xyhr365rTdOH5vWn6sfb2WuvwsKNfP6hPfwjf6GvFSC9p1NyUd20mLZ5i8M/4HVi67cTMjYf8Fjq2s+AXl/Tb5xq+FRJKMQx2yJvuy45IJFIgtQy0zYxngFVRd+vhPaFEU7dfjeHtJEWbuvxp4XcgzhRLyK/9WD2up2+HBX9Tc/PQPsJ8PVIMgx3yZnCZRCLlkVoG2mbGM8CqqLv18J4QqXP6sflGWdzutFOXPy38DkSbuvkNw9vZNwm3CZAWTjEMdgAA6AmCHxIjH3+UREozxaAB+B1IKg0Q8psuCmju5yctmWIY7AAA0BMEPyQGjj6JNGyKQQPwO0CSUv1QD1YSrSjFMNgBAKAnCH5IDBx9EmnYFIMG4HeARNpAimGwAwBATxD8kBg4+iTSsCkGDcDvAIm0gRTDYAcAgJ4g+CExcPRJpGFTDBqA3wESaQMphsEOAAA9QfBDYgz+3gsSibQ1tAaobRheEZFIGacYBjsAAPQEwQ+Jgf8BMCwxjMHB4x0k0uFJww52AADoCYIfEgP/A2BYYhiDMdgAkD0MNACADEDwQ2LgfwAMSwxjMAYbALKHgQYAkAEIfkgM/A+AYYlhDMZgA0D2MNAAADIAwQ+Jgf8BMCwxjMEYbADIHgYaAEAGIPghMfA/AIYlhjEYgw0A2cNAAwDIAAQ/JAb+B8CwxDAGY7ABIHsYaAAAGYDgh8Rw/Q895+KNe+pNQuW22vvYiUuPn9wxDhwXW1tbo+09vaq97VGZWYzX/i1gyvRyWy3QVly1zbT5tIaataZq0PLTAvWu2s4OuAbOvoDR88wy9RfUv6OFXVquzTq1L1/MmRODBojBBoDsYaABAGQAgh8Sw/I/yu3Ra1dVTrlx6/7DSa38VbGPDh7dvv8QwZ8UpuAs22b+adZKRVEY6r/aVoc0paNEVtejkRXDqMtM+6oqb4UfRFkeqC1bwU/gL2qI7hk5RPcAAGBzIPghMSz/48qdB1WmVeyWKe/3Dx518Vpw9GPC8EEdBT9uBL+22RTTMuPD43CP9S+pBy/Mr2KLIVnwe2rLRAMQ+MsLontE9wAAYF0g+CExRP9DzHn+jetq+8ip3eMXbhglNEe/8u8VOPqbwnRAt/WJO21Oa9oerk/fCPo9S9hW2YIK0J3awKkneo+YVaYdWO+ZHROowalDPta2zXT8Z5uO3je/m1/wi7XlogEI/OUF0T2iewAAsC4Q/JAYrYK/cvGPnbvmljEyleCvpGUt7HD0N4jugG4183b2DN5E8ujbBL98iCj4nVPbhxqFVTxhq6Px40KFMJxjxVOYG0LkQhcBIcEf3PCVFC+XQQwagMBfahDds20jugcAAJsBwQ+JEXb0qxW8Z9+9/cS33lY38eqpOaZ29HWRz8zeZhEdUF/mooJflA2tZ1Fut7SS1j5TSw2GdpSPlWybf4UVaAChtlw0AIG/1CC6J56C6B4AAKwdBD8kRtjRt57Rpecj+ONjNYJf39Qc5u4aQBbPWmdYTvCbZ+8u+OcHq5xlV/l6a9PKN1UlpgEI/KUG0T3JNqJ7AACwfhD8kBiW/3Hs3DX9cdyuW+9uzKkd/cpb0x03HP1N0V0DhFb5yqo1PFc2LqSHfNteb11H66SfPJdonr/jpJ+yVFsy3Bzq1twq+O3a9OO1ihPTAAT+UoPonmgb0T0AAFg7CH5IjI7+R3fBX29y7+7maXHE5+0ya4/Qc7yaolqWKwG0YrPnfvtP3XQIYcluffvudouK0Of9mjXALbf1KoR5R7l/dhD8dm2aZYYsabCuwpYZn4hBAxD4Sw2ie+6lUJYS3QMAgDWC4IfEWEjwh2b2IC0We/fW+t/UJSy+PSzEMJQI/KUG0T33UswhugcAAGsFwQ+Jsajg1718HJek6S6xjUmy9eBO6h0eYhhKBP5yhuheNDBeAAAyAMEPiYGjD8PhTuQdRmIYSgT+8oboXiQwXgAAMgDBD4nR0f8Qn85dZm7AQoC8iUEDEPiDNUN0bwrjBQAgAxD8kBj4HwDDEsMYJPAHsAFiGOwAANATBD8kBv4HwLDEMAZjsAEgexhoAAAZgOCHxMD/ABiWGMZgDDYAZA8DDQAgAxD8kBjuAl0SibT5FMPvwLA2AGQPAw0AIAMQ/JAY+B8AwxLDGBw83kEiHZ407GAHAICeIPghMfA/AIYlhjEYgw0A2cNAAwDIAAQ/JAb+B8CwxDAGY7ABIHsYaAAAGYDgh8TA/wAYlhjGYAw2AGQPAw0AIAMQ/JAY+B8AwxLDGIzBBoDsYaABAGQAgh8SA/8DYFhiGIMx2ACQPQw0AIAMQPBDYuB/AAxLDGMwYMPd/YPTr+8dPXP5qZMXy1RulB/LzA1bCJABMQx2AADoCYIfEgP/A1bHuNgabe8tfNje9mirGDd1NB+qj1Oaes0czylnhbRq7IJ1JXo9FnZpuTbr/L58v6VxjEGfDW++/8Ezr+x+9utjK5WZ5a7N2wmQNDEMdgAA6AmCHxLD9T8+8eJOmXPk9K5e4GMnLqkCnzq1W+aUxcyalhR7kBFL9YFS7s8Pmgr/raIoDPVfbetC2sppjrcsGY2syEFdbKrf1SHTk5rafqHachb8paR/8vh5JfKffnnni9/cUR/LXW2aP9AfVvJzwW/OIWcVHcD6AViugulPw+zna4b1C6UTw2AHAICeIPghMSz/o1L7KqkC4kfTccH5hmX6gKPXx43g1zbnxdwcs5hhyVivWg8QmMXtBQay4PfUlq3gv7t/YM3tf7qYxvisef7g2v7lBH/3XrSOkpAQS/ei1fUH7WdoPK5z5r8nQiwyhsEOAAA9QfBDYlj+hyXsqw21yy2vaBZEF9uGoJp7VrVkshZL25MiMBhSq2kL3ef7pjuKYrTVeLT6frmVg5W4PnEj3/csiV2M3RynnPEFzGn92aaj983j/YJfrC1fwX/69T1rGb8r+MtUFvPXiuCHtTK84JfWF8khy4oYBjsAAPQEwQ+J4Qp+a7v894lvXy5TWPDbS6Zth2cm+poZVkcUjQv88YEJuam6jlVt5q6F1VrZuhXfW4k7O7+44JcrsfqYJvjtrqbHAEKCP7jhK+nusolBA7g2PPvq5S6C/+iZy3Zdeyris10YncWz3tnYpT1LQYwp+eo3MWNMTp2QNFIHaGnxUB8zx2wdr6yCkfbjPOze2KL33f0xDHYAAOgJgh8SQ5zht9bwq12qwF9ev1umn/76nlaTrme0G60bf8xRao3zhC8eA26r6Z6zo2OFqXKrD+j3zHsqWY3gF5cJWCGFFczwC7XlK/ifOnmxi+Avi5k1NZGe2fj2hfakC2Xv8u116/cRaA5IlHAHEFu8Yx+z4pV6LMGJUjX1ND8m8z9o9tM9jc8xDHYAAOgJgh8So8uS/ir9zguXJlJEoMZwqSsJpQkpfa/+kCNUfkTYrSbcjLq44A9XEhT8+mboHv7QDL8yVOUsew+/tzatfFNVVoL/89+4UKr9e/sPJ62C3w7JqD5ghfY67JpIe8X6XUIxJkgZXwdoCU36+1hrjKClrzp/wsbWM0GNjhfDYAcAgJ4g+CExfEv6f/TeHUvwv/W398uPDx81OR8az+syXeqpn1MUxsRpvdsQRbjhMTFvNWd5u3gXhryk3/GS2ytxhbG+eNvUz6Ki9t/D33wvfWWucbuB1QlbBb9dm3V/gv6cgqQF/9Ez0yX9n3vhfDWxX1JuPP3yTsuSfq/g90RkwmEjd28Xwd8SY4KUaelgPUKTnQS/Pzop5zLDDwCQIQh+SIwV+h/zKRbN07GeAjd7Tpu55lGfM2Gyf3iqF+M5zdPEbtwV7HrriR5zSyWhp/RrZzC6kpsjPqVfq9Ve/Tv23dbdQfDbtWmd2JAiDWot+pZbMA4NID6076s//PnND/fL7S995y1L5/sf2udb0u+LDQV2+fa2LelviTFB0kgdoKXFW/tYN8Ev1KMvMxoLq4S4hx8AIEcQ/JAY6/M/HN2Gww0S0nOvNnn84MSgAcTX8j33/Xe+/L23fVLf+1q+OrLheWhfcN1+84RP93Fr2p3Ubv0GbozJDkdCwggdoK3FQ32su+AX6jFvgHJiiE4sMobBDgAAPUHwQ2Ksy/+wVRiCH7z0eZiDuZAkSWLQAKINb77/wZPHz/vUfrmrLDCItQCxEIo3CvtiGOwAANATBD8kxhr8j2qmo+sNzACHnBg0gM+GUtI/88quOLcfjdo37pVIPvwDqeGLV4qxyBgGOwAA9ATBD4mB/wEwLDGMwYANd/cPTr++9+yrl586ebFMR89cLj8KK/kBoI0YBjsAAPQEwQ+Jgf8BMCwxjMEYbADIHgYaAEAGIPghMfA/AIYlhjEYgw0A2cNAAwDIAAQ/JAb+B8CwxDAGY7ABIHsYaAAAGYDgh8TA/wAYlhjGYAw2AGQPAw0AIAMQ/JAY+B8AwxLDGIzBBoDsYaABAGQAgh8SA/8DYFhiGIMx2ACQPQw0AIAMQPBDYrj+h55z8ca96mOZym2197ETlx4/ubNex2X6duPR9p6VOy6ETJghX7FgcfWaaOud0fWrzavqVnzRF7SzA66Bsy9gvATbLKO9u119Rwu7tFybdWpfvpgzJwYNEIMNANnDQAMAyAAEPySG5X+U26PXrqqccuPW/YeTWvmrYh8dPLp9/+EQjguCf2nMS1eq7vmnqf7eKorCUP/VtjqkKR0lsroejawYRl1mqt9VeSv8IHawQG3ZCv5YAn+94OdiHUhXNRzFWzYWqcJwzcGJxyJjGOwAANATBD8khuV/XLnzoMq0it0y5f3+waOBvBY8+KUxLp2j4MeN4Nc2m2JaZnx41PVY/5J68ML8KvZSB8+6Erm2PAV/9IG/jvBzsQ5WflU9sci97e2xVSD5WGQMgx0AAHqC4IfEEP0PMef5N66r7SOndo9fuGEW0T0bQ1xVzBWVnTEtWRSjLUFNahXWR422t/Hg/Zhqc1ufCtNWrE+vtOslN4J+zxK2VbbgV4st7p564rR6uGXFGoSuFOwV81OY0/qzTUfvm9/NL/jF2jIV/NEH/jqC4F8H6xX8koKv89KPRcYw2AEAoCcIfkiMVsFfufjHzl1zy5iZkvyzXTFDMSkh6nEede3UqE5vcTCvWBNRsefEJpKP3Cb45UNEwe+c2tsNxJZtM17rOf5e4QpvTfDbPUiPAYQEf3DDV1K8XAYxaIAVB/7GKhbT9I9g5M/4aK420WJDWnubsR8zbkh8cL2ITdwhirdkLHKifkEyiEXGMNgBAKAnCH5IjLCjX63gPfvubd+x2ifJx7KkmOap195RYLJIVGhM2QUQ1aYvc1HBLy4KaD2L1A1aWtZbg9FzWnqFORmv97QeM/xCbYdG8C8S+KsbW7gj2hMK9H0cF6ORWt+tJnn1oEETJNJaiPjgWhGbuDWKt3QsstmdQSwyhsEOAAA9QfBDYoQdffWMrgp9Qa91N6/Hx5pSibX5BE3IM7NA8C/KagS/vqld++5edVs3WFLwm2fvLvjnB+uqYal7+L21aeWbqrIS/MsG/kxRtqXNjEqhQOPjXDmpRyfUWWbr1fWbE7P8XKwXsYk7DupFf5qMoFEGscgYBjsAAPQEwQ+JYfkfx85d0x/HrbZVsepRXvrzums0T3xsr9PXZ+dM16yD4GfKrivdverQPfyyag2vhG8a1iv4J0Y36DIZaBnv9pwuS/qVpVvSHLBbc6vgt2uTJ5fzEvzLBv7qHtL0FKMbaTEg62NVrJownS3l1x7khuAfGqmJ1yL4Q48WTTQWGcNgBwCAniD4ITGW8D+u3Hnw0s5NYYeaxJu+400JfPnmxgWW9Gs1c1NukBbXdn4VNUVlHmu+dc5oNsmpnkgtLp7a7gbhlvX45XbPCfcKIdZg63q7a8oHdqhNs8xw9Busq7Blxidi0ACrC/xpARBHDLqL/K1+qOt6fTF/2b+EoIq8noL44LqRmrhrFG+RWKT7m5N+LDKGwQ4AAD1B8ENi4H8cUsRnY62o9JL2RPys7bUSwxhcXeBvKoRmz8+T4nzTPVIMSI4M6rEed4WFHjYx9RvxwfUiNnHHKN4CsUhrsbxZNNVYZAyDHQAAeoLgh8SIxv8w5j+lt/TBiukusY0l8OvBnSY7PMQwBldnA6vooWa5KF7WscgYBjsAAPQEwQ+Jgf8Bw+FOjR1GYhiDCH5YOUtH8TKORcYw2AEAoCcIfkgM/A+AYYlhDCL4YUXkEcVb17eIYbADAEBPEPyQGPgfAMMSwxiMwQaA7GGgAQBkAIIfEgP/A2BYYhiDMdgAkD0MNACADEDwQ2LgfwAMSwxjMAYbALKHgQYAkAEIfkgM/A+AYYlhDMZgA0D2MNAAADIAwQ+Jgf8BMCwxjMEYbADIHgYaAEAGIPghMfA/AIYlhjEYgw0A2cNAAwDIAAQ/JEZc/sf0XUjVO714uVeKLNlq6rXb01dez1C1aG/Hmr8cy8rxnHJWk/E6LbOgOtNW0+Es7NJybdb5ffmhixPDGIzBBoDsYaABAGQAgh8Sw/U/PvHiTplz5PSuXuBjJy6pAp86tVvmlMXWaReCP0WWarVSwVcH7W1vj+16yi3rLdhOjjretmQ00ktqtk31uxFSMLX9QrVlK/j1nIs37lUfy1Ruq72Pnbj0+MmdwY33E9nPiNXXcmXBr6nifVOmY9McZ2ZUjugeAAAMDoIfEsPyPyq1r5IqIH5cp+MSmacOnVim1SS93uSNC3unmyNEBSpLxnrVyjZDX0zsDK/g99SWiQawbCi3R69dVTnlxq37Dye18lfFPjp4dPv+w8GN9xPDz8hqbYjhG/XE/ArNWJ+t3SmKwhiM1bY+eInuAQDAwCD4ITFcR18X9tWG2uWWN2gWW2te2nieWWap/coVamZa5u5VwIWC9WLI4Pryiw1UFKP6s9XkRouHW7muxOfB2/XXhdwcUQXMv4Dp+M82Hb1vHu8X/GJtuWgAy4Yrdx5MtLGvuGXK+/2DR4NbHiSGnxEEv4XxFZyxq0XvtE09BEh0DwAAhgXBD4nhCn5ru/z3iW9fLlOb4DfUUKMWtTWUjccmLNO2PKcM/NrUkD1tldE0pK69HWddb/FAK+vKWfTf3Un8gEstLvz39CghOqCLgJDg79BRU9UAog1izvNvXFfbR07tHr9wwyzSMehjhYqMj2ZP1LqbHQUyijVxqD119m3vz4gYndw2FpBL5dSJzElgPSJkfHdt8bj1xAnPt5Bs0K+tOmZbitDJF9/5suvGHAXGN7IuiDsam8bfs0S3an2iewAAMCgIfkgMcYbfWsNf/vvEt962dpXpf/rTt5qKNP9V8G592437h+AfHG0BrSDUnHYRnOlFW1k/6URVKjZ80KcWZYMVUliBBhBqy0UDtAr+am7/2LlrbhkzUwv6CI2pLR3RG8H3seyJI/WEh5FSjFrQQAwh6etD2nqTHp1U2l+rwA1puVPN9ab43cVB4f0Wjg0hyxc2QLgfZh0YX9P5Rq2huqDgJ7oHAABDg+CHxOiypN+9aV+4h7+7/BOkl/LLEPxDUjWDeVOtr4E6t3i4EsN9F5f3T9xyTk5AAyhDVc6yq3y9tVnzwa6qCdQ8JQYNEBb81a37Z9+97TtW+2R8TUOm6UEfS4u7H+cqXC2urrP27Int5l4SIfjjueYdo5PtPdwKkInfvb3mUEmbxQ0Qvuy6EX/GfZmLCn6iewAAMDAIfkgM35L+H713J/DQPvdAc5JN5QQFvyHBEPwRMHWGi2LkTIDJ05Xi/OdCrTwx/G/X+dcNs06l5/hX+WqFt6Q54InTb1sFv12bPLmcmgYIC/6t+uH8Ffqd/NZj/KTgiBj0qXdvGfGerWZRflms0rGzpfzaqxxWJPgXilWJxZwAmfjd1yj4uxkgfIt1sxrBr28GfyaI7gEAwEZB8ENidPQ/Ogh+cyqp05J+da9tKTIR/DFQPSh7bHyUG6hibN6avWgrz89hltMngsf2rd9CjhgpsPuPvbp7bN5K7D+wQ22a4YbU9H6XLTM0FoMGsGw4du6aCvPp7+RTxapn+KsCWk1aAMTVvE7gxorV6J1BX8xfFGot+thcDC+uEu+ypL9LdDIc0lIBMuPU9nf3it7Wb9Eu+DsbsOEf0+6CP3QPv3xliO4BAMDQIPghMRYS/KEl/QDLEVrIv4njByeGobSEDVfuPHhp56aTPZU6s8fa6cEUJ+jjRoq23CM0jSdoMD1sYuqrurZuD+1rjU76Qlr1bvPRec53r6vwPrQvHBUVrq8dAGszwPmy6yYs+I2v4IxeM3pXX36iewAAEA8IfkiMRQW/tc5//QZC/vRZdGwKniSJYSitzobDtTbHkaeb/u6DG9CXxeJ1RPcAAGB4EPyQGMzwAwxLDEMpa8FvTLeuMj5ky8+Vf/c2y9duwCboHu8jugcAADGA4IfE6Oh/iK/lKzM3YCFA3sSgAbIW/OugWtrd9c7tHA2AZYhhsAMAQE8Q/JAY+B8AwxLDGIzBBoDsYaABAGQAgh8SA/8DYFhiGIMx2ACQPQw0AIAMQPBDYuB/AAxLDGMwBhsAsoeBBgCQAQh+SAz8D4BhiWEMxmADQPYw0AAAMgDBD4mB/wEwLDGMwRhsAMgeBhoAQAYg+CEx8D8AhiWGMRiw4e7+wenX946eufzUyYtlKjfKj2Xmhi0EyIAYBjsAAPQEwQ+J4fofes7FG/fUS/jKbbX3sROXHj+5s3rHZfqqqeq1Uit6v1RTYf1O6/KTnrl0bZsjiVdtSUaGL9eCF1O9rFu9mrw5uM5aaddZ0s4O2AbGoAF8Nrz5/gfPvLL72a+PrVRmlrs2bydA0sQw2AEAoCcIfkgMy/8ot0evXVU55cat+w8ntfJXxT46eHT7/sN1Oi4rV7lTUTgTjINbkpwBXVhHe2kVlqq7+rS3vT22CpQbVcOqHFU6TpIR/KWkf/L4eSXyn35554vf3FEfy11Da/4khkZarOKS9o6R1dG96f8V1gg3mQX8jB93s6CKEWoxQQu7tFybdX5fvt/SOAY7AAD0BMEPiWH5H1fuPKgyrWK3THm/f/BozV7LmgXkkJYkZ0AX1ttekoKv85Te14tpmfGRhuC/u39gze1/utgp8615/jWs7e/el9ZR8pATuFDha7i6K6wN4/G4zpmPZzGWNz31aKSPeM2YqX5Xh1ihCNHmQG0IfgAAmILgh8QQ/Q8x5/k3rqvtI6d2j1+4YdclzseM55llltqvXKFmpmXuXgVcqInu9xllpfMWxWj2sSrUnKfWiIYLaB2sfdamguYf6wOb45RJs73bxvJyCfuMUlVN5qxG96SxyVmjrTVf27Zc+zpmWxvXzbrsPi/f2ad0vnCE3uiBU0+cq9zhW7iN7raU2KAzYtAArg2nX9+zlvG7gr9MZbFV24LgH5DhBb802rUAnhDLq398jB+C5m+DUdzI8Ap+T20IfgAAmILgh8RoFfzV3P6xc9fcMmamManSyDZtDWUz+2q7bK7n5F+8aTt+8nkdzSnqvcDa0/CB2ncwnjughw1ETe6e0VuVkq7CzenzbxoPWgMLD2IIfx3xulmXXfTxneX7TUH3EG872qe2D239FkHjtT7pHDsnBg3g2vDsq5e7CP6jZy47lQkRkzoAJ4RCgiG2xUInipY6wUK6pIu0iy8w2h7zddq3Re8HYnnmtP5s09H75vF+wS/WhuAHAIAZCH5IjLDgr27dP/vu7Se+9bZ6ep+emmO0aWrH7Zt4t62p91bB37h+teTtel4pU3AHAyZ5DxRCDz773TOKVdkqVp3U+qbxYHxf+4KIX6c9pOIT/EbQxCP4XVmwUK/QG6/jt7BrMFpKPnZODBrAteGpkxe7CP6ymFmTHNJytJMbtAr3h06hE4fW3xOYtF3S7u3iCaiFYr5iPc46JzsA1zleLEQH9B/ckOBv+6UK5PtqnhLDYAcAgJ4g+CExwoLfeji/ni8J/i5zqhPDG7Nnddod9Kpo48h1PW83wR8yyXvgBgV/XCpfQ/+++gP1Vy74HRd+LN3DH1IFraeuv8PWQt9i0tKvUhb8n//GhVLt39ufPr+zRfCHx6MYtAqE2BYMnRjn9IbtwMR3SRdql8XGVyCI6Y5cM2QUjuXNjw78Znad4RdqQ/ADAMAMBD8khuV/HDt3TX8Pnzuf727UGE5ZnRP09lSevAjc46BPHbaiGOn3YXY5r5jpzEaGTLJq09fhi6vQRftbl/Tbq8Ot1eOxqhbNNuGC+L5OR8EfFPLi9Q/P7DXGhppMeypgl29hf19fK6eypP/omemS/s+9cL6a2C8pN55+eadlSX+74F8kxLZg6KRTnWDREl7s1i7LC363HiGsOQ7dxO9GG43f8WXu4ffWppWXf/kDNU+JYbADAEBPEPyQGB39jw6C35yu6bSkX905Wgr4zoK/Ospe4t1nrkmfbnRNqktYNTcnDX9HF+uMYlVNKc9D+2Jc0j+7T1s3TZgt9D60z7lu2mVvHG1rRtAsKiy6sG2clytCp7bbp+O3mHi6hz2PndBD+776w5/f/HC/3P7Sd96ydL7/oX1iSMsYbguG2BYInXSrEyykS7pMuywu+IV69OjeWFDm/nv4mwr031ItoOqcrlXw27Xpx2sVI/gBAA4XCH5IjIUEf2hJP0AXlrsxQXqS16pKL8NKb6+IYSiJr+V77vvvfPl7b/ukvv+1fFbIRFRQanc4xLZY6MQ+h69OsBAu6cLtIgVGWwW/UI95u5YT3hRiecLaHDF46rR/B8Fv16bZZCyLsKKQbs6cGAY7AAD0BMEPibGo4Nen99fvuBhuU4Leeur2r56lb0voLrGNKb31sNqbK2LQAKINb77/wZPHz/vUfrmrLDCItZAzoXjd+mN5ayaGwQ4AAD1B8ENiMMMP6yfeWxEWYV3fIoah5LOhlPTPvLIrzu1Ho/YJq+WGL7q3gVjeuolhsAMAQE8Q/JAYHf0P8bV8ZeYGLATImxg0QMCGu/sHp1/fe/bVy0+dvFimo2culx+llfwA0EIMgx0AAHqC4IfEwP8AGJYYxmAMNgBkDwMNACADEPyQGPgfAMMSwxiMwQaA7GGgAQBkAIIfEgP/A2BYYhiDMdgAkD0MNACADEDwQ2LgfwAMSwxjMAYbALKHgQYAkAEIfkgM/A+AYYlhDMZgA0D2MNAAADIAwQ+Jgf8BMCwxjMEYbADIHgYaAEAGIPghMVz/Q8+5eOOeeglfua32Pnbi0uMnd1bvuEzfvzza3pvM3rhcbayB5iwDIRuwzq8MC7FgDzFeG+6+K1zLEds4Bg0Qgw0A2cNAAwDIAAQ/JIblf5Tbo9euqpxy49b9h5Na+atiHx08un3/4Todl/7qd1X6eWM6HMGfCmZLlXJ//mkq/LeKomgEv5hjt3IMGmB1NtCNQbFkZzAiaFr8zVPdNKJmBtnMgrP9FSqcbGGXlmuzzu/LD33xGAY7AAD0BMEPiWH5H1fuPKgyrWK3THm/f/BozV4Lgh+ixWgpR8GPC2uG38px9segAVwbPvHidAnPkdO7eoGPnbikCnzq1G6ZUxYza6Ibg2KpzmCPqJkCb2Jq8tqo0cgaY3Wx6dHqEGvpjmheoDYEPwAATEHwQ2KI/oeY8/wb19X2kVO7xy/csOuaTWfOqJylmdMznmeWWWq/coWamRZ7ybPfU2zOonwy40T1VJBdSMM8y3bhTPLoJVU928a007wO99TipfAZ0JSc2YFSioRAD7G6lqtA2gS/c0QMGsCyoVL7KqkC4kfTeAQ/KJbpDNb4KD9Of3r1vxn2b2r9I9wcps5rrRVwb7/x3Fol14bgBwCAKQh+SIxWwV/N7R87d80tY2YakyqNNNLWUM53uzc5C56Tz2HSDjZu+N/SHLzWpwDoZ9GiE63iXPM16822U88vRciAqsqZ8EcpRUK4h+hdq03eCzl2gRg0gHtrjy7sJ9pvgpXv0FwcOZznxteEmJd1hX0VeuJlLeE26IQU35TbtChGxs9Ys1+OhwYrMfX+VO6becIcvx583dNzXL1vHu8X/GJtCH4AAJiB4IfECAv+6tb9s+/e9h3bfNAm3mtPTvbanfWWuv/fJvj3bC+0cSv3Qpkm4lkCIQZX3SkdL51auBSeOvfEeSQYnHAP6Sn4bckSgwZwBb+1Xf77xLcvl6m74HdyfNETN+YVHpjheFlruA26IcQ39X1NE+iBFuf2li2nrcKVjIUHXti/k53jxUJ0QP8TEhL8HcLQCH4AgEMKgh8SIyz41cP5K/Q7+a3H+ElzKW2CvzlE+WX9Bb8qsQ7BPzdUcyOlUwuXwlMngj9S1ir4k5nht9bwq12qwF9ev1umn/76nlZTl3DepG0IdIsPise2h9ugI258M9im3f8EtHSMZgnXPNdoaPEmGitcsIIZfqE2BD8AAMxA8ENiWP7HsXPX9PfwuX5/9Qx/VUCrSZ+lUTlBwa/yhMXwAfmtL+lvJgkb11BYd+1WsqTgn7mLRWG4jOKpw9o9PEUJg9Nd8Od5D7+4pL9Kv/PCpYkUEajpEs4zi3UU/G6FXsGPyl8Ndnwz3KYdBX97x2h+RQ3mRQIz/MoI40/LMvfwe2sz/xZ4/9Yg+AEAcgbBD4mxhP9x5c6Dl3ZuCjv0ubVOS/rVDbhKQrcKfv0sRoWzW0CNKb25w9j60L4WwW/XYy5NlU/tXAqfAY1by0P7YqKlh+hdIsun9KvtH713xxL8b/3t/fLjw0dNzof7B1pNXcJ5E/MKuzEvTZap6Jlcobikn4G0IubxTWcJvNym4pL+heK8E/k5/N3u4W8K638djN9rq2+0Cn67tnEhVozgBwA4XCD4ITGy8D82uhjeUW+Ii8ON+KawRUrHMAZXZ0OXcJ65Lca81PxuUfgr9BzbEm6D7swupRvIlNt0ok/LO/dVdewYnvvu3RUADfaPsL1aSlsr4HkSQffatL5lrC6xFiK4OXNiGOwAANATBD8kRtz+h7Wq0+e8h1V3x0q6FRbeEd2q9hYyANKj+ypyc3nInBjGYAw29FqNz0r+bAhF0BaLrkVIFAMNAAD6geCHxMjC/9jMNHs1t9N16SZAR2IYgzHY0GctPuv4c8IXvRHjZWkRw0ADAICeIPghMfA/AIYlhjE4nA191t+zdh8SI4bBDgAAPUHwQ2LgfwAMSwxjMAYbALKHgQYAkAEIfkgM/A+AYYlhDMZgA0D2MNAAADIAwQ+Jgf8BMCwxjMEYbADIHgYaAEAGIPghMfA/AIYlhjEYgw0A2cNAAwDIAAQ/JAb+B8CwxDAGY7ABIHsYaAAAGYDgh8TA/wAYlhjGYMCGu/sHp1/fO3rm8lMnL5ap3Cg/lpkbthAgA2IY7AAA0BMEPySG63/oORdv3Ks+lqncVnsfO3Hp8ZM7q3dcpq/Zqt6mPdT77Yc6L8RE0w87F1dvhXPfFa7liN0rBg3gs+HN9z945pXdz359bKUys9y1eTsBkiaGwQ4AAD1B8ENiWP5HuT167arKKTdu3X84qZW/KvbRwaPb9x+u03HJXvATWUgXs+1KuT//NHstfFEUjeAXc+x2j0EDiDaUkv7J4+eVyH/65Z0vfnNHfSx3CZp/wViJh86jYzWng0RZxa9o7y5Ux/tmg31GNdqjje4BAEBPEPyQGJb/ceXOgyrTKnbLlPf7B4/W7LUg+CFajLZzFPy4sGb4rRxnfwwawLXh7v6BNbf/6WKnzLfm+deztp/RAV0I9JNwF1pdB2vG/3g8rnPmIzzS6B4AAPQEwQ+JIfofYs7zb1xX20dO7R6/cMOuS5zhGM8zyyy1XzlB08XO+hGNH+ZzyKb5RTGaH2Cf0f4sm7RdWGaoYrN9PkcwULlScLrZ5ncxTtp8b1sbQhR0bzvXp28T/M4RMWgA14bTr+9Zy/hdwV+mstgazEHwQxeGF/yCptfHe5TRPQAA6AmCHxKjVfBXc/vHzl1zy5iZmgs1LhpppHSTEtjuTc6Czg8Ifu001hlt78pjktL+ztZMwovnddd9al9DfvSA/l3EkyJpoqV727XJeyHHLhCDBnBtePbVy10E/9Ezl82a1MVxAmROOXu3EHdrDRoGQjOQKVJ81uxOTkTV6IzW3nHnziaGmEN6P87oHgAA9ATBD4kRFvzVrftn373tO7b5oE13O47UxLvduF7dBX+d757R0usdTTJ8Ms95jceyCTm1j+ef4Q9lQmx0b7slBL8tAmLQAK4NT5282EXwl8XMmuqL414GGSO24sTdWoOG4dAM5Ec4PhseuXrk1xOZ7dTZ9Hqanjb/g2MHnaOL7gEAQE8Q/JAYYcGvHs5fod/Jbz3GT5DErYJfuNdxUcEvuPWV11U/RKmDSQh+sFmr4I9RA4QF/+e/caFU+/f2p8/v7Cr4/atlmoJ6sE8ehq1Bw9aSkBe+n2tv7Lh7MLrLHyy3HudvkL4KLcroHgAA9ATBD4lh+R/Hzl3T38OntlWx6hn++ov6agw3p84J+k/G4t/FBb9wxjm1k9XRpJUs6W8qaB5HgOBPle6CP9t7+I+emS7p/9wL56uJ/ZJy4+mXdzov6Z/SRN8s3GAfgh+6IPaTUOy4ezC6e4Rar0fo3WP/TfwxDHYAAOgJgh8SYwn/48qdBy/t3BR26BMgnZb0q3sxi2KJGX73jGPntuCOJo3Vrb+Bh/Y5tTeVa4eoUtOXsYX8yHlBlh7HSIsG0Nsu16f0n35976s//PnND/fL7S995y1L5/sf2mePXOkuZ1+wT1zSj+AHHamfhGLHk0Uiv62dzapH6931Q/rtWEN80T0AAOgJgh8SA/8DoBeyol2gdAxjUHwt33Pff+fL33vbJ/U9r+XT1u9Y0TcDN9gnxt0Q/OAg9BOhOxkRVTvyq+/tLviFeprxLLy0JdLoHgAA9ATBD4kRt//RiIbNzoYPdV5IEs/TJATG0uPkYhiDog1vvv/Bk8fP+9R+uassMIi1ALEQivdFGt0DAICeIPghMfA/AIYlhjHos6GU9M+8sivO7S+i9omgQbb44n3RRvcAAKAnCH5IDPwPgGGJYQwGbLi7f3D69b1nX7381MmLZTp65nL50VnJDwDtxDDYAQCgJwh+SAz8D4BhiWEMxmADQPYw0AAAMgDBD4mB/wEwLDGMwRhsAMgeBhoAQAYg+CEx8D8AhiWGMRiDDQDZw0ADAMgABD8kBv4HwLDEMAZjsAEgexhoAAAZgOCHxMD/ABiWGMZgDDYAZA8DDQAgAxD8kBj4HwDDEsMYjMEGgOxhoAEAZACCHxLD9T/0nIs37lUfy1Ruq72Pnbj0+Mmd1Tsu0zcaj7b3JrN3GFcbrXQv2fPApU90OGjabi3lrZddq6M9rTJ78bvxEmyzoPZieNXhLOzScm3W+X35Ys6cGDRADDYAZA8DDQAgAxD8kBiW/1Fuj167qnLKjVv3H05q5a+KfXTw6Pb9h+t0XBD8SbC+a2LWXOp74zwzBT7Psfepw0dGiECrcHq0OsQKPIjfKFBbtoJ/XYG/KrKyvpEkB5IYvIPSJ7o37TDmyDPjdKts10Wjlu3YBsYw2AEAoCcIfkgMy/+4cudBlWkVu2XK+/2DR2v2WhD8SbAhwW9p+vJjsa1llWWN6ff68LF+mKrQWivgyguPXJRry1Pwry3wZ6m3jcHgjRlfdG86MreKojCGZ7WtD+eYWxbBDwCQIQh+SAzR/xBznn/juto+cmr3+IUbdl0z92yG5pON55llltqvKzXjiJBe8p3GOIuhEc2q5QPVau6qlHvUnqp5G81g0ayCn14ts+229Yk4U2PPCwbKj82aTZ9+KvfHRp7g89vnaMxz9L55vF/wi7VlKvjXFvgbSngj+GMmFN0z4nnaZlNMiPfFA4IfACBDEPyQGK2Cv3Lxj5275pYxMw011Mg2TVM3/pntoLkyyeegu2surbNY8z/KGPHAMkPXf/JX0EIBaAYLvZmkAIq6foLTHixv16xHber2NObbO/coITrg6QNdastU8KtMN6ct8Df9mkUxmrejEUFr4jj6DK4VIqyPDdTjnMUxYH6didbFwrLRvfmx81aWB70/3td26ok/Cix2HrGGxcLEMQx2AADoCYIfEiPs6FcreM++e9t3bPOhcXrcKd+Jd9uWAG2CX5ielWp2jfEcOBqJfpt2lLCKGxR+x1rIrKVaE/gJlxcEv7HaNzApaPUxvTf2mOEXajs0gn+RwJ+7DkKPoMm/A0r76T8NwXp8o9EIJBGti4Plont2jifKF4j3tZ3aPjTcedqM7xAmjmGwAwBATxD8kBhhR189o6tCX9Br3c3bVYrr280hypFboeA3i8kHmo9iE49C8IfoLvjn11K7oksIfm0y0JhlC3v8VbuqnGXv4ffWppVvqspK8C8Q+JPmSOUgYPcQYUtJC3EpB4N3WJaJ7mnHhgV/MN4XPrWtyMOdp3Nw2d/xYhjsAADQEwQ/JIblfxw7d01/HLfaVsWqR3npz+uucefc2gS/IcG6CX7vynxr2zXGe6C13sApwyRhgAUE/8wPLgphLr21Eum5XN3u4W8K64twm1adOI3eKvjt2uxZaftpFJ5KNGLQACsL/NlC3R+I6R4ibClpgeCPkNUIfn3TDB12nOEX/x7NB7SxpH8xwb9AmDiGwQ4AAD1B8ENiLOF/XLnz4KWdm8IOfa6j05J+daej0oGtgn+iT/Pad136ZgUbDSYeqGl596ixumOT24AF5pfHu8rdaEdDaLeV12r23Hcf0AhO/xFm8qze4TmwQ21apzG/q7kQwc2ZE4MGWGngT2+YcHiue4gwUNLCiPoRrYuDPtE9U+W7K2jCT+Vo+o73d0mrI9x5OgaXQx0vhsEOAAA9QfBDYuB/wMYQhHlHQu/eivy9XO3EMAZXF/gTV0N4luJ3DRG21eMzgGhdLPSJ7pk/G3WbGpFD8dGN83JF6NRWELil83QOLvs7XgyDHQAAeoLgh8SI2/8wJkWHeYE3rIp+wlxY1j3DXDWQJDGMwRhsAJiy2A/F+uN9vp+epWCgAQBkAIIfEgP/A9ZPNQXGFKtMDGMwBhuWgphghnSX2BuI97lL9vuQ7EADAIAGBD8kBv4HwLDEMAZjsAEgGoRnwKwEBhoAQAYg+CEx8D8AhiWGMRiDDQDZw0ADAMgABD8kBv4HwLDEMAZjsAEgexhoAAAZgOCHxMD/ABiWGMZgDDYAZA8DDQAgAxD8kBj4HwDDEsMYjMEGgOxhoAEAZACCHxID/wNgWGIYgzHYAJA9DDQAgAxA8ENi4H8ADEsMYzAGGwCyh4EGAJABCH5IjDX7H+OCt69DpCzZOdVLwtUr4FUt2ru85q/ysnLEU8agAWKwASB7GGgAABmA4IfEcP2PT7y4U+YcOb2rF/jYiUuqwKdO7ZY5ZbEO1SP4IVqW6pylgq8O2tveHtv1lFvWO7udHHV8QwwawLVBz7l44171sUzlttr72IlLj5/cWbvx06hJddGWbbK+v0L1eVuqajNPPvwQ/Egu2AQqpjZlGlfTxlAdZuvRIVZmZwdsA2MY7AAA0BMEPySG5X9Ual8lVUD82MFxOQS+LKTKMp1T0Ota3riwd7o5bgwgBg1g2VBuj167qnLKjVv3H05q5a+KfXTw6Pb9h6szvrVFujfZan95Ota23En5kTSvQDOeZutjiqIw1H+1rQ6RRmREIPgBADIEwQ+J4Tr6urCvNtQut7zGzLMZz1cw1z6OmCktfa5Kbhdb3pLW1CkcavQpQOVUqzX29b7pjqIY1Z+tziR3zmAlorpQIqSpvy7k5ggKJQYNYNlw5c6DiTb2FbdMeb9/8GilliP4DyfGFXDGhxYh0zb1MFvEfxwQ/AAAGYLgh8RwBb+1Xf77xLcvl6mD4N9qJl2aFZfa4stmcka/xVkrae/XvCVhqhQOMbIKUBlNp9K1tyMk3M4ZrkTQFpJcc/P0HLuSGDSAaIOY8/wb19X2kVO7xy/ccCpzonSdAnxNpEU97qCOs+ht4Ykq7mnV7glVORGYtlCjgWnAnu8oo89IKlSwZFZL9r9tgetmNZYbU2vGi7FPj7O5C2vsLiGeeiIHAb0N1Dkq7W/cGAY7AAD0BMEPiSHO8Ftr+NUuVeAvr98t009/fU+ryRA5tTMmOV579uxssKRGvNM4sHm0xb3C7Lxzh6/Z6+rSrioIVmJrde8tv0HFbwuUGDRAq+Cv5vaPnbvmljEz5cDKwgE+O87iBBDlG/tdZW4f3s0SC1Hw++wXuppUj74s5FAJ/tZ29z4HQxb88iFy69untg8NN1DHqHSocWMY7AAA0BMEPyRGlyX9VfqdFy5NpIhAje5j6Q8y7yn4UfkgU3n/5g2/1pTf4oI/XImhD0I3D4dUS4Iz/NWt+2ffve07tvngXufu490XgpELLF7VApZYeGb4pZOOQo990ywxvsehEvytjbWo4BcXBXTvEvrVDzdQt6h0sHFjGOwAANATBD8khm9J/4/eu2MJ/rf+9n758eGjJufD/QOtJm1GrnGsu8yztZTM3heGJZk61kUxMpZm++d+xZlnp8u1V6LNOvuCUe6p9JwU7uFXmWqjejh/hX4nv/UYvw0K/mBUcTDBP1P83iglgr+X4Nc3g0Nxod411+xGZ1hM8AdexIHgBwDIEAQ/JMbq/I+pZzO759a5P9b1sYRnmbWWZEk/WFQP8R4bH6d9quyGwoTwfEWueL+uKfQDlWhv5TMm9tRSXqf/O53XkScxaADLhmPnrqm4nv5OPlWseoa/KqDV1LqkPxzgaxX8blRRk1zN/p6hRosFZvjLDb+CFyw5fEv6W+M47nS9fm+802rCUpvuXaI5wAz4iQ3UMSodatwYBjsAAPQEwQ+JsVrBn7vbCoeevm8BE46PQQMsYcOVOw9e2rkp7XHCHJ0DfPMjrSftmcrQiSpqJ5y+wi1YVfdQo/2NFhD8fhWvHVXbfBgf2hdq9+BT+puioQiaXkzrEp4VPUZXDTdQ56i0v3FjGOwAANATBD8kBoIfYCH6PFlCm2JuiEEDxGADwJTFYmp9I3CdzrC61WUMNACADEDwQ2Ig+AGGJQYNEIMN0dBM+/a7lWhV9Rw6uktsMYK2Wtwl+31goAEAZACCHxID/wNgWGIYgzHYABAN63p4DAMNACADEPyQGPgfAMMSwxiMwQaA7GGgAQBkAIIfEgP/A2BYYhiDMdgAkD0MNACADEDwQ2LgfwAMSwxjMAYbALKHgQYAkAEIfkgM/A+AYYlhDMZgA0D2MNAAADIAwQ+JEfA/7u4fnH597+iZy0+dvFimcqP8WGZu2EKAvIlBA8RgA0D2MNAAADIAwQ+J4fM/3nz/g2de2f3s18dWKjPLXZu3EyBXYtAAMdgAkD0MNACADEDwQ2KI/kcp6Z88fl6J/Kdf3vniN3fUx3LX0Jp/XKzwzcjQwiqu9vQtV70qqV/N3bwuq3pZlse42SvQjddpmQW1V6RXudY707e2nNJybdb5ffl+S+PQADHYAJA9DDQAgAxA8ENiuP7H3f0Da27/08VOmW/N869hbX93YbmOkuAjcA3Dl3d1F7+U+fOaxuNxnTOX4M0+69SjkS7SNWOm+l0dYoUiRJsDtWUr+PWcizfuVR/LVG6rvY+duPT4yZ1ljfde6mmmN0LUu1PJNfNDcVhZMBbZ/PBMql8SIxCo54hdKobBDgAAPUHwQ2K4/sfp1/esZfyu4C9TWWzVtiD442R4wS9p+rLy2tXWNo1Tj/XDlDGGxz6xM/wqVK4tT8Ffbo9eu6pyyo1b9x9OauWvin108Oj2/YdrEfyLHdUffihAxOwYzS/RbKlRUWg/PWKO3aliGOwAANATBD8khut/PPvq5S6C/+iZy05l1nLrqatUFKP5J3sttraIepqhLalWE7dmeZUz2t72eectdUJ3pKu9SJNZe00lPJ6XLPeog5oWtZu+Re9L++enM6f11dSx1Rv040MqVKgtU8F/5c6DKtMqdsuU9/sHj3pYjuCH+DE6hvNL48YazRxnfwyDHQAAeoLgh8Rw/Y+nTl7sIvjLYmZN7spIfeW0oZWcYq5Gcss3ayVnerCjKsCPX47w1e7eZO7eWSDA2dROKNbTeM3zaIB9R73rdlsWaoLf7hF6DCCsQgMbgSsTqHlKDBpAtEHMef6N62r7yKnd4xdumEWMgI4w/D2hH38kRQgjOkfJz3Zooo2uhXvGUYEYIuSO2eW2Cy3+aEUt3d+ONsHvHBHDYAcAgJ4g+CExwoL/89+4UKr9e/vT1bwtgl+YOBUca9sn39Ind4Pl98QF1Q6BOqE7vqu9UJMFZJ4wna7PwLv1OLLNvg/fr67nR69ghl+o7dAI/mpu/9i5a24ZM1OL4jQxwLbQj1Cy3rAb3woYBYJEgd8I+/gOMUTIFbNDNn+b3KeCtsl7IccuEMNgBwCAniD4ITFc/+PomemS/s+9cL6a2C8pN55+eadlSX+74Df3Cg9dayvfKvjDdUJ3xKu9aJMtL/hbvWorNzDDrywzZoyXuYffW5tWvqkqK8Ff3bp/9t3bvmO1T8bXrBumtSe4JY0AkHbhugeJfANfXOvBD8WhJfzT1FPw27HIGAY7AAD0BMEPiSE+tO+rP/z5zQ/3y+0vfectS+f7H9onLunXXSVzr6G/RNdKuEGgZTqupU7ojnS1l2myxQW/UI/mNNcP6bdjDXYjm+0+F4T6OgXjQdsePdmptnEhVpyV4FcP56/Q7+S3HuMnBUcmHXqCW9K4XNUl91bVEmyyQPCDzloFPzP8AAAZguCHxBBfy/fc99/58vfe9kl9/2v5xsYz3WSZpN8PWa0NL4qRpp223CfA2bcA+G+4basTuiNc7YWbTNvbXfAL9VjPxtY7xfxQ8Sn9Wg8R5ondeqQDO9Sm2WQIyAa1yHzLLRiHBrBsOHbumv4ePrWtilXP8Ndf1FejBUCMJSH6szqdyI6wMkK45mbYySocCDZZsKQfdLoLfu7hBwCAKQh+SAzR/3jz/Q+ePH7ep/bLXWWBQayFQ4r0nP4u+5IgBg2whA1X7jx4aeemkz2un5bnBGXmWYUupZySjtCyoohdg0RdBH+XGCJkT0ssUo9p8pR+AACYIPghOXz+Rynpn3llV5zbj0btG1OmTOLnjbBqe4axPD9NYtAAq7OBtfGQL4tFF4XSMQx2AADoCYIfEiPgf9zdPzj9+t6zr15+6uTFMh09c7n8KK3kB4DliUED5Cv4CQvCKvFFHl3EWGQMgx0AAHqC4IfEwP8AGJYYxmC+gh8gImIY7AAA0BMEPyQG/gfAsMQwBmOwASB7GGgAABmA4IfEwP8AGJYYxmAMNgBkDwMNACADEPyQGPgfAMMSwxiMwQaA7GGgAQBkAIIfEgP/A2BYYhiDMdgAkD0MNACADEDwQ2K0PqX/6Bme0g+wRmLQADHYAJA9DDQAgAxA8ENi+PyPN9//4JlXdj/79bGVysxy1+btBMiVGDRADDYAZA8DDQAgAxD8kBii/1FK+iePn1ci/+mXd774zR31sdy1Os2/kpd48SYwUKyiM0zftd2rkvpl3dP/9fe/i8bFoAFisAEgexhoAAAZgOCHxHD9j7v7B9bc/qeLnTLfmudf0dr+gDzrrtzWURISZeketbq+Ucr8eU3j8bjOmUv+Zp8iBg3g2qDnXLxxr/pYpnJb7X3sxKXHT+6YB0qXUQ6gtF/wssT8sg1FE7HZqo2dGmXnhfJhaBaN3y1YvhncE6PLRhvdAwCAniD4ITFc/+P063vWMn5X8JepLLaK8yP4YbUML/gFTT+tvNYE2mZFDBrAsqHcHr12VeWUG7fuP5zUyl8V++jg0e37D9sFv0xbyel1LAr3Wq4R0yRT+I0Ld5XGTOQL+k7Ph0FY30+900nmn2bBoaLQhnek0T0AAOgJgh8Sw/U/nn31chfBf/TMZbMmy9+ttmcb4/ksWeP77Kmc7cKdOJv6S9p0mZoZNT7LlVi01AnZ0LdHWXvlDlzuUQe5nXnLP4dviHxnfwwawLLhyp0HVaZV7JYp7/cPHjllVib4q+skXc31oZtkTNx6yuilfPkwCBsS/E7/NON5UUb3AACgJwh+SAzX/3jq5MUugr8sZtbkE/y1Nmqmy5pVjzOtZLllptayK5xuzrbClViIdUI2rKpHBTuwtqmdUKyn8fHn0QDD6bdFQAwaQLRBzHn+jetq+8ip3eMXbphFxBifdpXEOJ0bzlNKylBUC8Vf9DUVnljkdqEdbgZ9vIrd+g1R5Xz5MACh+J3R6GYzzQt27iRCdM8c3VFG9wAAoCcIfkiMsOD//DculGr/3v50Ne+ygt/w1h0fydBLtSflHKvfSavccbESi0CdkA0r6VHtHVjalutxhN7UEn3q2OiEMWiAVsFfze0fO3fNLWNmWiESKywihmbcoIm1UtpcKt8Sf6mvvhFh9IRy7IPMHuLGKITfEAR/nHRudOFum86dRBjsVk6M0T0AAOgJgh8Sw/U/jp6ZLun/3Avnq4n9knLj6Zd3ll/Sby2RFeWZ8FQzS56ZflUXwR+uE7JhJT1qecEf9vjd3Bg1QFjwV7fun333tu9Y7VPwMnpbygqaGAW1a7xYczj6TTLJl2m3rG+VkO+3ZbP3IoDNQo1eK/kmgNStk7QL/hijewAA0BMEPySG+NC+r/7w5zc/3C+3v/Sdtyyd739on+mWazMkzUSdM1fSzPIpJ8o7L2cp9fAq7rpIqE7IhlX1qMUFv1CP5uLXD+n3TR1XxKABwoJfPZy/Qr+T33qM37KC31VNFuLk6joFv/1b4RH83MMfKQu0r/O0iBUK/hijewAA0BMEPySG+Fq+577/zpe/97ZP6ntfy6e89OmTihvfqChG5i21TUntPl61bLZ5Lve8lP2INX2NpVWJRVudkA2r6FHa3u6CX6jHem630Pnje46XZcOxc9f09/CpbVWseoa//qK+mrBGEuN0TtDEjsuJy+a98RdtSX9zKikWGdZy86euOyEbO2zkeVIAvzHDskhAx34fRHfBzz38AACHEQQ/JIbof7z5/gdPHj/vU/vlrrJAt+qZUYfDR2g1d6Rv6lrChit3Hry0c9PJbtNIYpzODJq4vxq1ZF8o/qLV4YlFuofbAUFtqYH9BaxTePNhGBaJ31kRmpbyeifhKf0AAIcQBD8khs//KCX9M6/sinP7ndX+ZLOC31oGzAQbDEbglW5ufgwaIAYbAIbCXZrflQSjewAA0BMEPyRGwP+4u39w+vW9Z1+9/NTJi2U6euZy+VFYyR+CGX6AFmLQADHYADAM/R6wmFx0DwAAeoLgh8TA/wAYlhjGYAw2AGyc6g6QzUWlGWgAABmA4IfEwP8AGJYYxmAMNgBkDwMNACADEPyQGPgfAMMSwxiMwQaA7GGgAQBkAIIfEgP/A2BYYhiDMdgAkD0MNACADEDwQ2LgfwAMSwxjMAYbALKHgQYAkAEIfkiM1qf0Hz3T5yn9ANBCDBogBhsAsoeBBgCQAQh+SAyf//Hm+x8888ruZ78+tlKZWe7avJ0AuRKDBojBBoDsYaABAGQAgh8SQ/Q/Skn/5PHzSuQ//fLOF7+5oz6Wu9o0/7jwvugosKs7K6kEsmQVfWP6rq5eldSv5q5e+jWleiG3aFwMGiAGGwCyh4EGAJABCH5IDNf/uLt/YM3tf7rYKfOtef7g2v7lBH93qbaOkpAHS3ew1XWVUubPaxqPx3XOXPI3+xQxaADXBj3n4o171ccyldtq72MnLj1+csc8ULqMcgCl/YKXJeaXbSiaiI16WfvUKCvPyJoxpM1gsWj8bsHyzeCeGF022ugeAAD0hD/zkBiu/3H69T1rGb8r+MtUFvPXiuCHoRhe8Auaflp5rQm0zYoYNIBlQ7k9eu2qyik3bt1/OKmVvyr20cGj2/cftgt+mbaS0+tYFO61XCOmSabwGxfuKo2Z0m9ak1+beFhfWzidZP5pFhwqCm14RxrdAwCAniD4ITFc/+PZVy93EfxHz1y266pnw0bb241LFFjUbOzSJsnUVKjx2VO/SVPL9CCnTsgVqW+0dIZQ91O9dLYxnpcs96iDmv5nd9QWve/uj0EDWDZcufOgyrSK3TLl/f7BI6fMygR/dZ2kq7k+dJOMiVtPGXd6F8EfCRsS/E7/NON5UUb3AACgJwh+SAzX/3jq5MUugr8sZtbUrGWcKSBNL+3N98+2TCkl7/Ltdev3IZ0FsiXcN8TO0LH7zQIBzqZ2QrGexsefRwMMp98WATFoANEGMef5N66r7SOndo9fuGEWMUIkzaVxwnzBsOCkUVKGoloo/qKvqRBbdmZCc7gZ9PHpffsnRS/Hr00shOJ3RqObzTwv2LmTCNE9c3RHGd0DAICeIPghMcKC//PfuFCq/Xv709W8LYLf9cv3zDtgLd8rsGsi7RXrd2n8MQT/ocHXNwKdIdz9WmMELd3YEYpTS/SpY6NPxqABWgV/Nbd/7Nw1t4yZaYVIrLBIx7CgtVLaXELfEn+pr36zIN8fyrEPMnuIG6MQflIQ/HHSudGFu206dxJhsFs5MUb3AACgJwh+SAzX/zh6Zrqk/3MvnK8m9kvKjadf3mlZ0u8V/K4/1LZrIu3tIviFR6Phgh8CWvqe1BnC3W8xwR/2+N3cGDVAWPBXt+6fffe271jtU/Aydg0LGgW1a7xYczj6TTLJl2m3rG/RkBWP4NcmEhZq9FrJNwGkbp2kXfDHGN0DAICeIPghMcSH9n31hz+/+eF+uf2l77xl6Xz/Q/t8c3eWC2xMnnh2+fa2LelXFciTe5ArUt9o6Qyt3a+b4Bfq0Vz8+iH9vqnjihg0QFjwq4fzV+h38luP8VtW8LuqyUKcXF2n4Ld/OjyCn3v4I2WB9nWeFrFCwR9jdA8AAHqC4IfEEF/L99z33/ny9972SX3va/nG6l5H8e7c4Lr92jFvfHtnr1y/gVp72zzc26gTckXoG22dIdT9ugt+oR7rud16F54fGt9zvCwbjp27pr+HT22rYtUz/PUX9dWENVK3sKAtnJWq7hR/0Zb0N6dqlgh01XLzp647Yt4OG5mPaEPwR8IiAR37fRDdBT/38AMAHEYQ/JAYov/x5vsfPHn8vE/tl7vKAoNYC5AAoSfLR/qmriVsuHLnwUs7N53sNo3UISzo6uZasi8Uf9HqUCsGpm9NC2k/Oz6oLTWwv4B1CtskGJhF4ndW5KalvN5JeEo/AMAhBMEPieHzP0pJ/8wru+LcfjRq31r3yyQ+xELglW5ufgwaIAYbAIbCXZrflQSjewAA0BMEPyRGwP+4u39w+vW9Z1+9/NTJi2U6euZy+VFYyQ8APYhBA8RgA8AwhER7p6PTiu4BAEBPEPyQGPgfAMMSwxiMwQaAjVPdAbK5GzEYaAAAGYDgh8TA/wAYlhjGYAw2AGQPAw0AIAMQ/JAY+B8AwxLDGIzBBoDsYaABAGQAgh8SA/8DYFhiGIMx2ACQPQw0AIAMQPBDYlhv2CaRSIOkGH4HhrUBIHsYaAAAGYDgh8QYXOeQSKStoTXA4F+fRDo8adjBDgAAPUHwAwBAYgwugUikw5OGHu4AANALBD8AAAAAAABAhiD4AQAAAAAAADIEwQ8AAAAAAACQIQh+AAAAAAAAgAxB8AMAAAAAAABkCIIfAAAAAAAAIEMQ/AAAAAAAAAAZguAHAAAAAAAAyBAEPwAAAAAAAECGIPgBAAAAAAAAMuT/BzY0MZPpsX0YAAAAAElFTkSuQmCC;" vertex="1" parent="1">
                    <mxGeometry width="1770" height="1290" as="geometry"/>
                </mxCell>
                <mxCell id="9" style="edgeStyle=none;html=1;entryX=1;entryY=0;entryDx=0;entryDy=0;endArrow=none;endFill=0;strokeWidth=3;dashed=1;dashPattern=1 2;" parent="1" source="10" target="11" edge="1">
                    <mxGeometry relative="1" as="geometry"/>
                </mxCell>
                <mxCell id="10" value="X-Community-Readyness&lt;br style=&quot;font-size: 15px;&quot;&gt;Step 3" style="text;html=1;strokeColor=default;fillColor=none;align=center;verticalAlign=middle;whiteSpace=wrap;rounded=0;strokeWidth=2;fontSize=15;" parent="1" vertex="1">
                    <mxGeometry x="1660" y="20.47999999999999" width="120" height="60" as="geometry"/>
                </mxCell>
                <mxCell id="11" value="" style="ellipse;shape=doubleEllipse;whiteSpace=wrap;html=1;fillColor=none;strokeWidth=2;rotation=0;" parent="1" vertex="1">
                    <mxGeometry x="960" y="20" width="820" height="670" as="geometry"/>
                </mxCell>
                <mxCell id="12" style="edgeStyle=none;html=1;entryX=0.377;entryY=0.978;entryDx=0;entryDy=0;endArrow=none;endFill=0;strokeWidth=3;dashed=1;dashPattern=1 2;entryPerimeter=0;" parent="1" source="13" target="14" edge="1">
                    <mxGeometry relative="1" as="geometry"/>
                </mxCell>
                <mxCell id="13" value="X-Community-Readyness&lt;br style=&quot;font-size: 15px;&quot;&gt;Step 1" style="text;html=1;strokeColor=default;fillColor=none;align=center;verticalAlign=middle;whiteSpace=wrap;rounded=0;strokeWidth=2;fontSize=15;" parent="1" vertex="1">
                    <mxGeometry x="40" y="470" width="120" height="60" as="geometry"/>
                </mxCell>
                <mxCell id="14" value="" style="ellipse;shape=doubleEllipse;whiteSpace=wrap;html=1;fillColor=none;strokeWidth=2;rotation=0;" parent="1" vertex="1">
                    <mxGeometry x="-150" y="-40" width="1140" height="450" as="geometry"/>
                </mxCell>
                <mxCell id="18" style="edgeStyle=none;html=1;entryX=1;entryY=1;entryDx=0;entryDy=0;endArrow=none;endFill=0;strokeWidth=3;dashed=1;dashPattern=1 2;" parent="1" source="19" target="20" edge="1">
                    <mxGeometry relative="1" as="geometry"/>
                </mxCell>
                <mxCell id="19" value="X-Community-Readyness&lt;br style=&quot;font-size: 15px;&quot;&gt;Step 2" style="text;html=1;strokeColor=default;fillColor=none;align=center;verticalAlign=middle;whiteSpace=wrap;rounded=0;strokeWidth=2;fontSize=15;" parent="1" vertex="1">
                    <mxGeometry x="1360" y="1140" width="120" height="60" as="geometry"/>
                </mxCell>
                <mxCell id="20" value="" style="ellipse;shape=doubleEllipse;whiteSpace=wrap;html=1;fillColor=none;strokeWidth=2;rotation=-30;" parent="1" vertex="1">
                    <mxGeometry x="567.36" y="338.87" width="600.16" height="1050.72" as="geometry"/>
                </mxCell>
            </root>
        </mxGraphModel>
    </diagram>
</mxfile>